SplineFontDB: 3.0
FontName: SquadaOne-Regular
FullName: Squada One Regular
FamilyName: Squada One
Weight: Normal
Copyright: Copyright (c) 2011, Admix Designs (http://www.admixdesigns.com/) with Reserved Font Name Squada.
Version: 001.001
ItalicAngle: 0
UnderlinePosition: -50
UnderlineWidth: 50
Ascent: 800
Descent: 200
sfntRevision: 0x00010042
LayerCount: 2
Layer: 0 1 "Back"  1
Layer: 1 1 "Fore"  0
NeedsXUIDChange: 1
XUID: [1021 288 713564382 10117958]
FSType: 0
OS2Version: 2
OS2_WeightWidthSlopeOnly: 0
OS2_UseTypoMetrics: 1
CreationTime: 1322390795
ModificationTime: 1322419716
PfmFamily: 17
TTFWeight: 400
TTFWidth: 5
LineGap: 0
VLineGap: 0
Panose: 2 0 0 0 0 0 0 0 0 0
OS2TypoAscent: 61
OS2TypoAOffset: 1
OS2TypoDescent: 4
OS2TypoDOffset: 1
OS2TypoLinegap: 0
OS2WinAscent: 0
OS2WinAOffset: 1
OS2WinDescent: 0
OS2WinDOffset: 1
HheadAscent: 0
HheadAOffset: 1
HheadDescent: 0
HheadDOffset: 1
OS2SubXSize: 700
OS2SubYSize: 650
OS2SubXOff: 0
OS2SubYOff: 140
OS2SupXSize: 700
OS2SupYSize: 650
OS2SupXOff: 0
OS2SupYOff: 477
OS2StrikeYSize: 50
OS2StrikeYPos: 250
OS2Vendor: 'pyrs'
OS2CodePages: 00000001.00000000
OS2UnicodeRanges: 800000a3.00000000.00000000.00000000
MarkAttachClasses: 1
DEI: 91125
TtTable: prep
PUSHW_1
 511
SCANCTRL
PUSHB_1
 4
SCANTYPE
EndTTInstrs
LangName: 1033 "" "" "" "JoePrince: Squada One Regular: 2011" "SquadaOne-Regular" "Version 1.001" "" "Squada is a trademark of Admix Designs (www.admixdesigns.com)" "Joe Prince" "Joe Prince" "" "http://www.admixdesigns.com/" "http://www.admixdesigns.com/" "This Font Software is licensed under the SIL Open Font License, Version 1.1. This license is available with a FAQ at: http://scripts.sil.org/OFL" "http://scripts.sil.org/OFL" 
GaspTable: 1 65535 15
Encoding: UnicodeBmp
UnicodeInterp: none
NameList: Adobe Glyph List
DisplaySize: -36
AntiAlias: 1
FitToEm: 1
WinInfo: 50 25 10
BeginPrivate: 2
BlueValues 23 [-10 0 488 498 647 657]
OtherBlues 11 [-169 -159]
EndPrivate
BeginChars: 65537 190

StartChar: a
Encoding: 97 97 1
Width: 452
Flags: HMW
HStem: -10 96<129.5 253 169 253> 0 21G<293 406 293 293> 402 96<193 198 198 213.5 169 253> 468 20G<293 406 406 406>
VStem: 45 134<122 366 366 382> 272 134<106 382 382 387.5> 293 113<0 36 36 36 452 488 0 488>
LayerCount: 2
Fore
SplineSet
293 488 m 1,0,-1
 406 488 l 1,1,-1
 406 0 l 1,2,-1
 293 0 l 1,3,-1
 293 36 l 1,4,5
 262 -10 262 -10 190 -10 c 2,6,-1
 169 -10 l 2,7,8
 45 -10 45 -10 45 122 c 2,9,-1
 45 366 l 2,10,11
 45 498 45 498 169 498 c 2,12,-1
 190 498 l 2,13,14
 262 498 262 498 293 452 c 1,15,-1
 293 488 l 1,0,-1
272 106 m 2,16,-1
 272 382 l 2,17,18
 272 390 272 390 266.5 396 c 128,-1,19
 261 402 261 402 253 402 c 2,20,-1
 198 402 l 2,21,22
 190 402 190 402 184.5 396 c 128,-1,23
 179 390 179 390 179 382 c 2,24,-1
 179 106 l 2,25,26
 179 98 179 98 184.5 92 c 128,-1,27
 190 86 190 86 198 86 c 2,28,-1
 253 86 l 2,29,30
 261 86 261 86 266.5 92 c 128,-1,31
 272 98 272 98 272 106 c 2,16,-1
EndSplineSet
EndChar

StartChar: b
Encoding: 98 98 2
Width: 452
Flags: HMW
HStem: -10 21G<237.5 261 261 282> 0 86<45 253> 402 96<193 282 198 282> 627 20G<45 179 179 179>
VStem: 45 134<100.5 106 106 382 474 647> 272 134<106 122 122 366>
LayerCount: 2
Fore
SplineSet
261 498 m 2,0,-1
 282 498 l 2,1,2
 406 498 406 498 406 366 c 2,3,-1
 406 122 l 2,4,5
 406 -10 406 -10 282 -10 c 2,6,-1
 261 -10 l 2,7,8
 189 -10 189 -10 158 36 c 1,9,-1
 158 0 l 1,10,-1
 45 0 l 1,11,-1
 45 647 l 1,12,-1
 179 647 l 1,13,-1
 179 474 l 1,14,15
 211 498 211 498 261 498 c 2,0,-1
179 382 m 2,16,-1
 179 106 l 2,17,18
 179 98 179 98 184.5 92 c 128,-1,19
 190 86 190 86 198 86 c 2,20,-1
 253 86 l 2,21,22
 261 86 261 86 266.5 92 c 128,-1,23
 272 98 272 98 272 106 c 2,24,-1
 272 382 l 2,25,26
 272 390 272 390 266.5 396 c 128,-1,27
 261 402 261 402 253 402 c 2,28,-1
 198 402 l 2,29,30
 190 402 190 402 184.5 396 c 128,-1,31
 179 390 179 390 179 382 c 2,16,-1
EndSplineSet
EndChar

StartChar: c
Encoding: 99 99 3
Width: 446
Flags: HMW
HStem: -10 96<129.5 253 198 253 253 258 198 282> -10 202<129.5 406 272 282> 296 202<272 282 282 321.5 169 406 272 272> 402 96<193 198 198 253>
VStem: 45 134<122 366 366 382> 272 134<106 122 122 192 76 192 296 366>
LayerCount: 2
Fore
SplineSet
406 296 m 1,0,-1
 272 296 l 1,1,-1
 272 382 l 2,2,3
 272 390 272 390 266.5 396 c 128,-1,4
 261 402 261 402 253 402 c 2,5,-1
 198 402 l 2,6,7
 190 402 190 402 184.5 396 c 128,-1,8
 179 390 179 390 179 382 c 2,9,-1
 179 106 l 2,10,11
 179 98 179 98 184.5 92 c 128,-1,12
 190 86 190 86 198 86 c 2,13,-1
 253 86 l 2,14,15
 261 86 261 86 266.5 92 c 128,-1,16
 272 98 272 98 272 106 c 2,17,-1
 272 192 l 1,18,-1
 406 192 l 1,19,-1
 406 122 l 2,20,21
 406 -10 406 -10 282 -10 c 2,22,-1
 169 -10 l 2,23,24
 45 -10 45 -10 45 122 c 2,25,-1
 45 366 l 2,26,27
 45 498 45 498 169 498 c 2,28,-1
 282 498 l 2,29,30
 406 498 406 498 406 366 c 2,31,-1
 406 296 l 1,0,-1
EndSplineSet
EndChar

StartChar: d
Encoding: 100 100 4
Width: 452
Flags: HMW
HStem: -10 96<129.5 253 169 253> 0 21G<293 406 293 293> 402 96<193 198 198 206.5 169 253> 627 20G<272 406 406 406>
VStem: 45 134<122 366 366 382> 272 134<106 382 382 387.5 474 647 0 647>
LayerCount: 2
Fore
SplineSet
190 498 m 2,0,1
 241 498 241 498 272 474 c 1,2,-1
 272 647 l 1,3,-1
 406 647 l 1,4,-1
 406 0 l 1,5,-1
 293 0 l 1,6,-1
 293 36 l 1,7,8
 262 -10 262 -10 190 -10 c 2,9,-1
 169 -10 l 2,10,11
 45 -10 45 -10 45 122 c 2,12,-1
 45 366 l 2,13,14
 45 498 45 498 169 498 c 2,15,-1
 190 498 l 2,0,1
272 106 m 2,16,-1
 272 382 l 2,17,18
 272 390 272 390 266.5 396 c 128,-1,19
 261 402 261 402 253 402 c 2,20,-1
 198 402 l 2,21,22
 190 402 190 402 184.5 396 c 128,-1,23
 179 390 179 390 179 382 c 2,24,-1
 179 106 l 2,25,26
 179 98 179 98 184.5 92 c 128,-1,27
 190 86 190 86 198 86 c 2,28,-1
 253 86 l 2,29,30
 261 86 261 86 266.5 92 c 128,-1,31
 272 98 272 98 272 106 c 2,16,-1
EndSplineSet
EndChar

StartChar: e
Encoding: 101 101 5
Width: 435
Flags: HMW
HStem: -10 96<129.5 253 198 253 253 258 198 282> -10 170<129.5 406 272 282> 208 88<179 272 179 406 179 272> 406 92<193 198 198 253>
VStem: 45 134<122 208 296 366 366 386> 272 134<106 122 122 160 76 160 296 366>
LayerCount: 2
Fore
SplineSet
282 498 m 2,0,1
 406 498 406 498 406 366 c 2,2,-1
 406 208 l 1,3,-1
 179 208 l 1,4,-1
 179 106 l 2,5,6
 179 98 179 98 184.5 92 c 128,-1,7
 190 86 190 86 198 86 c 2,8,-1
 253 86 l 2,9,10
 261 86 261 86 266.5 92 c 128,-1,11
 272 98 272 98 272 106 c 2,12,-1
 272 160 l 1,13,-1
 406 160 l 1,14,-1
 406 122 l 2,15,16
 406 -10 406 -10 282 -10 c 2,17,-1
 169 -10 l 2,18,19
 45 -10 45 -10 45 122 c 2,20,-1
 45 366 l 2,21,22
 45 498 45 498 169 498 c 2,23,-1
 282 498 l 2,0,1
179 296 m 1,24,-1
 272 296 l 1,25,-1
 272 386 l 2,26,27
 272 394 272 394 266.5 400 c 128,-1,28
 261 406 261 406 253 406 c 2,29,-1
 198 406 l 2,30,31
 190 406 190 406 184.5 400 c 128,-1,32
 179 394 179 394 179 386 c 2,33,-1
 179 296 l 1,24,-1
EndSplineSet
EndChar

StartChar: f
Encoding: 102 102 6
Width: 277
Flags: HMW
HStem: 0 21G<45 179 45 45> 387 101<179 263 179 263> 565 92<209.5 223 223 263>
VStem: 45 134<0 387 488 517 0 525> 45 218<387 488 387 525 387 565 565 571>
LayerCount: 2
Fore
SplineSet
223 565 m 2,0,1
 201 565 201 565 190 555 c 128,-1,2
 179 545 179 545 179 517 c 2,3,-1
 179 488 l 1,4,-1
 263 488 l 1,5,-1
 263 387 l 1,6,-1
 179 387 l 1,7,-1
 179 0 l 1,8,-1
 45 0 l 1,9,-1
 45 525 l 2,10,11
 45 657 45 657 169 657 c 2,12,-1
 263 657 l 1,13,-1
 263 565 l 1,14,-1
 223 565 l 2,0,1
EndSplineSet
EndChar

StartChar: g
Encoding: 103 103 7
Width: 452
Flags: HMW
HStem: -169 96<142.5 253 198 253 253 258 198 282> -169 148<142.5 179 58 182 58 282> 23 96<129.5 253 169 253> 402 86<198 406> 478 20G<169 190 190 213.5>
VStem: 45 134<155 366 366 382> 58 121<-37 -21 -58.5 -21> 272 134<-53 -37 -37 47 47 47 139 382 382 387.5>
LayerCount: 2
Fore
SplineSet
406 488 m 1,0,-1
 406 -37 l 2,1,2
 406 -169 406 -169 282 -169 c 2,3,-1
 182 -169 l 2,4,5
 58 -169 58 -169 58 -37 c 2,6,-1
 58 -21 l 1,7,-1
 179 -21 l 1,8,-1
 179 -53 l 2,9,10
 179 -61 179 -61 184.5 -67 c 128,-1,11
 190 -73 190 -73 198 -73 c 2,12,-1
 253 -73 l 2,13,14
 261 -73 261 -73 266.5 -67 c 128,-1,15
 272 -61 272 -61 272 -53 c 2,16,-1
 272 47 l 1,17,18
 241 23 241 23 190 23 c 2,19,-1
 169 23 l 2,20,21
 45 23 45 23 45 155 c 2,22,-1
 45 366 l 2,23,24
 45 498 45 498 169 498 c 2,25,-1
 190 498 l 2,26,27
 262 498 262 498 293 452 c 1,28,-1
 293 488 l 1,29,-1
 406 488 l 1,0,-1
272 139 m 2,30,-1
 272 382 l 2,31,32
 272 390 272 390 266.5 396 c 128,-1,33
 261 402 261 402 253 402 c 2,34,-1
 198 402 l 2,35,36
 190 402 190 402 184.5 396 c 128,-1,37
 179 390 179 390 179 382 c 2,38,-1
 179 139 l 2,39,40
 179 131 179 131 184.5 125 c 128,-1,41
 190 119 190 119 198 119 c 2,42,-1
 253 119 l 2,43,44
 261 119 261 119 266.5 125 c 128,-1,45
 272 131 272 131 272 139 c 2,30,-1
EndSplineSet
EndChar

StartChar: h
Encoding: 104 104 8
Width: 452
Flags: HMW
HStem: 0 21G<45 179 45 45 272 272 272 406> 402 96<193 282 198 282> 627 20G<45 179 179 179>
VStem: 45 134<0 384 474 647> 272 134<0 366 0 382 0 387.5>
LayerCount: 2
Fore
SplineSet
179 0 m 1,0,-1
 45 0 l 1,1,-1
 45 647 l 1,2,-1
 179 647 l 1,3,-1
 179 474 l 1,4,5
 209 498 209 498 261 498 c 2,6,-1
 282 498 l 2,7,8
 406 498 406 498 406 366 c 2,9,-1
 406 0 l 1,10,-1
 272 0 l 1,11,-1
 272 382 l 2,12,13
 272 390 272 390 266.5 396 c 128,-1,14
 261 402 261 402 253 402 c 2,15,-1
 198 402 l 2,16,17
 181 402 181 402 179 384 c 1,18,-1
 179 0 l 1,0,-1
EndSplineSet
EndChar

StartChar: i
Encoding: 105 105 9
Width: 246
Flags: HMW
HStem: 0 21G<63 63 63 197> 468 20G<63 197 197 197> 528 147<110 150>
VStem: 63 134<0 488 0 488>
LayerCount: 2
Fore
SplineSet
130 528 m 128,-1,1
 100 528 100 528 78 549.5 c 128,-1,2
 56 571 56 571 56 601.5 c 0,3,4
 56 632 56 632 78 653.5 c 128,-1,5
 100 675 100 675 130 675 c 128,-1,6
 160 675 160 675 181.5 653.5 c 128,-1,7
 203 632 203 632 203 601 c 128,-1,8
 203 570 203 570 181.5 549 c 128,-1,0
 160 528 160 528 130 528 c 128,-1,1
63 0 m 1,9,-1
 63 488 l 1,10,-1
 197 488 l 1,11,-1
 197 0 l 1,12,-1
 63 0 l 1,9,-1
EndSplineSet
EndChar

StartChar: j
Encoding: 106 106 10
Width: 265
Flags: HMW
HStem: -169 98<3 30 30 43.5 3 84 3 30> 468 20G<74 208 208 208> 528 147<121 161>
VStem: 3 205<-83 -71 -71 -71> 74 134<-23 488>
LayerCount: 2
Fore
SplineSet
74 -23 m 2,0,-1
 74 488 l 1,1,-1
 208 488 l 1,2,-1
 208 -37 l 2,3,4
 208 -169 208 -169 84 -169 c 2,5,-1
 3 -169 l 1,6,-1
 3 -71 l 1,7,-1
 30 -71 l 2,8,9
 52 -71 52 -71 63 -61 c 128,-1,10
 74 -51 74 -51 74 -23 c 2,0,-1
141 528 m 128,-1,12
 111 528 111 528 89 549.5 c 128,-1,13
 67 571 67 571 67 601.5 c 0,14,15
 67 632 67 632 89 653.5 c 128,-1,16
 111 675 111 675 141 675 c 128,-1,17
 171 675 171 675 192.5 653.5 c 128,-1,18
 214 632 214 632 214 601 c 128,-1,19
 214 570 214 570 192.5 549 c 128,-1,11
 171 528 171 528 141 528 c 128,-1,12
EndSplineSet
EndChar

StartChar: k
Encoding: 107 107 11
Width: 456
Flags: HMW
HStem: 0 21G<45 179 45 45 311 445 311 311> 468 20G<297 429 429 429> 627 20G<45 179 179 179>
VStem: 45 134<0 203 0 313 313 647>
LayerCount: 2
Fore
SplineSet
429 488 m 1,0,-1
 329 259 l 1,1,-1
 445 0 l 1,2,-1
 311 0 l 1,3,-1
 219 203 l 1,4,-1
 179 203 l 1,5,-1
 179 0 l 1,6,-1
 45 0 l 1,7,-1
 45 647 l 1,8,-1
 179 647 l 1,9,-1
 179 313 l 1,10,-1
 224 313 l 1,11,-1
 297 488 l 1,12,-1
 429 488 l 1,0,-1
EndSplineSet
EndChar

StartChar: l
Encoding: 108 108 12
Width: 224
Flags: HMW
HStem: 0 21G<45 179 45 45> 627 20G<45 179 179 179>
VStem: 45 134<0 647>
LayerCount: 2
Fore
SplineSet
179 0 m 1,0,-1
 45 0 l 1,1,-1
 45 647 l 1,2,-1
 179 647 l 1,3,-1
 179 0 l 1,0,-1
EndSplineSet
EndChar

StartChar: m
Encoding: 109 109 13
Width: 661
Flags: HMW
HStem: 0 21G<45 179 45 45 260 394 260 260 475 609 475 475> 402 96<193 270 198 270> 468 20G<45 167 167 167>
VStem: 45 134<0 382 0 488 0 488> 260 134<0 382 0 387.5> 475 134<0 366 0 382 0 387.5>
CounterMasks: 1 1c
LayerCount: 2
Fore
SplineSet
485 498 m 2,0,1
 609 498 609 498 609 366 c 2,2,-1
 609 0 l 1,3,-1
 475 0 l 1,4,-1
 475 382 l 2,5,6
 475 390 475 390 469.5 396 c 128,-1,7
 464 402 464 402 456 402 c 2,8,-1
 413 402 l 2,9,10
 405 402 405 402 399.5 396 c 128,-1,11
 394 390 394 390 394 382 c 2,12,-1
 394 0 l 1,13,-1
 260 0 l 1,14,-1
 260 382 l 2,15,16
 260 390 260 390 254.5 396 c 128,-1,17
 249 402 249 402 241 402 c 2,18,-1
 198 402 l 2,19,20
 190 402 190 402 184.5 396 c 128,-1,21
 179 390 179 390 179 382 c 2,22,-1
 179 0 l 1,23,-1
 45 0 l 1,24,-1
 45 488 l 1,25,-1
 167 488 l 1,26,-1
 167 463 l 1,27,28
 198 498 198 498 261 498 c 2,29,-1
 270 498 l 2,30,31
 344 498 344 498 373 452 c 1,32,33
 404 498 404 498 476 498 c 2,34,-1
 485 498 l 2,0,1
EndSplineSet
EndChar

StartChar: n
Encoding: 110 110 14
Width: 452
Flags: HMW
HStem: 0 21G<45 179 45 45 272 272 272 406> 402 96<193 282 198 282> 468 20G<45 167 167 167>
VStem: 45 134<0 382> 272 134<0 366 0 382 0 387.5>
LayerCount: 2
Fore
SplineSet
179 0 m 1,0,-1
 45 0 l 1,1,-1
 45 488 l 1,2,-1
 167 488 l 1,3,-1
 167 463 l 1,4,5
 198 498 198 498 261 498 c 2,6,-1
 282 498 l 2,7,8
 406 498 406 498 406 366 c 2,9,-1
 406 0 l 1,10,-1
 272 0 l 1,11,-1
 272 382 l 2,12,13
 272 390 272 390 266.5 396 c 128,-1,14
 261 402 261 402 253 402 c 2,15,-1
 198 402 l 2,16,17
 190 402 190 402 184.5 396 c 128,-1,18
 179 390 179 390 179 382 c 2,19,-1
 179 0 l 1,0,-1
EndSplineSet
EndChar

StartChar: o
Encoding: 111 111 15
Width: 452
Flags: HMW
HStem: -10 84<129.5 253 198 253 253 258 198 282> 415 83<193 198 198 253>
VStem: 45 134<122 366 366 395> 272 134<94 122 122 366>
LayerCount: 2
Fore
SplineSet
406 366 m 2,0,-1
 406 122 l 2,1,2
 406 -10 406 -10 282 -10 c 2,3,-1
 169 -10 l 2,4,5
 45 -10 45 -10 45 122 c 2,6,-1
 45 366 l 2,7,8
 45 498 45 498 169 498 c 2,9,-1
 282 498 l 2,10,11
 406 498 406 498 406 366 c 2,0,-1
272 94 m 2,12,-1
 272 395 l 2,13,14
 272 403 272 403 266.5 409 c 128,-1,15
 261 415 261 415 253 415 c 2,16,-1
 198 415 l 2,17,18
 190 415 190 415 184.5 409 c 128,-1,19
 179 403 179 403 179 395 c 2,20,-1
 179 94 l 2,21,22
 179 86 179 86 184.5 80 c 128,-1,23
 190 74 190 74 198 74 c 2,24,-1
 253 74 l 2,25,26
 261 74 261 74 266.5 80 c 128,-1,27
 272 86 272 86 272 94 c 2,12,-1
EndSplineSet
EndChar

StartChar: p
Encoding: 112 112 16
Width: 452
Flags: HMW
HStem: -159 21G<45 179 45 45> -10 96<244.5 253 253 258 198 261 198 282> 402 96<193 282 198 282> 468 20G<45 158 158 158>
VStem: 45 134<-159 14 100.5 106 106 382> 272 134<106 122 122 366>
LayerCount: 2
Fore
SplineSet
282 -10 m 2,0,-1
 261 -10 l 2,1,2
 210 -10 210 -10 179 14 c 1,3,-1
 179 -159 l 1,4,-1
 45 -159 l 1,5,-1
 45 488 l 1,6,-1
 158 488 l 1,7,-1
 158 452 l 1,8,9
 189 498 189 498 261 498 c 2,10,-1
 282 498 l 2,11,12
 406 498 406 498 406 366 c 2,13,-1
 406 122 l 2,14,15
 406 -10 406 -10 282 -10 c 2,0,-1
179 382 m 2,16,-1
 179 106 l 2,17,18
 179 98 179 98 184.5 92 c 128,-1,19
 190 86 190 86 198 86 c 2,20,-1
 253 86 l 2,21,22
 261 86 261 86 266.5 92 c 128,-1,23
 272 98 272 98 272 106 c 2,24,-1
 272 382 l 2,25,26
 272 390 272 390 266.5 396 c 128,-1,27
 261 402 261 402 253 402 c 2,28,-1
 198 402 l 2,29,30
 190 402 190 402 184.5 396 c 128,-1,31
 179 390 179 390 179 382 c 2,16,-1
EndSplineSet
EndChar

StartChar: q
Encoding: 113 113 17
Width: 452
Flags: HMW
HStem: -159 21G<272 406 272 272> -10 96<129.5 253 169 253> 402 86<198 406> 478 20G<169 190 190 213.5>
VStem: 45 134<122 366 366 382> 272 134<-159 14 14 14 106 382 382 387.5>
LayerCount: 2
Fore
SplineSet
190 -10 m 2,0,-1
 169 -10 l 2,1,2
 45 -10 45 -10 45 122 c 2,3,-1
 45 366 l 2,4,5
 45 498 45 498 169 498 c 2,6,-1
 190 498 l 2,7,8
 262 498 262 498 293 452 c 1,9,-1
 293 488 l 1,10,-1
 406 488 l 1,11,-1
 406 -159 l 1,12,-1
 272 -159 l 1,13,-1
 272 14 l 1,14,15
 241 -10 241 -10 190 -10 c 2,0,-1
272 106 m 2,16,-1
 272 382 l 2,17,18
 272 390 272 390 266.5 396 c 128,-1,19
 261 402 261 402 253 402 c 2,20,-1
 198 402 l 2,21,22
 190 402 190 402 184.5 396 c 128,-1,23
 179 390 179 390 179 382 c 2,24,-1
 179 106 l 2,25,26
 179 98 179 98 184.5 92 c 128,-1,27
 190 86 190 86 198 86 c 2,28,-1
 253 86 l 2,29,30
 261 86 261 86 266.5 92 c 128,-1,31
 272 98 272 98 272 106 c 2,16,-1
EndSplineSet
EndChar

StartChar: r
Encoding: 114 114 18
Width: 294
Flags: HMW
HStem: 0 21G<45 179 45 45> 368 120<45 213 45 279> 478 20G<253 279 279 279>
VStem: 45 134<0 333 0 488> 45 234<368 488 488 488>
LayerCount: 2
Fore
SplineSet
253 498 m 2,0,-1
 279 498 l 1,1,-1
 279 368 l 1,2,-1
 213 368 l 2,3,4
 179 368 179 368 179 333 c 2,5,-1
 179 0 l 1,6,-1
 45 0 l 1,7,-1
 45 488 l 1,8,-1
 167 488 l 1,9,-1
 167 441 l 1,10,11
 196 498 196 498 253 498 c 2,0,-1
EndSplineSet
EndChar

StartChar: s
Encoding: 115 115 19
Width: 433
Flags: HMW
HStem: -10 99<124.5 265 183 265 265 270 183 275> -10 163<124.5 164 40 275> 189 117<122.5 275 172 265> 348 150<267 306.5 162 391 162 267> 399 99<167 172 172 248>
VStem: 38 115<321 326 326 366 366 379 320.5 412> 284 107
LayerCount: 2
Fore
SplineSet
275 306 m 2,0,1
 399 306 399 306 399 174 c 2,2,-1
 399 122 l 2,3,4
 399 -10 399 -10 275 -10 c 2,5,-1
 164 -10 l 2,6,7
 40 -10 40 -10 40 122 c 2,8,-1
 40 153 l 1,9,-1
 164 153 l 1,10,-1
 164 109 l 2,11,12
 164 101 164 101 169.5 95 c 128,-1,13
 175 89 175 89 183 89 c 2,14,-1
 265 89 l 2,15,16
 273 89 273 89 278.5 95 c 128,-1,17
 284 101 284 101 284 109 c 2,18,-1
 284 169 l 2,19,20
 284 177 284 177 278.5 183 c 128,-1,21
 273 189 273 189 265 189 c 2,22,-1
 162 189 l 2,23,24
 38 189 38 189 38 321 c 2,25,-1
 38 366 l 2,26,27
 38 498 38 498 162 498 c 2,28,-1
 267 498 l 2,29,30
 391 498 391 498 391 366 c 2,31,-1
 391 348 l 1,32,-1
 267 348 l 1,33,-1
 267 379 l 2,34,35
 267 387 267 387 261.5 393 c 128,-1,36
 256 399 256 399 248 399 c 2,37,-1
 172 399 l 2,38,39
 164 399 164 399 158.5 393 c 128,-1,40
 153 387 153 387 153 379 c 2,41,-1
 153 326 l 2,42,43
 153 318 153 318 158.5 312 c 128,-1,44
 164 306 164 306 172 306 c 2,45,-1
 275 306 l 2,0,1
EndSplineSet
EndChar

StartChar: t
Encoding: 116 116 20
Width: 288
Flags: HMW
HStem: -10 87<129.5 263 223 263 223 263> 391 97<179 263 179 263> 574 20G<45 179 179 179>
VStem: 45 134<122 125 125 391 488 594> 45 218<391 488>
LayerCount: 2
Fore
SplineSet
223 77 m 2,0,-1
 263 77 l 1,1,-1
 263 -10 l 1,2,-1
 169 -10 l 2,3,4
 45 -10 45 -10 45 122 c 2,5,-1
 45 594 l 1,6,-1
 179 594 l 1,7,-1
 179 488 l 1,8,-1
 263 488 l 1,9,-1
 263 391 l 1,10,-1
 179 391 l 1,11,-1
 179 125 l 2,12,13
 179 97 179 97 190 87 c 128,-1,14
 201 77 201 77 223 77 c 2,0,-1
EndSplineSet
EndChar

StartChar: u
Encoding: 117 117 21
Width: 452
Flags: HMW
HStem: -10 96<129.5 253 169 253> 0 21G<284 406 284 284> 468 20G<45 179 179 179 272 406 406 406>
VStem: 45 134<122 488> 272 134<106 488 0 488>
LayerCount: 2
Fore
SplineSet
272 488 m 1,0,-1
 406 488 l 1,1,-1
 406 0 l 1,2,-1
 284 0 l 1,3,-1
 284 25 l 1,4,5
 253 -10 253 -10 190 -10 c 2,6,-1
 169 -10 l 2,7,8
 45 -10 45 -10 45 122 c 2,9,-1
 45 488 l 1,10,-1
 179 488 l 1,11,-1
 179 106 l 2,12,13
 179 98 179 98 184.5 92 c 128,-1,14
 190 86 190 86 198 86 c 2,15,-1
 253 86 l 2,16,17
 261 86 261 86 266.5 92 c 128,-1,18
 272 98 272 98 272 106 c 2,19,-1
 272 488 l 1,0,-1
EndSplineSet
EndChar

StartChar: v
Encoding: 118 118 22
Width: 413
Flags: HMW
HStem: 0 21G<116 293 116 116> 468 20G<9 139 139 139 270 400 400 400>
LayerCount: 2
Fore
SplineSet
270 488 m 1,0,-1
 400 488 l 1,1,-1
 293 0 l 1,2,-1
 116 0 l 1,3,-1
 9 488 l 1,4,-1
 139 488 l 1,5,-1
 205 109 l 1,6,-1
 270 488 l 1,0,-1
EndSplineSet
EndChar

StartChar: w
Encoding: 119 119 23
Width: 662
Flags: HMW
HStem: 0 21G<114 276 114 114 386 548 386 386> 468 20G<7 137 137 137 267 395 395 395 525 655 655 655>
LayerCount: 2
Fore
SplineSet
267 488 m 1,0,-1
 395 488 l 1,1,-1
 468 109 l 1,2,-1
 525 488 l 1,3,-1
 655 488 l 1,4,-1
 548 0 l 1,5,-1
 386 0 l 1,6,-1
 331 301 l 1,7,-1
 276 0 l 1,8,-1
 114 0 l 1,9,-1
 7 488 l 1,10,-1
 137 488 l 1,11,-1
 194 109 l 1,12,-1
 267 488 l 1,0,-1
EndSplineSet
EndChar

StartChar: x
Encoding: 120 120 24
Width: 437
Flags: HMW
HStem: 0 21G<4 143 4 4 291 291 291 430> 468 20G<13 159 159 159 275 421 421 421>
LayerCount: 2
Fore
SplineSet
217 160 m 1,0,-1
 143 0 l 1,1,-1
 4 0 l 1,2,-1
 140 260 l 1,3,-1
 13 488 l 1,4,-1
 159 488 l 1,5,-1
 217 342 l 1,6,-1
 275 488 l 1,7,-1
 421 488 l 1,8,-1
 294 260 l 1,9,-1
 430 0 l 1,10,-1
 291 0 l 1,11,-1
 217 160 l 1,0,-1
EndSplineSet
EndChar

StartChar: y
Encoding: 121 121 25
Width: 452
Flags: HMW
HStem: -169 96<142.5 253 207 253 253 258 207 282> -169 148<142.5 182 182 188 58 282> 22 96<129.5 253 169 253> 468 20G<45 179 179 179 272 406 406 406>
VStem: 45 134<154 488> 58 121 272 134<-53 -37 -37 46 46 46 138 488>
LayerCount: 2
Fore
SplineSet
272 488 m 1,0,-1
 406 488 l 1,1,-1
 406 -37 l 2,2,3
 406 -169 406 -169 282 -169 c 2,4,-1
 182 -169 l 2,5,6
 58 -169 58 -169 58 -37 c 2,7,-1
 58 -21 l 1,8,-1
 188 -21 l 1,9,-1
 188 -53 l 2,10,11
 188 -61 188 -61 193.5 -67 c 128,-1,12
 199 -73 199 -73 207 -73 c 2,13,-1
 253 -73 l 2,14,15
 261 -73 261 -73 266.5 -67 c 128,-1,16
 272 -61 272 -61 272 -53 c 2,17,-1
 272 46 l 1,18,19
 242 22 242 22 190 22 c 2,20,-1
 169 22 l 2,21,22
 45 22 45 22 45 154 c 2,23,-1
 45 488 l 1,24,-1
 179 488 l 1,25,-1
 179 138 l 2,26,27
 179 130 179 130 184.5 124 c 128,-1,28
 190 118 190 118 198 118 c 2,29,-1
 253 118 l 2,30,31
 261 118 261 118 266.5 124 c 128,-1,32
 272 130 272 130 272 138 c 2,33,-1
 272 488 l 1,0,-1
EndSplineSet
EndChar

StartChar: z
Encoding: 122 122 26
Width: 386
Flags: HMW
HStem: 0 99<169 361 169 361> 390 98<31 220 31 361>
LayerCount: 2
Fore
SplineSet
169 99 m 1,0,-1
 361 99 l 1,1,-1
 361 0 l 1,2,-1
 31 0 l 1,3,-1
 31 94 l 1,4,-1
 220 390 l 1,5,-1
 31 390 l 1,6,-1
 31 488 l 1,7,-1
 361 488 l 1,8,-1
 361 399 l 1,9,-1
 169 99 l 1,0,-1
EndSplineSet
EndChar

StartChar: A
Encoding: 65 65 27
Width: 485
Flags: HMW
HStem: 0 21G<50 190 50 50 291 431 291 291> 217 108<190 291 190 291> 562 95<204 209 209 272>
VStem: 50 140<0 217 325 525 525 542> 291 140<0 217 217 217 325 525 0 542 0 547.5>
LayerCount: 2
Fore
SplineSet
307 657 m 2,0,1
 431 657 431 657 431 525 c 2,2,-1
 431 0 l 1,3,-1
 291 0 l 1,4,-1
 291 217 l 1,5,-1
 190 217 l 1,6,-1
 190 0 l 1,7,-1
 50 0 l 1,8,-1
 50 525 l 2,9,10
 50 657 50 657 174 657 c 2,11,-1
 307 657 l 2,0,1
190 325 m 1,12,-1
 291 325 l 1,13,-1
 291 542 l 2,14,15
 291 550 291 550 285.5 556 c 128,-1,16
 280 562 280 562 272 562 c 2,17,-1
 209 562 l 2,18,19
 201 562 201 562 195.5 556 c 128,-1,20
 190 550 190 550 190 542 c 2,21,-1
 190 325 l 1,12,-1
EndSplineSet
EndChar

StartChar: B
Encoding: 66 66 28
Width: 477
Flags: HMW
HStem: 0 96<190 272 272 277 190 307> 281 98<190 264 264 269 190 272 190 264> 552 95<190 264 190 190>
VStem: 50 140<96 281 379 552> 283 140<427.5 456 456 515 427.5 532 427.5 537.5>
LayerCount: 2
Fore
SplineSet
366 354 m 1,0,1
 431 331 431 331 431 248 c 2,2,-1
 431 132 l 2,3,4
 431 0 431 0 307 0 c 2,5,-1
 50 0 l 1,6,-1
 50 647 l 1,7,-1
 299 647 l 2,8,9
 423 647 423 647 423 515 c 2,10,-1
 423 456 l 2,11,12
 423 376 423 376 366 354 c 1,0,1
264 552 m 2,13,-1
 190 552 l 1,14,-1
 190 379 l 1,15,-1
 264 379 l 2,16,17
 272 379 272 379 277.5 385 c 128,-1,18
 283 391 283 391 283 399 c 2,19,-1
 283 532 l 2,20,21
 283 540 283 540 277.5 546 c 128,-1,22
 272 552 272 552 264 552 c 2,13,-1
291 116 m 2,23,-1
 291 261 l 2,24,25
 291 269 291 269 285.5 275 c 128,-1,26
 280 281 280 281 272 281 c 2,27,-1
 190 281 l 1,28,-1
 190 96 l 1,29,-1
 272 96 l 2,30,31
 280 96 280 96 285.5 102 c 128,-1,32
 291 108 291 108 291 116 c 2,23,-1
EndSplineSet
EndChar

StartChar: C
Encoding: 67 67 29
Width: 458
Flags: HMW
HStem: -10 96<134.5 272 209 272 272 277 209 300> -10 216<134.5 424 291 300> 464 193<291 300 300 339.5 174 424 291 291> 562 95<204 209 209 272>
VStem: 50 140<122 525 525 542> 291 133<106 122 122 206 76 206 464 525>
LayerCount: 2
Fore
SplineSet
291 106 m 2,0,-1
 291 206 l 1,1,-1
 424 206 l 1,2,-1
 424 122 l 2,3,4
 424 -10 424 -10 300 -10 c 2,5,-1
 174 -10 l 2,6,7
 50 -10 50 -10 50 122 c 2,8,-1
 50 525 l 2,9,10
 50 657 50 657 174 657 c 2,11,-1
 300 657 l 2,12,13
 424 657 424 657 424 525 c 2,14,-1
 424 464 l 1,15,-1
 291 464 l 1,16,-1
 291 542 l 2,17,18
 291 550 291 550 285.5 556 c 128,-1,19
 280 562 280 562 272 562 c 2,20,-1
 209 562 l 2,21,22
 201 562 201 562 195.5 556 c 128,-1,23
 190 550 190 550 190 542 c 2,24,-1
 190 106 l 2,25,26
 190 98 190 98 195.5 92 c 128,-1,27
 201 86 201 86 209 86 c 2,28,-1
 272 86 l 2,29,30
 280 86 280 86 285.5 92 c 128,-1,31
 291 98 291 98 291 106 c 2,0,-1
EndSplineSet
EndChar

StartChar: D
Encoding: 68 68 30
Width: 485
Flags: HMW
HStem: 0 96<190 272 272 277 190 307> 552 95<190 272 190 190>
VStem: 50 140<96 552 96 647 96 647> 291 140<116 132 132 515>
LayerCount: 2
Fore
SplineSet
307 647 m 2,0,1
 431 647 431 647 431 515 c 2,2,-1
 431 132 l 2,3,4
 431 0 431 0 307 0 c 2,5,-1
 50 0 l 1,6,-1
 50 647 l 1,7,-1
 307 647 l 2,0,1
291 116 m 2,8,-1
 291 532 l 2,9,10
 291 540 291 540 285.5 546 c 128,-1,11
 280 552 280 552 272 552 c 2,12,-1
 190 552 l 1,13,-1
 190 96 l 1,14,-1
 272 96 l 2,15,16
 280 96 280 96 285.5 102 c 128,-1,17
 291 108 291 108 291 116 c 2,8,-1
EndSplineSet
EndChar

StartChar: E
Encoding: 69 69 31
Width: 376
Flags: HMW
HStem: 0 116<190 345 190 345> 271 110<190 335 190 335> 533 114<190 345 190 190>
VStem: 50 140<116 116 116 271 381 533>
LayerCount: 2
Fore
SplineSet
190 116 m 1,0,-1
 345 116 l 1,1,-1
 345 0 l 1,2,-1
 50 0 l 1,3,-1
 50 647 l 1,4,-1
 345 647 l 1,5,-1
 345 533 l 1,6,-1
 190 533 l 1,7,-1
 190 381 l 1,8,-1
 335 381 l 1,9,-1
 335 271 l 1,10,-1
 190 271 l 1,11,-1
 190 116 l 1,0,-1
EndSplineSet
EndChar

StartChar: F
Encoding: 70 70 32
Width: 374
Flags: HMW
HStem: 0 21G<50 190 50 50> 254 117<190 332 190 332> 526 121<190 342 190 190>
VStem: 50 140<0 254 0 371 371 526>
LayerCount: 2
Fore
SplineSet
190 254 m 1,0,-1
 190 0 l 1,1,-1
 50 0 l 1,2,-1
 50 647 l 1,3,-1
 342 647 l 1,4,-1
 342 526 l 1,5,-1
 190 526 l 1,6,-1
 190 371 l 1,7,-1
 332 371 l 1,8,-1
 332 254 l 1,9,-1
 190 254 l 1,0,-1
EndSplineSet
EndChar

StartChar: G
Encoding: 71 71 33
Width: 451
Flags: HMW
HStem: -10 96<134.5 272 209 272 272 277 209 300> 464 193<291 300 300 339.5 174 424 291 291> 562 95<204 209 209 272>
VStem: 50 140<122 525 525 542> 239 185<257 360> 291 133<106 122 122 257 257 257 464 525>
LayerCount: 2
Fore
SplineSet
239 257 m 1,0,-1
 239 360 l 1,1,-1
 424 360 l 1,2,-1
 424 122 l 2,3,4
 424 -10 424 -10 300 -10 c 2,5,-1
 174 -10 l 2,6,7
 50 -10 50 -10 50 122 c 2,8,-1
 50 525 l 2,9,10
 50 657 50 657 174 657 c 2,11,-1
 300 657 l 2,12,13
 424 657 424 657 424 525 c 2,14,-1
 424 464 l 1,15,-1
 291 464 l 1,16,-1
 291 542 l 2,17,18
 291 550 291 550 285.5 556 c 128,-1,19
 280 562 280 562 272 562 c 2,20,-1
 209 562 l 2,21,22
 201 562 201 562 195.5 556 c 128,-1,23
 190 550 190 550 190 542 c 2,24,-1
 190 106 l 2,25,26
 190 98 190 98 195.5 92 c 128,-1,27
 201 86 201 86 209 86 c 2,28,-1
 272 86 l 2,29,30
 280 86 280 86 285.5 92 c 128,-1,31
 291 98 291 98 291 106 c 2,32,-1
 291 257 l 1,33,-1
 239 257 l 1,0,-1
EndSplineSet
EndChar

StartChar: H
Encoding: 72 72 34
Width: 491
Flags: HMW
HStem: 0 21G<50 190 50 50 301 301 301 441> 254 122<190 301 190 301> 627 20G<50 190 190 190 301 441 441 441>
VStem: 50 140<0 254 0 376 376 647> 301 140<0 254 254 254 376 647 0 647>
LayerCount: 2
Fore
SplineSet
190 254 m 1,0,-1
 190 0 l 1,1,-1
 50 0 l 1,2,-1
 50 647 l 1,3,-1
 190 647 l 1,4,-1
 190 376 l 1,5,-1
 301 376 l 1,6,-1
 301 647 l 1,7,-1
 441 647 l 1,8,-1
 441 0 l 1,9,-1
 301 0 l 1,10,-1
 301 254 l 1,11,-1
 190 254 l 1,0,-1
EndSplineSet
EndChar

StartChar: I
Encoding: 73 73 35
Width: 244
Flags: HMW
HStem: 0 21G<50 190 50 50> 627 20G<50 190 190 190>
VStem: 50 140<0 647 0 647>
LayerCount: 2
Fore
SplineSet
190 647 m 1,0,-1
 190 0 l 1,1,-1
 50 0 l 1,2,-1
 50 647 l 1,3,-1
 190 647 l 1,0,-1
EndSplineSet
EndChar

StartChar: J
Encoding: 74 74 36
Width: 408
Flags: HMW
HStem: -10 96<95.5 216 163 216 216 221 163 251> -10 213<95.5 135 135 144 11 251> 627 20G<235 375 375 375>
VStem: 11 133<122 203 100.5 203> 235 140<106 122 122 647>
LayerCount: 2
Fore
SplineSet
235 647 m 1,0,-1
 375 647 l 1,1,-1
 375 122 l 2,2,3
 375 -10 375 -10 251 -10 c 2,4,-1
 135 -10 l 2,5,6
 11 -10 11 -10 11 122 c 2,7,-1
 11 203 l 1,8,-1
 144 203 l 1,9,-1
 144 106 l 2,10,11
 144 98 144 98 149.5 92 c 128,-1,12
 155 86 155 86 163 86 c 2,13,-1
 216 86 l 2,14,15
 224 86 224 86 229.5 92 c 128,-1,16
 235 98 235 98 235 106 c 2,17,-1
 235 647 l 1,0,-1
EndSplineSet
EndChar

StartChar: K
Encoding: 75 75 37
Width: 472
Flags: HMW
HStem: 0 21G<50 190 50 50 331 474 331 331> 627 20G<50 190 190 190 325 453 453 453>
VStem: 50 140<0 256 0 376 376 647>
LayerCount: 2
Fore
SplineSet
453 647 m 1,0,-1
 343 350 l 1,1,-1
 474 0 l 1,2,-1
 331 0 l 1,3,-1
 235 256 l 1,4,-1
 190 256 l 1,5,-1
 190 0 l 1,6,-1
 50 0 l 1,7,-1
 50 647 l 1,8,-1
 190 647 l 1,9,-1
 190 376 l 1,10,-1
 224 376 l 1,11,-1
 325 647 l 1,12,-1
 453 647 l 1,0,-1
EndSplineSet
EndChar

StartChar: L
Encoding: 76 76 38
Width: 359
Flags: HMW
HStem: 0 118<190 343 190 343> 627 20G<50 190 190 190>
VStem: 50 140<118 118 118 647>
LayerCount: 2
Fore
SplineSet
190 118 m 1,0,-1
 343 118 l 1,1,-1
 343 0 l 1,2,-1
 50 0 l 1,3,-1
 50 647 l 1,4,-1
 190 647 l 1,5,-1
 190 118 l 1,0,-1
EndSplineSet
EndChar

StartChar: M
Encoding: 77 77 39
Width: 699
Flags: HMW
HStem: 0 21G<49 189 49 49 281 281 281 421 513 513 513 653> 557 100<203 208 208 247 247 262 455 494>
VStem: 49 140<0 525 525 537> 281 140<0 537 0 542.5> 513 140<0 525 0 537 0 542.5>
CounterMasks: 1 38
LayerCount: 2
Fore
SplineSet
189 0 m 1,0,-1
 49 0 l 1,1,-1
 49 525 l 2,2,3
 49 657 49 657 173 657 c 2,4,-1
 247 657 l 2,5,6
 320 657 320 657 351 609 c 1,7,8
 380 657 380 657 455 657 c 2,9,-1
 529 657 l 2,10,11
 653 657 653 657 653 525 c 2,12,-1
 653 0 l 1,13,-1
 513 0 l 1,14,-1
 513 537 l 2,15,16
 513 545 513 545 507.5 551 c 128,-1,17
 502 557 502 557 494 557 c 2,18,-1
 440 557 l 2,19,20
 432 557 432 557 426.5 551 c 128,-1,21
 421 545 421 545 421 537 c 2,22,-1
 421 0 l 1,23,-1
 281 0 l 1,24,-1
 281 537 l 2,25,26
 281 545 281 545 275.5 551 c 128,-1,27
 270 557 270 557 262 557 c 2,28,-1
 208 557 l 2,29,30
 200 557 200 557 194.5 551 c 128,-1,31
 189 545 189 545 189 537 c 2,32,-1
 189 0 l 1,0,-1
EndSplineSet
EndChar

StartChar: N
Encoding: 78 78 40
Width: 465
Flags: HMW
HStem: 0 21G<49 189 49 49 281 421 281 281> 557 100<203 208 208 262>
VStem: 49 140<0 525 525 537 0 571> 281 140<0 525>
LayerCount: 2
Fore
SplineSet
421 0 m 1,0,-1
 281 0 l 1,1,-1
 281 537 l 2,2,3
 281 545 281 545 275.5 551 c 128,-1,4
 270 557 270 557 262 557 c 2,5,-1
 208 557 l 2,6,7
 200 557 200 557 194.5 551 c 128,-1,8
 189 545 189 545 189 537 c 2,9,-1
 189 0 l 1,10,-1
 49 0 l 1,11,-1
 49 525 l 2,12,13
 49 657 49 657 173 657 c 2,14,-1
 297 657 l 2,15,16
 421 657 421 657 421 525 c 2,17,-1
 421 0 l 1,0,-1
EndSplineSet
EndChar

StartChar: O
Encoding: 79 79 41
Width: 484
Flags: HMW
HStem: -10 96<134.5 272 209 272 272 277 209 307> 562 95<204 209 209 272>
VStem: 50 140<122 525 525 542> 291 140<106 122 122 525>
LayerCount: 2
Fore
SplineSet
431 525 m 2,0,-1
 431 122 l 2,1,2
 431 -10 431 -10 307 -10 c 2,3,-1
 174 -10 l 2,4,5
 50 -10 50 -10 50 122 c 2,6,-1
 50 525 l 2,7,8
 50 657 50 657 174 657 c 2,9,-1
 307 657 l 2,10,11
 431 657 431 657 431 525 c 2,0,-1
291 106 m 2,12,-1
 291 542 l 2,13,14
 291 550 291 550 285.5 556 c 128,-1,15
 280 562 280 562 272 562 c 2,16,-1
 209 562 l 2,17,18
 201 562 201 562 195.5 556 c 128,-1,19
 190 550 190 550 190 542 c 2,20,-1
 190 106 l 2,21,22
 190 98 190 98 195.5 92 c 128,-1,23
 201 86 201 86 209 86 c 2,24,-1
 272 86 l 2,25,26
 280 86 280 86 285.5 92 c 128,-1,27
 291 98 291 98 291 106 c 2,12,-1
EndSplineSet
EndChar

StartChar: P
Encoding: 80 80 42
Width: 446
Flags: HMW
HStem: 0 21G<49 189 49 49> 254 96<189 267 267 272 189 302 189 267> 551 96<189 267 189 189>
VStem: 49 140<0 254 0 350 350 551> 286 140<370 386 386 515 340 531>
LayerCount: 2
Fore
SplineSet
302 647 m 2,0,1
 426 647 426 647 426 515 c 2,2,-1
 426 386 l 2,3,4
 426 254 426 254 302 254 c 2,5,-1
 189 254 l 1,6,-1
 189 0 l 1,7,-1
 49 0 l 1,8,-1
 49 647 l 1,9,-1
 302 647 l 2,0,1
286 370 m 2,10,-1
 286 531 l 2,11,12
 286 539 286 539 280.5 545 c 128,-1,13
 275 551 275 551 267 551 c 2,14,-1
 189 551 l 1,15,-1
 189 350 l 1,16,-1
 267 350 l 2,17,18
 275 350 275 350 280.5 356 c 128,-1,19
 286 362 286 362 286 370 c 2,10,-1
EndSplineSet
EndChar

StartChar: Q
Encoding: 81 81 43
Width: 475
Flags: HMW
HStem: -173 21G<257.5 293 293 352> -10 21G<134.5 174 174 189 305 307 305 305> 562 95<204 209 209 272>
VStem: 50 140<122 525 525 542> 189 116<-64.5 -60 -60 -10 -64.5 -10> 189 163<-77 -75 -173 -10 -173 -10> 291 140<106 122 122 525>
LayerCount: 2
Fore
SplineSet
307 657 m 2,0,1
 431 657 431 657 431 525 c 2,2,-1
 431 122 l 2,3,4
 431 -10 431 -10 307 -10 c 2,5,-1
 305 -10 l 1,6,-1
 305 -60 l 2,7,8
 305 -75 305 -75 320 -75 c 2,9,-1
 352 -75 l 1,10,-1
 352 -173 l 1,11,-1
 293 -173 l 2,12,13
 244 -173 244 -173 216.5 -143.5 c 128,-1,14
 189 -114 189 -114 189 -77 c 2,15,-1
 189 -10 l 1,16,-1
 174 -10 l 2,17,18
 50 -10 50 -10 50 122 c 2,19,-1
 50 525 l 2,20,21
 50 657 50 657 174 657 c 2,22,-1
 307 657 l 2,0,1
190 542 m 2,23,-1
 190 106 l 2,24,25
 190 98 190 98 195.5 92 c 128,-1,26
 201 86 201 86 209 86 c 2,27,-1
 272 86 l 2,28,29
 280 86 280 86 285.5 92 c 128,-1,30
 291 98 291 98 291 106 c 2,31,-1
 291 542 l 2,32,33
 291 550 291 550 285.5 556 c 128,-1,34
 280 562 280 562 272 562 c 2,35,-1
 209 562 l 2,36,37
 201 562 201 562 195.5 556 c 128,-1,38
 190 550 190 550 190 542 c 2,23,-1
EndSplineSet
EndChar

StartChar: R
Encoding: 82 82 44
Width: 463
Flags: HMW
HStem: 0 21G<50 190 50 50 276 276 276 416> 265 98<190 264 190 257> 552 95<190 190 190 264>
VStem: 50 140<0 265 0 363 363 552> 276 140<0 245 245 250.5>
LayerCount: 2
Fore
SplineSet
190 265 m 1,0,-1
 190 0 l 1,1,-1
 50 0 l 1,2,-1
 50 647 l 1,3,-1
 299 647 l 2,4,5
 423 647 423 647 423 515 c 2,6,-1
 423 440 l 2,7,8
 423 360 423 360 366 338 c 1,9,10
 416 320 416 320 416 256 c 2,11,-1
 416 0 l 1,12,-1
 276 0 l 1,13,-1
 276 245 l 2,14,15
 276 265 276 265 257 265 c 2,16,-1
 190 265 l 1,0,-1
190 552 m 1,17,-1
 190 363 l 1,18,-1
 264 363 l 2,19,20
 272 363 272 363 277.5 369 c 128,-1,21
 283 375 283 375 283 383 c 2,22,-1
 283 532 l 2,23,24
 283 540 283 540 277.5 546 c 128,-1,25
 272 552 272 552 264 552 c 2,26,-1
 190 552 l 1,17,-1
EndSplineSet
EndChar

StartChar: S
Encoding: 83 83 45
Width: 458
Flags: HMW
HStem: -10 107<134.5 264 202 264 264 269 202 292> -10 199<134.5 174 174 183 50 292> 264 129<134.5 292 202 264> 477 180<276 285 285 324.5 174 409 276 276> 548 109<197 202 202 257>
VStem: 50 133<122 189 111.5 189 407.5 413 413 525 525 528> 283 126
LayerCount: 2
Fore
SplineSet
409 477 m 1,0,-1
 276 477 l 1,1,-1
 276 528 l 2,2,3
 276 536 276 536 270.5 542 c 128,-1,4
 265 548 265 548 257 548 c 2,5,-1
 202 548 l 2,6,7
 194 548 194 548 188.5 542 c 128,-1,8
 183 536 183 536 183 528 c 2,9,-1
 183 413 l 2,10,11
 183 405 183 405 188.5 399 c 128,-1,12
 194 393 194 393 202 393 c 2,13,-1
 292 393 l 1,14,15
 416 391 416 391 416 261 c 2,16,-1
 416 122 l 2,17,18
 416 -10 416 -10 292 -10 c 2,19,-1
 174 -10 l 2,20,21
 50 -10 50 -10 50 122 c 2,22,-1
 50 189 l 1,23,-1
 183 189 l 1,24,-1
 183 117 l 2,25,26
 183 109 183 109 188.5 103 c 128,-1,27
 194 97 194 97 202 97 c 2,28,-1
 264 97 l 2,29,30
 272 97 272 97 277.5 103 c 128,-1,31
 283 109 283 109 283 117 c 2,32,-1
 283 244 l 2,33,34
 283 252 283 252 277.5 258 c 128,-1,35
 272 264 272 264 264 264 c 2,36,-1
 174 264 l 2,37,38
 50 264 50 264 50 396 c 2,39,-1
 50 525 l 2,40,41
 50 657 50 657 174 657 c 2,42,-1
 285 657 l 2,43,44
 409 657 409 657 409 525 c 2,45,-1
 409 477 l 1,0,-1
EndSplineSet
EndChar

StartChar: T
Encoding: 84 84 46
Width: 377
Flags: HMW
HStem: 0 21G<118 258 118 118> 528 119<13 363 13 118 258 258 258 363>
VStem: 118 140<0 528 0 528>
LayerCount: 2
Fore
SplineSet
13 528 m 1,0,-1
 13 647 l 1,1,-1
 363 647 l 1,2,-1
 363 528 l 1,3,-1
 258 528 l 1,4,-1
 258 0 l 1,5,-1
 118 0 l 1,6,-1
 118 528 l 1,7,-1
 13 528 l 1,0,-1
EndSplineSet
EndChar

StartChar: U
Encoding: 85 85 47
Width: 467
Flags: HMW
HStem: -10 100<133.5 262 208 262 262 267 208 297> 627 20G<49 189 189 189 281 421 421 421>
VStem: 49 140<122 647> 281 140<110 122 122 647>
LayerCount: 2
Fore
SplineSet
281 647 m 1,0,-1
 421 647 l 1,1,-1
 421 122 l 2,2,3
 421 -10 421 -10 297 -10 c 2,4,-1
 173 -10 l 2,5,6
 49 -10 49 -10 49 122 c 2,7,-1
 49 647 l 1,8,-1
 189 647 l 1,9,-1
 189 110 l 2,10,11
 189 102 189 102 194.5 96 c 128,-1,12
 200 90 200 90 208 90 c 2,13,-1
 262 90 l 2,14,15
 270 90 270 90 275.5 96 c 128,-1,16
 281 102 281 102 281 110 c 2,17,-1
 281 647 l 1,0,-1
EndSplineSet
EndChar

StartChar: V
Encoding: 86 86 48
Width: 465
Flags: HMW
HStem: 0 21G<151 312 151 151> 627 20G<17 153 153 153 311 446 446 446>
LayerCount: 2
Fore
SplineSet
311 647 m 1,0,-1
 446 647 l 1,1,-1
 312 0 l 1,2,-1
 151 0 l 1,3,-1
 17 647 l 1,4,-1
 153 647 l 1,5,-1
 232 175 l 1,6,-1
 311 647 l 1,0,-1
EndSplineSet
EndChar

StartChar: W
Encoding: 87 87 49
Width: 707
Flags: HMW
HStem: 0 21G<127 286 127 127 416 575 416 416> 627 20G<22 158 158 158 289 413 413 413 544 680 680 680>
LayerCount: 2
Fore
SplineSet
289 647 m 1,0,-1
 413 647 l 1,1,-1
 488 160 l 1,2,-1
 544 647 l 1,3,-1
 680 647 l 1,4,-1
 575 0 l 1,5,-1
 416 0 l 1,6,-1
 351 397 l 1,7,-1
 286 0 l 1,8,-1
 127 0 l 1,9,-1
 22 647 l 1,10,-1
 158 647 l 1,11,-1
 214 160 l 1,12,-1
 289 647 l 1,0,-1
EndSplineSet
EndChar

StartChar: X
Encoding: 88 88 50
Width: 451
Flags: HMW
HStem: 0 21G<9 156 9 9 292 438 292 292> 627 20G<24 160 160 160 288 425 425 425>
LayerCount: 2
Fore
SplineSet
425 647 m 1,0,-1
 322 324 l 1,1,-1
 438 0 l 1,2,-1
 292 0 l 1,3,-1
 224 226 l 1,4,-1
 156 0 l 1,5,-1
 9 0 l 1,6,-1
 125 324 l 1,7,-1
 24 647 l 1,8,-1
 160 647 l 1,9,-1
 224 438 l 1,10,-1
 288 647 l 1,11,-1
 425 647 l 1,0,-1
EndSplineSet
EndChar

StartChar: Y
Encoding: 89 89 51
Width: 435
Flags: HMW
HStem: 0 21G<146 286 146 146> 627 20G<7 139 139 139 293 425 425 425>
VStem: 146 140<0 236 0 236>
LayerCount: 2
Fore
SplineSet
425 647 m 1,0,-1
 286 236 l 1,1,-1
 286 0 l 1,2,-1
 146 0 l 1,3,-1
 146 236 l 1,4,-1
 7 647 l 1,5,-1
 139 647 l 1,6,-1
 216 377 l 1,7,-1
 293 647 l 1,8,-1
 425 647 l 1,0,-1
EndSplineSet
EndChar

StartChar: Z
Encoding: 90 90 52
Width: 397
Flags: HMW
HStem: 0 104<178 371 178 371> 542 105<38 226 38 371>
LayerCount: 2
Fore
SplineSet
371 556 m 1,0,-1
 178 104 l 1,1,-1
 371 104 l 1,2,-1
 371 0 l 1,3,-1
 32 0 l 1,4,-1
 32 86 l 1,5,-1
 226 542 l 1,6,-1
 38 542 l 1,7,-1
 38 647 l 1,8,-1
 371 647 l 1,9,-1
 371 556 l 1,0,-1
EndSplineSet
EndChar

StartChar: period
Encoding: 46 46 53
Width: 254
Flags: HMW
HStem: -10 144<110.5 150.5>
VStem: 59 144<41.5 81.5>
LayerCount: 2
Fore
SplineSet
80 113 m 128,-1,1
 101 134 101 134 131 134 c 128,-1,2
 161 134 161 134 182 113 c 128,-1,3
 203 92 203 92 203 62 c 128,-1,4
 203 32 203 32 182 11 c 128,-1,5
 161 -10 161 -10 131 -10 c 128,-1,6
 101 -10 101 -10 80 11 c 128,-1,7
 59 32 59 32 59 62 c 128,-1,0
 59 92 59 92 80 113 c 128,-1,1
EndSplineSet
EndChar

StartChar: hyphen
Encoding: 45 45 54
Width: 451
Flags: HMW
HStem: 239 107<56 397 56 397>
LayerCount: 2
Fore
SplineSet
397 346 m 1,0,-1
 397 239 l 1,1,-1
 56 239 l 1,2,-1
 56 346 l 1,3,-1
 397 346 l 1,0,-1
EndSplineSet
EndChar

StartChar: comma
Encoding: 44 44 55
Width: 216
Flags: HMW
HStem: -145 204<85 134 42 204>
LayerCount: 2
Fore
SplineSet
204 59 m 1,0,-1
 134 -145 l 1,1,-1
 42 -145 l 1,2,-1
 85 59 l 1,3,-1
 204 59 l 1,0,-1
EndSplineSet
EndChar

StartChar: semicolon
Encoding: 59 59 56
Width: 254
Flags: HMW
HStem: -145 204<79 128 36 198> 335 144<110.5 150.5>
VStem: 59 144<386.5 426.5>
LayerCount: 2
Fore
SplineSet
80 458 m 128,-1,1
 101 479 101 479 131 479 c 128,-1,2
 161 479 161 479 182 458 c 128,-1,3
 203 437 203 437 203 407 c 128,-1,4
 203 377 203 377 182 356 c 128,-1,5
 161 335 161 335 131 335 c 128,-1,6
 101 335 101 335 80 356 c 128,-1,7
 59 377 59 377 59 407 c 128,-1,0
 59 437 59 437 80 458 c 128,-1,1
198 59 m 1,8,-1
 128 -145 l 1,9,-1
 36 -145 l 1,10,-1
 79 59 l 1,11,-1
 198 59 l 1,8,-1
EndSplineSet
EndChar

StartChar: colon
Encoding: 58 58 57
Width: 254
Flags: HMW
HStem: -10 144<110.5 150.5> 335 144<110.5 150.5>
VStem: 59 144<41.5 81.5 386.5 426.5>
LayerCount: 2
Fore
SplineSet
80 113 m 128,-1,1
 101 134 101 134 131 134 c 128,-1,2
 161 134 161 134 182 113 c 128,-1,3
 203 92 203 92 203 62 c 128,-1,4
 203 32 203 32 182 11 c 128,-1,5
 161 -10 161 -10 131 -10 c 128,-1,6
 101 -10 101 -10 80 11 c 128,-1,7
 59 32 59 32 59 62 c 128,-1,0
 59 92 59 92 80 113 c 128,-1,1
80 458 m 128,-1,9
 101 479 101 479 131 479 c 128,-1,10
 161 479 161 479 182 458 c 128,-1,11
 203 437 203 437 203 407 c 128,-1,12
 203 377 203 377 182 356 c 128,-1,13
 161 335 161 335 131 335 c 128,-1,14
 101 335 101 335 80 356 c 128,-1,15
 59 377 59 377 59 407 c 128,-1,8
 59 437 59 437 80 458 c 128,-1,9
EndSplineSet
EndChar

StartChar: dieresis
Encoding: 168 168 58
Width: 373
Flags: HMW
HStem: 480 114<90.5 122 252.5 284>
VStem: 49 114<521 552.5> 211 114<521 552.5>
LayerCount: 2
Fore
SplineSet
146.5 577 m 128,-1,1
 163 560 163 560 163 536.5 c 128,-1,2
 163 513 163 513 146.5 496.5 c 128,-1,3
 130 480 130 480 106.5 480 c 128,-1,4
 83 480 83 480 66 496.5 c 128,-1,5
 49 513 49 513 49 536.5 c 128,-1,6
 49 560 49 560 66 577 c 128,-1,7
 83 594 83 594 106.5 594 c 128,-1,0
 130 594 130 594 146.5 577 c 128,-1,1
308.5 577 m 128,-1,9
 325 560 325 560 325 536.5 c 128,-1,10
 325 513 325 513 308.5 496.5 c 128,-1,11
 292 480 292 480 268.5 480 c 128,-1,12
 245 480 245 480 228 496.5 c 128,-1,13
 211 513 211 513 211 536.5 c 128,-1,14
 211 560 211 560 228 577 c 128,-1,15
 245 594 245 594 268.5 594 c 128,-1,8
 292 594 292 594 308.5 577 c 128,-1,9
EndSplineSet
EndChar

StartChar: periodcentered
Encoding: 183 183 59
Width: 280
Flags: HMW
HStem: 234 144<110.5 150.5>
VStem: 59 144<285.5 325.5>
LayerCount: 2
Fore
SplineSet
80 357 m 128,-1,1
 101 378 101 378 131 378 c 128,-1,2
 161 378 161 378 182 357 c 128,-1,3
 203 336 203 336 203 306 c 128,-1,4
 203 276 203 276 182 255 c 128,-1,5
 161 234 161 234 131 234 c 128,-1,6
 101 234 101 234 80 255 c 128,-1,7
 59 276 59 276 59 306 c 128,-1,0
 59 336 59 336 80 357 c 128,-1,1
EndSplineSet
EndChar

StartChar: at
Encoding: 64 64 60
Width: 716
Flags: HMW
HStem: -125 62<137 604 179 604 179 604> -19 66<283 392 329 353> 324 56<329 510> 447 62<174 179 179 547>
VStem: 65 80<-8 392 392 412> 211 84<98 273 273 289> 426 84<82 289 289 298.5> 581 77<67 98 98 392>
LayerCount: 2
Fore
SplineSet
549 509 m 2,0,1
 658 509 658 509 658 392 c 2,2,-1
 658 98 l 2,3,4
 658 -19 658 -19 549 -19 c 2,5,-1
 544 -19 l 2,6,7
 473 -19 473 -19 449 38 c 1,8,9
 427 -19 427 -19 353 -19 c 2,10,-1
 320 -19 l 2,11,12
 211 -19 211 -19 211 98 c 2,13,-1
 211 273 l 2,14,15
 211 390 211 390 320 390 c 2,16,-1
 342 390 l 2,17,18
 404 390 404 390 426.5 367.5 c 0,19,20
 438 356 438 356 447 337 c 1,21,-1
 447 380 l 1,22,-1
 510 380 l 1,23,-1
 510 67 l 2,24,25
 510 53 510 53 520 42.5 c 128,-1,26
 530 32 530 32 544 32 c 2,27,-1
 547 32 l 2,28,29
 561 32 561 32 571 42.5 c 128,-1,30
 581 53 581 53 581 67 c 2,31,-1
 581 412 l 2,32,33
 581 426 581 426 571 436.5 c 128,-1,34
 561 447 561 447 547 447 c 2,35,-1
 179 447 l 2,36,37
 165 447 165 447 155 436.5 c 128,-1,38
 145 426 145 426 145 412 c 2,39,-1
 145 -28 l 2,40,41
 145 -42 145 -42 155 -52.5 c 128,-1,42
 165 -63 165 -63 179 -63 c 2,43,-1
 604 -63 l 1,44,-1
 604 -125 l 1,45,-1
 174 -125 l 2,46,47
 65 -125 65 -125 65 -8 c 2,48,-1
 65 392 l 2,49,50
 65 509 65 509 174 509 c 2,51,-1
 549 509 l 2,0,1
426 82 m 2,52,-1
 426 289 l 2,53,54
 426 303 426 303 416 313.5 c 128,-1,55
 406 324 406 324 392 324 c 2,56,-1
 329 324 l 2,57,58
 315 324 315 324 305 313.5 c 128,-1,59
 295 303 295 303 295 289 c 2,60,-1
 295 82 l 2,61,62
 295 68 295 68 305 57.5 c 128,-1,63
 315 47 315 47 329 47 c 2,64,-1
 392 47 l 2,65,66
 406 47 406 47 416 57.5 c 128,-1,67
 426 68 426 68 426 82 c 2,52,-1
EndSplineSet
EndChar

StartChar: exclam
Encoding: 33 33 61
Width: 258
Flags: HMW
HStem: -10 144<110.5 150.5> 627 20G<63 197 197 197>
VStem: 59 144<41.5 81.5> 71 117
LayerCount: 2
Fore
SplineSet
197 647 m 1,0,-1
 180 190 l 1,1,-1
 80 190 l 1,2,-1
 63 647 l 1,3,-1
 197 647 l 1,0,-1
80 113 m 128,-1,5
 101 134 101 134 131 134 c 128,-1,6
 161 134 161 134 182 113 c 128,-1,7
 203 92 203 92 203 62 c 128,-1,8
 203 32 203 32 182 11 c 128,-1,9
 161 -10 161 -10 131 -10 c 128,-1,10
 101 -10 101 -10 80 11 c 128,-1,11
 59 32 59 32 59 62 c 128,-1,4
 59 92 59 92 80 113 c 128,-1,5
EndSplineSet
EndChar

StartChar: exclamdown
Encoding: 161 161 62
Width: 254
Flags: HMW
HStem: -157 21G<63 197 63 63> 356 144<110.5 150.5>
VStem: 59 144<408.5 448.5> 71 117
LayerCount: 2
Fore
SplineSet
180 300 m 1,0,-1
 197 -157 l 1,1,-1
 63 -157 l 1,2,-1
 80 300 l 1,3,-1
 180 300 l 1,0,-1
182 377 m 128,-1,5
 161 356 161 356 131 356 c 128,-1,6
 101 356 101 356 80 377 c 128,-1,7
 59 398 59 398 59 428 c 128,-1,8
 59 458 59 458 80 479 c 128,-1,9
 101 500 101 500 131 500 c 128,-1,10
 161 500 161 500 182 479 c 128,-1,11
 203 458 203 458 203 428 c 128,-1,4
 203 398 203 398 182 377 c 128,-1,5
EndSplineSet
EndChar

StartChar: question
Encoding: 63 63 63
Width: 423
Flags: HMW
HStem: -10 144<161.5 201.5> 190 189<121 250 121 250> 265 114<252 255 245 257 245 266> 467 180<31 266 31 266> 538 109<169 174 174 250>
VStem: 31 124<467 515 515 518 467 561> 121 117<190 245 190 247 190 293> 121 133<41.5 247> 269 121<399 515 351 518>
LayerCount: 2
Fore
SplineSet
257 265 m 2,0,1
 249 265 249 265 243.5 259 c 128,-1,2
 238 253 238 253 238 245 c 2,3,-1
 238 190 l 1,4,-1
 121 190 l 1,5,-1
 121 247 l 2,6,7
 121 379 121 379 245 379 c 2,8,-1
 250 379 l 2,9,10
 258 379 258 379 263.5 385 c 128,-1,11
 269 391 269 391 269 399 c 2,12,-1
 269 518 l 2,13,14
 269 526 269 526 263.5 532 c 128,-1,15
 258 538 258 538 250 538 c 2,16,-1
 174 538 l 2,17,18
 166 538 166 538 160.5 532 c 128,-1,19
 155 526 155 526 155 518 c 2,20,-1
 155 467 l 1,21,-1
 31 467 l 1,22,-1
 31 515 l 2,23,24
 31 647 31 647 155 647 c 2,25,-1
 266 647 l 2,26,27
 390 647 390 647 390 515 c 2,28,-1
 390 397 l 2,29,30
 390 265 390 265 266 265 c 2,31,-1
 257 265 l 2,0,1
131 113 m 128,-1,33
 152 134 152 134 182 134 c 128,-1,34
 212 134 212 134 233 113 c 128,-1,35
 254 92 254 92 254 62 c 128,-1,36
 254 32 254 32 233 11 c 128,-1,37
 212 -10 212 -10 182 -10 c 128,-1,38
 152 -10 152 -10 131 11 c 128,-1,39
 110 32 110 32 110 62 c 128,-1,32
 110 92 110 92 131 113 c 128,-1,33
EndSplineSet
EndChar

StartChar: questiondown
Encoding: 191 191 64
Width: 423
Flags: HMW
HStem: -157 109<115.5 247 171 247 247 252 171 266> -157 180<115.5 390 155 390> 111 114<166 169 155 171 155 176> 111 189<166 300 171 300> 356 144<219.5 259.5>
VStem: 31 121<-25 91 -33.5 93> 167 133 183 117<245 300 197 300> 266 124<-157 -25 -28 -25 -25 23 -71 23>
LayerCount: 2
Fore
SplineSet
155 225 m 2,0,-1
 164 225 l 2,1,2
 172 225 172 225 177.5 231 c 128,-1,3
 183 237 183 237 183 245 c 2,4,-1
 183 300 l 1,5,-1
 300 300 l 1,6,-1
 300 243 l 2,7,8
 300 111 300 111 176 111 c 2,9,-1
 171 111 l 2,10,11
 163 111 163 111 157.5 105 c 128,-1,12
 152 99 152 99 152 91 c 2,13,-1
 152 -28 l 2,14,15
 152 -36 152 -36 157.5 -42 c 128,-1,16
 163 -48 163 -48 171 -48 c 2,17,-1
 247 -48 l 2,18,19
 255 -48 255 -48 260.5 -42 c 128,-1,20
 266 -36 266 -36 266 -28 c 2,21,-1
 266 23 l 1,22,-1
 390 23 l 1,23,-1
 390 -25 l 2,24,25
 390 -157 390 -157 266 -157 c 2,26,-1
 155 -157 l 2,27,28
 31 -157 31 -157 31 -25 c 2,29,-1
 31 93 l 2,30,31
 31 225 31 225 155 225 c 2,0,-1
290 377 m 128,-1,33
 269 356 269 356 239 356 c 128,-1,34
 209 356 209 356 188 377 c 128,-1,35
 167 398 167 398 167 428 c 128,-1,36
 167 458 167 458 188 479 c 128,-1,37
 209 500 209 500 239 500 c 128,-1,38
 269 500 269 500 290 479 c 128,-1,39
 311 458 311 458 311 428 c 128,-1,32
 311 398 311 398 290 377 c 128,-1,33
EndSplineSet
EndChar

StartChar: zero
Encoding: 48 48 65
Width: 453
Flags: HMW
HStem: -10 96<134.5 262 205 262 262 267 205 293> 562 95<200 205 205 262>
VStem: 50 136<122 525 525 542> 281 136<106 122 122 525>
LayerCount: 2
Fore
SplineSet
417 525 m 2,0,-1
 417 122 l 2,1,2
 417 -10 417 -10 293 -10 c 2,3,-1
 174 -10 l 2,4,5
 50 -10 50 -10 50 122 c 2,6,-1
 50 525 l 2,7,8
 50 657 50 657 174 657 c 2,9,-1
 293 657 l 2,10,11
 417 657 417 657 417 525 c 2,0,-1
281 106 m 2,12,-1
 281 542 l 2,13,14
 281 550 281 550 275.5 556 c 128,-1,15
 270 562 270 562 262 562 c 2,16,-1
 205 562 l 2,17,18
 197 562 197 562 191.5 556 c 128,-1,19
 186 550 186 550 186 542 c 2,20,-1
 186 106 l 2,21,22
 186 98 186 98 191.5 92 c 128,-1,23
 197 86 197 86 205 86 c 2,24,-1
 262 86 l 2,25,26
 270 86 270 86 275.5 92 c 128,-1,27
 281 98 281 98 281 106 c 2,12,-1
EndSplineSet
EndChar

StartChar: one
Encoding: 49 49 66
Width: 259
Flags: HMW
HStem: -1 21G<62 198 62 62> 626 20G<62 198 198 198>
VStem: 62 136<-1 646 -1 646>
LayerCount: 2
Fore
SplineSet
198 646 m 1,0,-1
 198 -1 l 1,1,-1
 62 -1 l 1,2,-1
 62 646 l 1,3,-1
 198 646 l 1,0,-1
EndSplineSet
EndChar

StartChar: two
Encoding: 50 50 67
Width: 464
Flags: HMW
HStem: 0 115<187 403 187 403> 242 123<201 206 206 263 263 268 183 287> 477 180<176 185 52 287> 548 109<199 204 204 263>
VStem: 52 135 282 129<385 525>
LayerCount: 2
Fore
SplineSet
187 222 m 2,0,-1
 187 115 l 1,1,-1
 403 115 l 1,2,-1
 403 0 l 1,3,-1
 59 0 l 1,4,-1
 59 233 l 2,5,6
 59 365 59 365 183 365 c 2,7,-1
 263 365 l 2,8,9
 271 365 271 365 276.5 371 c 128,-1,10
 282 377 282 377 282 385 c 2,11,-1
 282 528 l 2,12,13
 282 536 282 536 276.5 542 c 128,-1,14
 271 548 271 548 263 548 c 2,15,-1
 204 548 l 2,16,17
 196 548 196 548 190.5 542 c 128,-1,18
 185 536 185 536 185 528 c 2,19,-1
 185 477 l 1,20,-1
 52 477 l 1,21,-1
 52 525 l 2,22,23
 52 657 52 657 176 657 c 2,24,-1
 287 657 l 2,25,26
 411 657 411 657 411 525 c 2,27,-1
 411 374 l 2,28,29
 411 242 411 242 287 242 c 2,30,-1
 206 242 l 2,31,32
 198 242 198 242 192.5 236 c 128,-1,33
 187 230 187 230 187 222 c 2,0,-1
EndSplineSet
EndChar

StartChar: three
Encoding: 51 51 68
Width: 455
Flags: HMW
HStem: -10 106<130.5 269 190 269 269 274 190 288> -10 185<130.5 170 170 171 46 288> 274 108<166 263 263 268 166 269 166 263> 464 193<176 177 52 282> 548 109<191 196 196 263>
VStem: 52 125<464 525 496.5 528 464 571> 166 240<274 439 382 439> 282 124<413 439 439 525 413 528 413 533.5>
LayerCount: 2
Fore
SplineSet
365 331 m 1,0,1
 412 298 412 298 412 218 c 2,2,-1
 412 122 l 2,3,4
 412 -10 412 -10 288 -10 c 2,5,-1
 170 -10 l 2,6,7
 46 -10 46 -10 46 122 c 2,8,-1
 46 175 l 1,9,-1
 171 175 l 1,10,-1
 171 116 l 2,11,12
 171 108 171 108 176.5 102 c 128,-1,13
 182 96 182 96 190 96 c 2,14,-1
 269 96 l 2,15,16
 277 96 277 96 282.5 102 c 128,-1,17
 288 108 288 108 288 116 c 2,18,-1
 288 254 l 2,19,20
 288 262 288 262 282.5 268 c 128,-1,21
 277 274 277 274 269 274 c 2,22,-1
 166 274 l 1,23,-1
 166 382 l 1,24,-1
 263 382 l 2,25,26
 271 382 271 382 276.5 388 c 128,-1,27
 282 394 282 394 282 402 c 2,28,-1
 282 528 l 2,29,30
 282 536 282 536 276.5 542 c 128,-1,31
 271 548 271 548 263 548 c 2,32,-1
 196 548 l 2,33,34
 188 548 188 548 182.5 542 c 128,-1,35
 177 536 177 536 177 528 c 2,36,-1
 177 464 l 1,37,-1
 52 464 l 1,38,-1
 52 525 l 2,39,40
 52 657 52 657 176 657 c 2,41,-1
 282 657 l 2,42,43
 406 657 406 657 406 525 c 2,44,-1
 406 439 l 2,45,46
 406 361 406 361 365 331 c 1,0,1
EndSplineSet
EndChar

StartChar: four
Encoding: 52 52 69
Width: 467
Flags: HMW
HStem: 0 21G<292 417 292 292> 255 118<135.5 273 194 225 225 273 273 278 194 292> 627 20G<51 175 175 175 292 417 417 417>
VStem: 51 124<387.5 393 393 647> 292 125<0 255 255 255 393 647 0 647>
LayerCount: 2
Fore
SplineSet
292 647 m 1,0,-1
 417 647 l 1,1,-1
 417 0 l 1,2,-1
 292 0 l 1,3,-1
 292 255 l 1,4,-1
 175 255 l 2,5,6
 51 255 51 255 51 387 c 2,7,-1
 51 647 l 1,8,-1
 175 647 l 1,9,-1
 175 393 l 2,10,11
 175 385 175 385 180.5 379 c 128,-1,12
 186 373 186 373 194 373 c 2,13,-1
 273 373 l 2,14,15
 281 373 281 373 286.5 379 c 128,-1,16
 292 385 292 385 292 393 c 2,17,-1
 292 647 l 1,0,-1
EndSplineSet
EndChar

StartChar: five
Encoding: 53 53 70
Width: 463
Flags: HMW
HStem: -10 109<136.5 263 204 263 263 268 204 287> -10 180<136.5 176 176 185 52 287> 282 123<129.5 287 192 263> 540 107<173 173 173 385>
VStem: 45 128<419.5 425 425 540 419.5 647> 45 140 282 129<119 122 122 262 262 267.5>
LayerCount: 2
Fore
SplineSet
173 540 m 1,0,-1
 173 425 l 2,1,2
 173 417 173 417 178.5 411 c 128,-1,3
 184 405 184 405 192 405 c 2,4,-1
 287 405 l 2,5,6
 411 405 411 405 411 273 c 2,7,-1
 411 122 l 2,8,9
 411 -10 411 -10 287 -10 c 2,10,-1
 176 -10 l 2,11,12
 52 -10 52 -10 52 122 c 2,13,-1
 52 170 l 1,14,-1
 185 170 l 1,15,-1
 185 119 l 2,16,17
 185 111 185 111 190.5 105 c 128,-1,18
 196 99 196 99 204 99 c 2,19,-1
 263 99 l 2,20,21
 271 99 271 99 276.5 105 c 128,-1,22
 282 111 282 111 282 119 c 2,23,-1
 282 262 l 2,24,25
 282 270 282 270 276.5 276 c 128,-1,26
 271 282 271 282 263 282 c 2,27,-1
 169 282 l 2,28,29
 45 282 45 282 45 414 c 2,30,-1
 45 647 l 1,31,-1
 385 647 l 1,32,-1
 385 540 l 1,33,-1
 173 540 l 1,0,-1
EndSplineSet
EndChar

StartChar: six
Encoding: 54 54 71
Width: 466
Flags: HMW
HStem: -10 123<140.5 279 200 279 279 284 200 298> 269 123<195 298 248 279> 477 180<284 288 288 327.5 180 412 284 284> 548 109<195 200 200 265>
VStem: 56 125<127.5 133 133 249 379 525 525 528> 284 128<477 525 477 528 477 533.5> 298 114<392 525>
LayerCount: 2
Fore
SplineSet
298 392 m 2,0,1
 422 392 422 392 422 260 c 2,2,-1
 422 122 l 2,3,4
 422 -10 422 -10 298 -10 c 2,5,-1
 180 -10 l 2,6,7
 56 -10 56 -10 56 122 c 2,8,-1
 56 525 l 2,9,10
 56 657 56 657 180 657 c 2,11,-1
 288 657 l 2,12,13
 412 657 412 657 412 525 c 2,14,-1
 412 477 l 1,15,-1
 284 477 l 1,16,-1
 284 528 l 2,17,18
 284 536 284 536 278.5 542 c 128,-1,19
 273 548 273 548 265 548 c 2,20,-1
 200 548 l 2,21,22
 192 548 192 548 186.5 542 c 128,-1,23
 181 536 181 536 181 528 c 2,24,-1
 181 379 l 1,25,26
 208 392 208 392 248 392 c 2,27,-1
 298 392 l 2,0,1
298 133 m 2,28,-1
 298 249 l 2,29,30
 298 257 298 257 292.5 263 c 128,-1,31
 287 269 287 269 279 269 c 2,32,-1
 200 269 l 2,33,34
 192 269 192 269 186.5 263 c 128,-1,35
 181 257 181 257 181 249 c 2,36,-1
 181 133 l 2,37,38
 181 125 181 125 186.5 119 c 128,-1,39
 192 113 192 113 200 113 c 2,40,-1
 279 113 l 2,41,42
 287 113 287 113 292.5 119 c 128,-1,43
 298 125 298 125 298 133 c 2,28,-1
EndSplineSet
EndChar

StartChar: seven
Encoding: 55 55 72
Width: 421
Flags: HMW
HStem: 0 21G<118 245 118 118> 540 107<49 223 49 379>
LayerCount: 2
Fore
SplineSet
49 647 m 1,0,-1
 379 647 l 1,1,-1
 245 0 l 1,2,-1
 118 0 l 1,3,-1
 223 540 l 1,4,-1
 49 540 l 1,5,-1
 49 647 l 1,0,-1
EndSplineSet
EndChar

StartChar: eight
Encoding: 56 56 73
Width: 469
Flags: HMW
HStem: -10 109<137.5 276 197 276 276 281 197 295> 272 111<192 270 203 270 270 275 203 276> 545 112<198 203 203 270>
VStem: 59 125<439 525 397.5 571> 289 124<413 439 439 525 413 530.5>
LayerCount: 2
Fore
SplineSet
372 331 m 1,0,1
 419 298 419 298 419 218 c 2,2,-1
 419 122 l 2,3,4
 419 -10 419 -10 295 -10 c 2,5,-1
 177 -10 l 2,6,7
 53 -10 53 -10 53 122 c 2,8,-1
 53 218 l 2,9,10
 53 298 53 298 100 331 c 1,11,12
 59 361 59 361 59 439 c 2,13,-1
 59 525 l 2,14,15
 59 657 59 657 183 657 c 2,16,-1
 289 657 l 2,17,18
 413 657 413 657 413 525 c 2,19,-1
 413 439 l 2,20,21
 413 361 413 361 372 331 c 1,0,1
184 525 m 2,22,-1
 184 403 l 2,23,24
 184 395 184 395 189.5 389 c 128,-1,25
 195 383 195 383 203 383 c 2,26,-1
 270 383 l 2,27,28
 278 383 278 383 283.5 389 c 128,-1,29
 289 395 289 395 289 403 c 2,30,-1
 289 525 l 2,31,32
 289 533 289 533 283.5 539 c 128,-1,33
 278 545 278 545 270 545 c 2,34,-1
 203 545 l 2,35,36
 195 545 195 545 189.5 539 c 128,-1,37
 184 533 184 533 184 525 c 2,22,-1
295 119 m 2,38,-1
 295 252 l 2,39,40
 295 260 295 260 289.5 266 c 128,-1,41
 284 272 284 272 276 272 c 2,42,-1
 197 272 l 2,43,44
 189 272 189 272 183.5 266 c 128,-1,45
 178 260 178 260 178 252 c 2,46,-1
 178 119 l 2,47,48
 178 111 178 111 183.5 105 c 128,-1,49
 189 99 189 99 197 99 c 2,50,-1
 276 99 l 2,51,52
 284 99 284 99 289.5 105 c 128,-1,53
 295 111 295 111 295 119 c 2,38,-1
EndSplineSet
EndChar

StartChar: nine
Encoding: 57 57 74
Width: 455
Flags: HMW
HStem: -10 109<137.5 265 200 265 265 270 200 285> -10 180<137.5 177 177 181 53 285> 255 123<127.5 265 186 217> 534 123<181 186 186 265>
VStem: 53 114<122 255 170 255> 53 128<122 170 113.5 170> 284 125<119 122 122 268 268 268 398 514 514 519.5>
LayerCount: 2
Fore
SplineSet
217 255 m 2,0,-1
 167 255 l 2,1,2
 43 255 43 255 43 387 c 2,3,-1
 43 525 l 2,4,5
 43 657 43 657 167 657 c 2,6,-1
 285 657 l 2,7,8
 409 657 409 657 409 525 c 2,9,-1
 409 122 l 2,10,11
 409 -10 409 -10 285 -10 c 2,12,-1
 177 -10 l 2,13,14
 53 -10 53 -10 53 122 c 2,15,-1
 53 170 l 1,16,-1
 181 170 l 1,17,-1
 181 119 l 2,18,19
 181 111 181 111 186.5 105 c 128,-1,20
 192 99 192 99 200 99 c 2,21,-1
 265 99 l 2,22,23
 273 99 273 99 278.5 105 c 128,-1,24
 284 111 284 111 284 119 c 2,25,-1
 284 268 l 1,26,27
 257 255 257 255 217 255 c 2,0,-1
167 514 m 2,28,-1
 167 398 l 2,29,30
 167 390 167 390 172.5 384 c 128,-1,31
 178 378 178 378 186 378 c 2,32,-1
 265 378 l 2,33,34
 273 378 273 378 278.5 384 c 128,-1,35
 284 390 284 390 284 398 c 2,36,-1
 284 514 l 2,37,38
 284 522 284 522 278.5 528 c 128,-1,39
 273 534 273 534 265 534 c 2,40,-1
 186 534 l 2,41,42
 178 534 178 534 172.5 528 c 128,-1,43
 167 522 167 522 167 514 c 2,28,-1
EndSplineSet
EndChar

StartChar: bar
Encoding: 124 124 75
Width: 265
Flags: HMW
HStem: -73 21G<80 80 80 183> 654 20G<80 183 183 183>
VStem: 80 103<-73 674 -73 674>
LayerCount: 2
Fore
SplineSet
80 -73 m 1,0,-1
 80 674 l 1,1,-1
 183 674 l 1,2,-1
 183 -73 l 1,3,-1
 80 -73 l 1,0,-1
EndSplineSet
EndChar

StartChar: asterisk
Encoding: 42 42 76
Width: 388
Flags: HMW
HStem: 315 21G<163 239 163 163> 627 20G<163 239 239 239>
VStem: 166 69
LayerCount: 2
Fore
SplineSet
364 530 m 1,0,-1
 264 480 l 1,1,-1
 364 431 l 1,2,-1
 326 364 l 1,3,-1
 232 426 l 1,4,-1
 239 315 l 1,5,-1
 163 315 l 1,6,-1
 170 425 l 1,7,-1
 77 364 l 1,8,-1
 38 431 l 1,9,-1
 138 480 l 1,10,-1
 38 530 l 1,11,-1
 77 597 l 1,12,-1
 170 535 l 1,13,-1
 163 647 l 1,14,-1
 239 647 l 1,15,-1
 232 534 l 1,16,-1
 326 597 l 1,17,-1
 364 530 l 1,0,-1
EndSplineSet
EndChar

StartChar: logicalnot
Encoding: 172 172 77
Width: 490
Flags: HMW
HStem: 199 224<328 447 328 328> 297 126<45 447 45 328>
VStem: 328 119<199 297 297 297>
LayerCount: 2
Fore
SplineSet
45 297 m 1,0,-1
 45 423 l 1,1,-1
 447 423 l 1,2,-1
 447 199 l 1,3,-1
 328 199 l 1,4,-1
 328 297 l 1,5,-1
 45 297 l 1,0,-1
EndSplineSet
EndChar

StartChar: less
Encoding: 60 60 78
Width: 417
Flags: HMW
HStem: 72 21G<389 389> 520 20G<389 389>
LayerCount: 2
Fore
SplineSet
389 540 m 1,0,-1
 389 422 l 1,1,-1
 159 305 l 1,2,-1
 389 188 l 1,3,-1
 389 72 l 1,4,-1
 50 255 l 1,5,-1
 50 357 l 1,6,-1
 389 540 l 1,0,-1
EndSplineSet
EndChar

StartChar: greater
Encoding: 62 62 79
Width: 417
Flags: HMW
HStem: 72 21G<44 44> 520 20G<44 44>
LayerCount: 2
Fore
SplineSet
44 422 m 1,0,-1
 44 540 l 1,1,-1
 383 357 l 1,2,-1
 383 255 l 1,3,-1
 44 72 l 1,4,-1
 44 188 l 1,5,-1
 274 305 l 1,6,-1
 44 422 l 1,0,-1
EndSplineSet
EndChar

StartChar: bracketleft
Encoding: 91 91 80
Width: 282
Flags: HMW
HStem: -81 98<143 234 143 234 47 234> 593 98<143 234 143 143>
VStem: 47 96<17 593 17 691> 47 187<-81 17 593 691>
LayerCount: 2
Fore
SplineSet
234 593 m 1,0,-1
 143 593 l 1,1,-1
 143 17 l 1,2,-1
 234 17 l 1,3,-1
 234 -81 l 1,4,-1
 47 -81 l 1,5,-1
 47 691 l 1,6,-1
 234 691 l 1,7,-1
 234 593 l 1,0,-1
EndSplineSet
EndChar

StartChar: bracketright
Encoding: 93 93 81
Width: 294
Flags: HMW
HStem: -81 98<47 138 47 234 47 138> 593 98<47 138 47 234>
VStem: 47 187<-81 17 17 17 593 691 -81 691> 138 96<17 593 593 593>
LayerCount: 2
Fore
SplineSet
138 593 m 1,0,-1
 47 593 l 1,1,-1
 47 691 l 1,2,-1
 234 691 l 1,3,-1
 234 -81 l 1,4,-1
 47 -81 l 1,5,-1
 47 17 l 1,6,-1
 138 17 l 1,7,-1
 138 593 l 1,0,-1
EndSplineSet
EndChar

StartChar: underscore
Encoding: 95 95 82
Width: 461
Flags: HMW
HStem: -186 77<32 432 32 432>
LayerCount: 2
Fore
SplineSet
32 -186 m 1,0,-1
 32 -109 l 1,1,-1
 432 -109 l 1,2,-1
 432 -186 l 1,3,-1
 32 -186 l 1,0,-1
EndSplineSet
EndChar

StartChar: quotedbl
Encoding: 34 34 83
Width: 376
Flags: HMW
HStem: 440 207<64 154 64 64 221 221 221 311>
VStem: 58 102 215 102
LayerCount: 2
Fore
SplineSet
167 647 m 1,0,-1
 154 440 l 1,1,-1
 64 440 l 1,2,-1
 52 647 l 1,3,-1
 167 647 l 1,0,-1
324 647 m 1,4,-1
 311 440 l 1,5,-1
 221 440 l 1,6,-1
 209 647 l 1,7,-1
 324 647 l 1,4,-1
EndSplineSet
EndChar

StartChar: quotesingle
Encoding: 39 39 84
Width: 221
Flags: HMW
HStem: 440 207<64 154 64 64>
VStem: 58 102
LayerCount: 2
Fore
SplineSet
167 647 m 1,0,-1
 154 440 l 1,1,-1
 64 440 l 1,2,-1
 52 647 l 1,3,-1
 167 647 l 1,0,-1
EndSplineSet
EndChar

StartChar: cent
Encoding: 162 162 85
Width: 456
Flags: HMW
HStem: -99 21G<203 248 203 203> -10 96<129.5 253 198 203 248 253 253 258 198 282 248 248> -10 202<129.5 406 169 406 272 282 248 406> 296 202<272 282 282 321.5 169 406 272 272> 402 96<193 198 198 203 248 253> 548 20G<203 248 248 248>
VStem: 45 134<122 366 366 382> 203 45<-99 -10 -99 -10 498 568> 272 134<106 122 122 192 76 192 296 366>
CounterMasks: 1 0380
LayerCount: 2
Fore
SplineSet
406 296 m 1,0,-1
 272 296 l 1,1,-1
 272 382 l 2,2,3
 272 390 272 390 266.5 396 c 128,-1,4
 261 402 261 402 253 402 c 2,5,-1
 198 402 l 2,6,7
 190 402 190 402 184.5 396 c 128,-1,8
 179 390 179 390 179 382 c 2,9,-1
 179 106 l 2,10,11
 179 98 179 98 184.5 92 c 128,-1,12
 190 86 190 86 198 86 c 2,13,-1
 253 86 l 2,14,15
 261 86 261 86 266.5 92 c 128,-1,16
 272 98 272 98 272 106 c 2,17,-1
 272 192 l 1,18,-1
 406 192 l 1,19,-1
 406 122 l 2,20,21
 406 -10 406 -10 282 -10 c 2,22,-1
 248 -10 l 1,23,-1
 248 -99 l 1,24,-1
 203 -99 l 1,25,-1
 203 -10 l 1,26,-1
 169 -10 l 2,27,28
 45 -10 45 -10 45 122 c 2,29,-1
 45 366 l 2,30,31
 45 498 45 498 169 498 c 2,32,-1
 203 498 l 1,33,-1
 203 568 l 1,34,-1
 248 568 l 1,35,-1
 248 498 l 1,36,-1
 282 498 l 2,37,38
 406 498 406 498 406 366 c 2,39,-1
 406 296 l 1,0,-1
EndSplineSet
EndChar

StartChar: dollar
Encoding: 36 36 86
Width: 466
Flags: HMW
HStem: -97 21G<214 251 214 214> -10 95<134.5 214 187 214 187 214 251 279 279 284 187 292 187 251> -10 199<134.5 168 50 174 50 214 50 292 50 251> 272 112<134.5 214 188 214 188 214 188 251 251 279> 477 180<291 324.5 174 409 291 291> 561 96<183 188 188 214 251 272 174 251> 689 20G<214 251 251 251>
VStem: 50 119<404 525 525 541> 214 37<-97 -10 -97 -10 85 272 384 561 657 709> 298 111
LayerCount: 2
Fore
SplineSet
292 384 m 1,0,1
 416 382 416 382 416 252 c 2,2,-1
 416 122 l 2,3,4
 416 -10 416 -10 292 -10 c 2,5,-1
 251 -10 l 1,6,-1
 251 -97 l 1,7,-1
 214 -97 l 1,8,-1
 214 -10 l 1,9,-1
 174 -10 l 2,10,11
 50 -10 50 -10 50 122 c 2,12,-1
 50 189 l 1,13,-1
 168 189 l 1,14,-1
 168 105 l 2,15,16
 168 97 168 97 173.5 91 c 128,-1,17
 179 85 179 85 187 85 c 2,18,-1
 214 85 l 1,19,-1
 214 272 l 1,20,-1
 174 272 l 2,21,22
 50 272 50 272 50 404 c 2,23,-1
 50 525 l 2,24,25
 50 657 50 657 174 657 c 2,26,-1
 214 657 l 1,27,-1
 214 709 l 1,28,-1
 251 709 l 1,29,-1
 251 657 l 1,30,-1
 285 657 l 2,31,32
 409 657 409 657 409 525 c 2,33,-1
 409 477 l 1,34,-1
 291 477 l 1,35,-1
 291 541 l 2,36,37
 291 549 291 549 285.5 555 c 128,-1,38
 280 561 280 561 272 561 c 2,39,-1
 251 561 l 1,40,-1
 251 384 l 1,41,-1
 292 384 l 1,0,1
188 384 m 2,42,-1
 214 384 l 1,43,-1
 214 561 l 1,44,-1
 188 561 l 2,45,46
 180 561 180 561 174.5 555 c 128,-1,47
 169 549 169 549 169 541 c 2,48,-1
 169 404 l 2,49,50
 169 396 169 396 174.5 390 c 128,-1,51
 180 384 180 384 188 384 c 2,42,-1
298 105 m 2,52,-1
 298 252 l 2,53,54
 298 260 298 260 292.5 266 c 128,-1,55
 287 272 287 272 279 272 c 2,56,-1
 251 272 l 1,57,-1
 251 85 l 1,58,-1
 279 85 l 2,59,60
 287 85 287 85 292.5 91 c 128,-1,61
 298 97 298 97 298 105 c 2,52,-1
EndSplineSet
EndChar

StartChar: currency
Encoding: 164 164 87
Width: 679
Flags: HMW
HStem: 32 21G<148 148 540 540> 583 20G<148 148 540 540>
LayerCount: 2
Fore
SplineSet
630 121 m 1,0,-1
 540 32 l 1,1,-1
 452 120 l 1,2,3
 402 92 402 92 344 92 c 128,-1,4
 286 92 286 92 236 120 c 1,5,-1
 148 32 l 1,6,-1
 58 121 l 1,7,-1
 147 209 l 1,8,9
 119 259 119 259 119 317 c 128,-1,10
 119 375 119 375 147 425 c 1,11,-1
 58 514 l 1,12,-1
 148 603 l 1,13,-1
 236 515 l 1,14,15
 286 543 286 543 344 543 c 128,-1,16
 402 543 402 543 452 515 c 1,17,-1
 540 603 l 1,18,-1
 630 514 l 1,19,-1
 541 425 l 1,20,21
 569 375 569 375 569 317 c 128,-1,22
 569 259 569 259 541 209 c 1,23,-1
 630 121 l 1,0,-1
231 317.5 m 128,-1,25
 231 271 231 271 264 237.5 c 128,-1,26
 297 204 297 204 344 204 c 128,-1,27
 391 204 391 204 424 237.5 c 128,-1,28
 457 271 457 271 457 317.5 c 128,-1,29
 457 364 457 364 424 397 c 128,-1,30
 391 430 391 430 344 430 c 128,-1,31
 297 430 297 430 264 397 c 128,-1,24
 231 364 231 364 231 317.5 c 128,-1,25
EndSplineSet
EndChar

StartChar: yen
Encoding: 165 165 88
Width: 437
Flags: HMW
HStem: 0 21G<146 286 146 146> 130 72<25 146 25 146 286 407> 267 72<25 111 25 135 25 111 320 407> 627 20G<7 139 139 139 293 425 425 425>
VStem: 146 140<0 130 0 130 202 236 0 236>
LayerCount: 2
Fore
SplineSet
425 647 m 1,0,-1
 320 339 l 1,1,-1
 407 339 l 1,2,-1
 407 267 l 1,3,-1
 296 267 l 1,4,-1
 286 236 l 1,5,-1
 286 202 l 1,6,-1
 407 202 l 1,7,-1
 407 130 l 1,8,-1
 286 130 l 1,9,-1
 286 0 l 1,10,-1
 146 0 l 1,11,-1
 146 130 l 1,12,-1
 25 130 l 1,13,-1
 25 202 l 1,14,-1
 146 202 l 1,15,-1
 146 236 l 1,16,-1
 135 267 l 1,17,-1
 25 267 l 1,18,-1
 25 339 l 1,19,-1
 111 339 l 1,20,-1
 7 647 l 1,21,-1
 139 647 l 1,22,-1
 216 377 l 1,23,-1
 293 647 l 1,24,-1
 425 647 l 1,0,-1
EndSplineSet
EndChar

StartChar: sterling
Encoding: 163 163 89
Width: 494
Flags: HMW
HStem: 0 101<32 96 236 405 32 96> 275 101<32 96 32 96 236 333> 464 193<337 346 346 385.5 220 470 337 337> 562 95<250 255 255 318>
VStem: 96 140<101 275 101 275 376 525 525 542> 337 133<464 525 464 542 464 547.5>
LayerCount: 2
Fore
SplineSet
470 464 m 1,0,-1
 337 464 l 1,1,-1
 337 542 l 2,2,3
 337 550 337 550 331.5 556 c 128,-1,4
 326 562 326 562 318 562 c 2,5,-1
 255 562 l 2,6,7
 247 562 247 562 241.5 556 c 128,-1,8
 236 550 236 550 236 542 c 2,9,-1
 236 376 l 1,10,-1
 333 376 l 1,11,-1
 333 275 l 1,12,-1
 236 275 l 1,13,-1
 236 101 l 1,14,-1
 405 101 l 1,15,-1
 405 0 l 1,16,-1
 32 0 l 1,17,-1
 32 101 l 1,18,-1
 96 101 l 1,19,-1
 96 275 l 1,20,-1
 32 275 l 1,21,-1
 32 376 l 1,22,-1
 96 376 l 1,23,-1
 96 525 l 2,24,25
 96 657 96 657 220 657 c 2,26,-1
 346 657 l 2,27,28
 470 657 470 657 470 525 c 2,29,-1
 470 464 l 1,0,-1
EndSplineSet
EndChar

StartChar: mu
Encoding: 181 181 90
AltUni2: 0003bc.ffffffff.0
Width: 462
Flags: HMW
HStem: -159 21G<45 173 45 45> -10 96<240.5 253 253 258 198 261 198 282> 468 20G<45 179 179 179 272 406 406 406>
VStem: 45 134<100.5 106 106 488> 272 134<106 122 122 488>
LayerCount: 2
Fore
SplineSet
45 488 m 1,0,-1
 179 488 l 1,1,-1
 179 106 l 2,2,3
 179 98 179 98 184.5 92 c 128,-1,4
 190 86 190 86 198 86 c 2,5,-1
 253 86 l 2,6,7
 261 86 261 86 266.5 92 c 128,-1,8
 272 98 272 98 272 106 c 2,9,-1
 272 488 l 1,10,-1
 406 488 l 1,11,-1
 406 122 l 2,12,13
 406 -10 406 -10 282 -10 c 2,14,-1
 261 -10 l 2,15,16
 204 -10 204 -10 173 25 c 1,17,-1
 173 -159 l 1,18,-1
 45 -159 l 1,19,-1
 45 488 l 1,0,-1
EndSplineSet
EndChar

StartChar: ampersand
Encoding: 38 38 91
Width: 456
Flags: HMW
HStem: -10 106<130.5 268 189 268 268 273 189 279> 255 108<184 442 195 287 403 442 403 403> 458 160<281 282 282 321.5 176 406 281 281> 509 109<190 195 195 262>
VStem: 46 130 287 116<116 122 122 255>
LayerCount: 2
Fore
SplineSet
93 312 m 1,0,1
 52 342 52 342 52 420 c 2,2,-1
 52 486 l 2,3,4
 52 618 52 618 176 618 c 2,5,-1
 282 618 l 2,6,7
 406 618 406 618 406 486 c 2,8,-1
 406 458 l 1,9,-1
 281 458 l 1,10,-1
 281 489 l 2,11,12
 281 497 281 497 275.5 503 c 128,-1,13
 270 509 270 509 262 509 c 2,14,-1
 195 509 l 2,15,16
 187 509 187 509 181.5 503 c 128,-1,17
 176 497 176 497 176 489 c 2,18,-1
 176 383 l 2,19,20
 176 375 176 375 181.5 369 c 128,-1,21
 187 363 187 363 195 363 c 2,22,-1
 442 363 l 1,23,-1
 442 255 l 1,24,-1
 403 255 l 1,25,-1
 403 122 l 2,26,27
 403 -10 403 -10 279 -10 c 2,28,-1
 170 -10 l 2,29,30
 46 -10 46 -10 46 122 c 2,31,-1
 46 199 l 2,32,33
 46 279 46 279 93 312 c 1,0,1
268 96 m 2,34,35
 276 96 276 96 281.5 102 c 128,-1,36
 287 108 287 108 287 116 c 2,37,-1
 287 255 l 1,38,-1
 189 255 l 2,39,40
 181 255 181 255 175.5 249 c 128,-1,41
 170 243 170 243 170 235 c 2,42,-1
 170 116 l 2,43,44
 170 108 170 108 175.5 102 c 128,-1,45
 181 96 181 96 189 96 c 2,46,-1
 268 96 l 2,34,35
EndSplineSet
EndChar

StartChar: daggerdbl
Encoding: 8225 8225 92
Width: 411
Flags: HMW
HStem: -132 21G<139 258 139 139> 41 103<35 139 35 139 258 362> 360 102<35 139 35 139 258 362> 616 20G<139 258 258 258>
VStem: 139 119<-132 41 -132 41 144 360 462 636>
LayerCount: 2
Fore
SplineSet
362 360 m 1,0,-1
 258 360 l 1,1,-1
 258 144 l 1,2,-1
 362 144 l 1,3,-1
 362 41 l 1,4,-1
 258 41 l 1,5,-1
 258 -132 l 1,6,-1
 139 -132 l 1,7,-1
 139 41 l 1,8,-1
 35 41 l 1,9,-1
 35 144 l 1,10,-1
 139 144 l 1,11,-1
 139 360 l 1,12,-1
 35 360 l 1,13,-1
 35 462 l 1,14,-1
 139 462 l 1,15,-1
 139 636 l 1,16,-1
 258 636 l 1,17,-1
 258 462 l 1,18,-1
 362 462 l 1,19,-1
 362 360 l 1,0,-1
EndSplineSet
EndChar

StartChar: degree
Encoding: 176 176 93
Width: 308
Flags: HMW
HStem: 392 44<90.5 185 127 185 185 188 127 201> 615 43<124 127 127 185>
VStem: 46 71<461 589 589 604> 195 71<446 461 461 589>
LayerCount: 2
Fore
SplineSet
266 589 m 2,0,-1
 266 461 l 2,1,2
 266 392 266 392 201 392 c 2,3,-1
 111 392 l 2,4,5
 46 392 46 392 46 461 c 2,6,-1
 46 589 l 2,7,8
 46 658 46 658 111 658 c 2,9,-1
 201 658 l 2,10,11
 266 658 266 658 266 589 c 2,0,-1
195 446 m 2,12,-1
 195 604 l 2,13,14
 195 615 195 615 185 615 c 2,15,-1
 127 615 l 2,16,17
 117 615 117 615 117 604 c 2,18,-1
 117 446 l 2,19,20
 117 436 117 436 127 436 c 2,21,-1
 185 436 l 2,22,23
 195 436 195 436 195 446 c 2,12,-1
EndSplineSet
EndChar

StartChar: asciicircum
Encoding: 94 94 94
Width: 385
Flags: HMW
HStem: 417 21G<30 111 30 30 275 358 275 275> 627 20G<158 230 230 230>
LayerCount: 2
Fore
SplineSet
358 417 m 1,0,-1
 275 417 l 1,1,-1
 194 561 l 1,2,-1
 111 417 l 1,3,-1
 30 417 l 1,4,-1
 158 647 l 1,5,-1
 230 647 l 1,6,-1
 358 417 l 1,0,-1
EndSplineSet
EndChar

StartChar: brokenbar
Encoding: 166 166 95
Width: 327
Flags: HMW
HStem: -196 21G<100 100 100 223> 695 20G<100 223 223 223>
VStem: 100 123<-196 218 -196 218 301 715>
LayerCount: 2
Fore
SplineSet
100 301 m 1,0,-1
 100 715 l 1,1,-1
 223 715 l 1,2,-1
 223 301 l 1,3,-1
 100 301 l 1,0,-1
100 -196 m 1,4,-1
 100 218 l 1,5,-1
 223 218 l 1,6,-1
 223 -196 l 1,7,-1
 100 -196 l 1,4,-1
EndSplineSet
EndChar

StartChar: guillemotleft
Encoding: 171 171 96
Width: 632
Flags: HMW
HStem: 18 21G<274 274 522 522> 496 20G<274 274 522 522>
LayerCount: 2
Fore
SplineSet
358 102 m 1,0,-1
 274 18 l 1,1,-1
 25 266 l 1,2,-1
 25 268 l 1,3,-1
 274 516 l 1,4,-1
 358 432 l 1,5,-1
 193 267 l 1,6,-1
 358 102 l 1,0,-1
606 102 m 1,7,-1
 522 18 l 1,8,-1
 273 266 l 1,9,-1
 273 268 l 1,10,-1
 522 516 l 1,11,-1
 606 432 l 1,12,-1
 441 267 l 1,13,-1
 606 102 l 1,7,-1
EndSplineSet
EndChar

StartChar: guillemotright
Encoding: 187 187 97
Width: 651
Flags: HMW
HStem: 18 21G<109 109 357 357> 496 20G<109 109 357 357>
LayerCount: 2
Fore
SplineSet
357 18 m 1,0,-1
 273 102 l 1,1,-1
 438 267 l 1,2,-1
 273 432 l 1,3,-1
 357 516 l 1,4,-1
 606 268 l 1,5,-1
 606 266 l 1,6,-1
 357 18 l 1,0,-1
109 18 m 1,7,-1
 25 102 l 1,8,-1
 190 267 l 1,9,-1
 25 432 l 1,10,-1
 109 516 l 1,11,-1
 358 268 l 1,12,-1
 358 266 l 1,13,-1
 109 18 l 1,7,-1
EndSplineSet
EndChar

StartChar: plusminus
Encoding: 177 177 98
Width: 495
Flags: HMW
HStem: 0 100<55 441 55 441> 295 100<56 192 56 192 305 441> 516 20G<192 305 305 305>
VStem: 192 113<153 295 153 295 395 536>
LayerCount: 2
Fore
SplineSet
441 395 m 1,0,-1
 441 295 l 1,1,-1
 305 295 l 1,2,-1
 305 153 l 1,3,-1
 192 153 l 1,4,-1
 192 295 l 1,5,-1
 56 295 l 1,6,-1
 56 395 l 1,7,-1
 192 395 l 1,8,-1
 192 536 l 1,9,-1
 305 536 l 1,10,-1
 305 395 l 1,11,-1
 441 395 l 1,0,-1
55 0 m 1,12,-1
 55 100 l 1,13,-1
 441 100 l 1,14,-1
 441 0 l 1,15,-1
 55 0 l 1,12,-1
EndSplineSet
EndChar

StartChar: plus
Encoding: 43 43 99
Width: 495
Flags: HMW
HStem: 100 21G<192 305 192 192> 263 100<56 192 56 192 305 441> 505 20G<192 305 305 305>
VStem: 192 113<100 263 100 263 363 525>
LayerCount: 2
Fore
SplineSet
441 363 m 1,0,-1
 441 263 l 1,1,-1
 305 263 l 1,2,-1
 305 100 l 1,3,-1
 192 100 l 1,4,-1
 192 263 l 1,5,-1
 56 263 l 1,6,-1
 56 363 l 1,7,-1
 192 363 l 1,8,-1
 192 525 l 1,9,-1
 305 525 l 1,10,-1
 305 363 l 1,11,-1
 441 363 l 1,0,-1
EndSplineSet
EndChar

StartChar: equal
Encoding: 61 61 100
Width: 477
Flags: HMW
HStem: 143 107<56 423 56 423> 335 107<56 423 56 423>
LayerCount: 2
Fore
SplineSet
423 442 m 1,0,-1
 423 335 l 1,1,-1
 56 335 l 1,2,-1
 56 442 l 1,3,-1
 423 442 l 1,0,-1
423 250 m 1,4,-1
 423 143 l 1,5,-1
 56 143 l 1,6,-1
 56 250 l 1,7,-1
 423 250 l 1,4,-1
EndSplineSet
EndChar

StartChar: multiply
Encoding: 215 215 101
Width: 465
Flags: HMW
HStem: 116 21G<124 124 338 338> 451 20G<124 124 338 338>
LayerCount: 2
Fore
SplineSet
338 471 m 1,0,-1
 408 401 l 1,1,-1
 301 293 l 1,2,-1
 408 186 l 1,3,-1
 338 116 l 1,4,-1
 231 223 l 1,5,-1
 124 116 l 1,6,-1
 54 186 l 1,7,-1
 161 293 l 1,8,-1
 54 401 l 1,9,-1
 124 471 l 1,10,-1
 231 363 l 1,11,-1
 338 471 l 1,0,-1
EndSplineSet
EndChar

StartChar: divide
Encoding: 247 247 102
Width: 465
Flags: HMW
HStem: 18 144<212.5 252.5> 197 107<38 427 38 427> 339 144<212.5 252.5>
VStem: 161 144<69.5 109.5 390.5 430.5>
CounterMasks: 1 e0
LayerCount: 2
Fore
SplineSet
182 141 m 128,-1,1
 203 162 203 162 233 162 c 128,-1,2
 263 162 263 162 284 141 c 128,-1,3
 305 120 305 120 305 90 c 128,-1,4
 305 60 305 60 284 39 c 128,-1,5
 263 18 263 18 233 18 c 128,-1,6
 203 18 203 18 182 39 c 128,-1,7
 161 60 161 60 161 90 c 128,-1,0
 161 120 161 120 182 141 c 128,-1,1
284 360 m 128,-1,9
 263 339 263 339 233 339 c 128,-1,10
 203 339 203 339 182 360 c 128,-1,11
 161 381 161 381 161 411 c 128,-1,12
 161 441 161 441 182 462 c 128,-1,13
 203 483 203 483 233 483 c 128,-1,14
 263 483 263 483 284 462 c 128,-1,15
 305 441 305 441 305 411 c 128,-1,8
 305 381 305 381 284 360 c 128,-1,9
38 304 m 1,16,-1
 427 304 l 1,17,-1
 427 197 l 1,18,-1
 38 197 l 1,19,-1
 38 304 l 1,16,-1
EndSplineSet
EndChar

StartChar: numbersign
Encoding: 35 35 103
Width: 493
Flags: HMW
HStem: 0 21G<106 208 106 106 283 385 283 283> 139 102<44 106 44 106 208 283 385 446> 337 102<44 106 44 106 208 283 385 446> 524 20G<106 208 208 208 283 385 385 385>
VStem: 106 102<0 139 0 139 241 337 439 544> 283 102<0 139 0 139 241 337 439 544>
LayerCount: 2
Fore
SplineSet
446 337 m 1,0,-1
 385 337 l 1,1,-1
 385 241 l 1,2,-1
 446 241 l 1,3,-1
 446 139 l 1,4,-1
 385 139 l 1,5,-1
 385 0 l 1,6,-1
 283 0 l 1,7,-1
 283 139 l 1,8,-1
 208 139 l 1,9,-1
 208 0 l 1,10,-1
 106 0 l 1,11,-1
 106 139 l 1,12,-1
 44 139 l 1,13,-1
 44 241 l 1,14,-1
 106 241 l 1,15,-1
 106 337 l 1,16,-1
 44 337 l 1,17,-1
 44 439 l 1,18,-1
 106 439 l 1,19,-1
 106 544 l 1,20,-1
 208 544 l 1,21,-1
 208 439 l 1,22,-1
 283 439 l 1,23,-1
 283 544 l 1,24,-1
 385 544 l 1,25,-1
 385 439 l 1,26,-1
 446 439 l 1,27,-1
 446 337 l 1,0,-1
283 241 m 1,28,-1
 283 337 l 1,29,-1
 208 337 l 1,30,-1
 208 241 l 1,31,-1
 283 241 l 1,28,-1
EndSplineSet
EndChar

StartChar: paragraph
Encoding: 182 182 104
Width: 529
Flags: HMW
HStem: -63 21G<171 289 171 171 337 456 337 337> 590 96<289 337 289 289 456 508 456 456>
VStem: 171 118<-63 317 317 317> 337 119<-63 590 -63 590>
LayerCount: 2
Fore
SplineSet
508 686 m 1,0,-1
 508 590 l 1,1,-1
 456 590 l 1,2,-1
 456 -63 l 1,3,-1
 337 -63 l 1,4,-1
 337 590 l 1,5,-1
 289 590 l 1,6,-1
 289 -63 l 1,7,-1
 171 -63 l 1,8,-1
 171 317 l 1,9,-1
 156 317 l 2,10,11
 32 317 32 317 32 449 c 2,12,-1
 32 554 l 2,13,14
 32 686 32 686 156 686 c 2,15,-1
 508 686 l 1,0,-1
EndSplineSet
EndChar

StartChar: backslash
Encoding: 92 92 105
Width: 305
Flags: HMW
HStem: -72 21G<241 348 241 241> 654 20G<-42 65 65 65>
LayerCount: 2
Fore
SplineSet
-42 674 m 1,0,-1
 65 674 l 1,1,-1
 348 -72 l 1,2,-1
 241 -72 l 1,3,-1
 -42 674 l 1,0,-1
EndSplineSet
EndChar

StartChar: slash
Encoding: 47 47 106
Width: 298
Flags: HMW
HStem: -72 21G<-42 65 -42 -42> 654 20G<241 348 348 348>
LayerCount: 2
Fore
SplineSet
241 674 m 1,0,-1
 348 674 l 1,1,-1
 65 -72 l 1,2,-1
 -42 -72 l 1,3,-1
 241 674 l 1,0,-1
EndSplineSet
EndChar

StartChar: braceright
Encoding: 125 125 107
Width: 263
Flags: HMW
HStem: -88 21G<43 82 43 43> 671 20G<43 82 82 121.5>
VStem: 43 163<-2 13 13 13> 103 103<33 44 44 194 194 222 420 559> 103 139<33 288 194 288 261 576>
LayerCount: 2
Fore
SplineSet
84 596 m 2,0,-1
 43 596 l 1,1,-1
 43 691 l 1,2,-1
 82 691 l 2,3,4
 206 691 206 691 206 559 c 2,5,-1
 206 373 l 2,6,7
 206 365 206 365 211.5 359 c 128,-1,8
 217 353 217 353 225 353 c 2,9,-1
 242 353 l 1,10,-1
 242 261 l 1,11,-1
 225 261 l 2,12,13
 217 261 217 261 211.5 255 c 128,-1,14
 206 249 206 249 206 241 c 2,15,-1
 206 44 l 2,16,17
 206 -88 206 -88 82 -88 c 2,18,-1
 43 -88 l 1,19,-1
 43 13 l 1,20,-1
 84 13 l 2,21,22
 92 13 92 13 97.5 19 c 128,-1,23
 103 25 103 25 103 33 c 2,24,-1
 103 194 l 2,25,26
 103 278 103 278 144 307 c 1,27,28
 103 336 103 336 103 420 c 2,29,-1
 103 576 l 2,30,31
 103 584 103 584 97.5 590 c 128,-1,32
 92 596 92 596 84 596 c 2,0,-1
EndSplineSet
EndChar

StartChar: braceleft
Encoding: 123 123 108
Width: 258
Flags: HMW
HStem: -88 21G<163.5 203 203 242> 671 20G<203 242 242 242>
VStem: 43 139 79 103<44 194 392 420 420 559 559 576> 79 163<-88 241 596 605>
LayerCount: 2
Fore
SplineSet
201 596 m 2,0,1
 193 596 193 596 187.5 590 c 128,-1,2
 182 584 182 584 182 576 c 2,3,-1
 182 420 l 2,4,5
 182 336 182 336 141 307 c 1,6,7
 182 278 182 278 182 194 c 2,8,-1
 182 33 l 2,9,10
 182 25 182 25 187.5 19 c 128,-1,11
 193 13 193 13 201 13 c 2,12,-1
 242 13 l 1,13,-1
 242 -88 l 1,14,-1
 203 -88 l 2,15,16
 79 -88 79 -88 79 44 c 2,17,-1
 79 241 l 2,18,19
 79 249 79 249 73.5 255 c 128,-1,20
 68 261 68 261 60 261 c 2,21,-1
 43 261 l 1,22,-1
 43 353 l 1,23,-1
 60 353 l 2,24,25
 68 353 68 353 73.5 359 c 128,-1,26
 79 365 79 365 79 373 c 2,27,-1
 79 559 l 2,28,29
 79 691 79 691 203 691 c 2,30,-1
 242 691 l 1,31,-1
 242 596 l 1,32,-1
 201 596 l 2,0,1
EndSplineSet
EndChar

StartChar: ordmasculine
Encoding: 186 186 109
Width: 291
Flags: HMW
HStem: 399 21G<92 112 112 183> 633 20G<112 183 183 203>
VStem: 50 67<465 587 587 601> 178 67<451 465 465 587>
LayerCount: 2
Fore
SplineSet
183 653 m 2,0,1
 245 653 245 653 245 587 c 2,2,-1
 245 465 l 2,3,4
 245 399 245 399 183 399 c 2,5,-1
 112 399 l 2,6,7
 50 399 50 399 50 465 c 2,8,-1
 50 587 l 2,9,10
 50 653 50 653 112 653 c 2,11,-1
 183 653 l 2,0,1
178 451 m 2,12,-1
 178 601 l 2,13,14
 178 611 178 611 169 611 c 2,15,-1
 126 611 l 2,16,17
 117 611 117 611 117 601 c 2,18,-1
 117 451 l 2,19,20
 117 441 117 441 126 441 c 2,21,-1
 169 441 l 2,22,23
 178 441 178 441 178 451 c 2,12,-1
EndSplineSet
EndChar

StartChar: ordfeminine
Encoding: 170 170 110
Width: 287
Flags: HMW
HStem: 399 21G<90 110 110 120> 628 20G<187 243 243 243> 633 20G<110 120 120 132>
VStem: 48 67<465 587 587 595> 176 67<457 595 595 597.5>
LayerCount: 2
Fore
SplineSet
187 648 m 1,0,-1
 243 648 l 1,1,-1
 243 404 l 1,2,-1
 187 404 l 1,3,-1
 187 422 l 1,4,5
 171 399 171 399 120 399 c 2,6,-1
 110 399 l 2,7,8
 48 399 48 399 48 465 c 2,9,-1
 48 587 l 2,10,11
 48 653 48 653 110 653 c 2,12,-1
 120 653 l 2,13,14
 170 653 170 653 187 630 c 1,15,-1
 187 648 l 1,0,-1
176 457 m 2,16,-1
 176 595 l 2,17,18
 176 605 176 605 167 605 c 2,19,-1
 124 605 l 2,20,21
 115 605 115 605 115 595 c 2,22,-1
 115 457 l 2,23,24
 115 447 115 447 124 447 c 2,25,-1
 167 447 l 2,26,27
 176 447 176 447 176 457 c 2,16,-1
EndSplineSet
EndChar

StartChar: percent
Encoding: 37 37 111
Width: 763
Flags: HMW
HStem: -10 21G<540.5 580 580 604> 0 21G<136 236 136 136> 627 20G<529 629 629 629> 637 20G<159 183 183 222.5>
VStem: 35 102<450 525 525 571> 206 101<404 450 450 525 404 576> 456 102<122 197 197 243> 627 101<76 122 122 197 76 248>
LayerCount: 2
Fore
SplineSet
529 647 m 1,0,-1
 629 647 l 1,1,-1
 236 0 l 1,2,-1
 136 0 l 1,3,-1
 529 647 l 1,0,-1
183 318 m 2,4,-1
 159 318 l 2,5,6
 35 318 35 318 35 450 c 2,7,-1
 35 525 l 2,8,9
 35 657 35 657 159 657 c 2,10,-1
 183 657 l 2,11,12
 307 657 307 657 307 525 c 2,13,-1
 307 450 l 2,14,15
 307 318 307 318 183 318 c 2,4,-1
137 400 m 2,16,17
 137 392 137 392 142.5 386 c 128,-1,18
 148 380 148 380 156 380 c 2,19,-1
 187 380 l 2,20,21
 195 380 195 380 200.5 386 c 128,-1,22
 206 392 206 392 206 400 c 2,23,-1
 206 576 l 2,24,25
 206 584 206 584 200.5 590 c 128,-1,26
 195 596 195 596 187 596 c 2,27,-1
 156 596 l 2,28,29
 148 596 148 596 142.5 590 c 128,-1,30
 137 584 137 584 137 576 c 2,31,-1
 137 400 l 2,16,17
604 329 m 2,32,33
 728 329 728 329 728 197 c 2,34,-1
 728 122 l 2,35,36
 728 -10 728 -10 604 -10 c 2,37,-1
 580 -10 l 2,38,39
 456 -10 456 -10 456 122 c 2,40,-1
 456 197 l 2,41,42
 456 329 456 329 580 329 c 2,43,-1
 604 329 l 2,32,33
627 72 m 2,44,-1
 627 248 l 2,45,46
 627 256 627 256 621.5 262 c 128,-1,47
 616 268 616 268 608 268 c 2,48,-1
 577 268 l 2,49,50
 569 268 569 268 563.5 262 c 128,-1,51
 558 256 558 256 558 248 c 2,52,-1
 558 72 l 2,53,54
 558 64 558 64 563.5 58 c 128,-1,55
 569 52 569 52 577 52 c 2,56,-1
 608 52 l 2,57,58
 616 52 616 52 621.5 58 c 128,-1,59
 627 64 627 64 627 72 c 2,44,-1
EndSplineSet
EndChar

StartChar: parenleft
Encoding: 40 40 112
Width: 254
Flags: HMW
HStem: -81 21G<115 232 115 115> 671 20G<110 227 227 227>
VStem: 30 112<243 375.5 243 376.5>
LayerCount: 2
Fore
SplineSet
227 691 m 1,0,1
 142 524 142 524 142 308 c 0,2,3
 142 92 142 92 232 -81 c 1,4,-1
 115 -81 l 1,5,6
 30 107 30 107 30 308.5 c 0,7,8
 30 510 30 510 110 691 c 1,9,-1
 227 691 l 1,0,1
EndSplineSet
EndChar

StartChar: parenright
Encoding: 41 41 113
Width: 268
Flags: HMW
HStem: -81 21G<30 147 30 30> 671 20G<35 152 152 152>
VStem: 120 112<243 375.5>
LayerCount: 2
Fore
SplineSet
35 691 m 1,0,-1
 152 691 l 1,1,2
 232 510 232 510 232 308.5 c 0,3,4
 232 107 232 107 147 -81 c 1,5,-1
 30 -81 l 1,6,7
 120 92 120 92 120 308 c 0,8,9
 120 524 120 524 35 691 c 1,0,-1
EndSplineSet
EndChar

StartChar: registered
Encoding: 174 174 114
Width: 578
Flags: HMW
HStem: 29 66<95 452 122 452 122 464> 558 66<122 452 122 122>
VStem: 56 66<95 558 95 570 95 585> 187 75<153 295 153 348 348 449> 308 76<153 284 284 287> 452 66<95 558 558 558>
LayerCount: 2
Fore
SplineSet
464 624 m 2,0,1
 486 624 486 624 502 608 c 128,-1,2
 518 592 518 592 518 570 c 2,3,-1
 518 83 l 2,4,5
 518 60 518 60 502 44.5 c 128,-1,6
 486 29 486 29 464 29 c 2,7,-1
 110 29 l 2,8,9
 88 29 88 29 72 44.5 c 128,-1,10
 56 60 56 60 56 83 c 2,11,-1
 56 570 l 2,12,13
 56 592 56 592 72 608 c 128,-1,14
 88 624 88 624 110 624 c 2,15,-1
 464 624 l 2,0,1
452 95 m 1,16,-1
 452 558 l 1,17,-1
 122 558 l 1,18,-1
 122 95 l 1,19,-1
 452 95 l 1,16,-1
262 295 m 1,20,-1
 262 153 l 1,21,-1
 187 153 l 1,22,-1
 187 500 l 1,23,-1
 321 500 l 2,24,25
 387 500 387 500 387 429 c 2,26,-1
 387 389 l 2,27,28
 387 346 387 346 357 334 c 1,29,30
 384 324 384 324 384 290 c 2,31,-1
 384 153 l 1,32,-1
 308 153 l 1,33,-1
 308 284 l 2,34,35
 308 295 308 295 298 295 c 2,36,-1
 262 295 l 1,20,-1
262 449 m 1,37,-1
 262 348 l 1,38,-1
 302 348 l 2,39,40
 312 348 312 348 312 358 c 2,41,-1
 312 438 l 2,42,43
 312 449 312 449 302 449 c 2,44,-1
 262 449 l 1,37,-1
EndSplineSet
EndChar

StartChar: copyright
Encoding: 169 169 115
Width: 611
Flags: HMW
HStem: 0 71<101 484 130 484 130 497> 145 139<241 433 340 346> 355 137<340 346 346 373.5 268 433 340 340> 568 71<130 130 130 484>
VStem: 59 71<71 568 71 581 71 597> 184 93<236 404 404 415> 340 93<224 236 236 284 204.5 284 355 404> 484 71<71 568 568 568>
LayerCount: 2
Fore
SplineSet
433 355 m 1,0,-1
 340 355 l 1,1,-1
 340 415 l 2,2,3
 340 428 340 428 327 428 c 2,4,-1
 290 428 l 2,5,6
 277 428 277 428 277 415 c 2,7,-1
 277 224 l 2,8,9
 277 212 277 212 290 212 c 2,10,-1
 327 212 l 2,11,12
 332 212 332 212 336 215.5 c 128,-1,13
 340 219 340 219 340 224 c 2,14,-1
 340 284 l 1,15,-1
 433 284 l 1,16,-1
 433 236 l 2,17,18
 433 145 433 145 346 145 c 2,19,-1
 268 145 l 2,20,21
 184 145 184 145 184 236 c 2,22,-1
 184 404 l 2,23,24
 184 492 184 492 268 492 c 2,25,-1
 346 492 l 2,26,27
 433 492 433 492 433 404 c 2,28,-1
 433 355 l 1,0,-1
497 0 m 2,29,-1
 117 0 l 2,30,31
 93 0 93 0 76 17 c 128,-1,32
 59 34 59 34 59 58 c 2,33,-1
 59 581 l 2,34,35
 59 605 59 605 76 622 c 128,-1,36
 93 639 93 639 117 639 c 2,37,-1
 497 639 l 2,38,39
 521 639 521 639 538 622 c 128,-1,40
 555 605 555 605 555 581 c 2,41,-1
 555 58 l 2,42,43
 555 34 555 34 538 17 c 128,-1,44
 521 0 521 0 497 0 c 2,29,-1
130 568 m 1,45,-1
 130 71 l 1,46,-1
 484 71 l 1,47,-1
 484 568 l 1,48,-1
 130 568 l 1,45,-1
EndSplineSet
EndChar

StartChar: section
Encoding: 167 167 116
Width: 442
Flags: HMW
HStem: -168 91<125.5 265 184 265 265 270 184 275> -168 150<125.5 165 41 275> 30 103<122.5 265 172 265 172 265> 253 104<167 275 172 265> 405 150<272 311.5 162 396 162 272> 464 91<167 172 172 253>
VStem: 38 115<162 170 170 195 381 423 423 444> 284 115<-57 -36 -36 6 -82 10 -82 15.5 192 217 217 225>
LayerCount: 2
Fore
SplineSet
399 217 m 2,0,1
 399 144 399 144 361 111 c 1,2,3
 399 79 399 79 399 6 c 2,4,-1
 399 -36 l 2,5,6
 399 -168 399 -168 275 -168 c 2,7,-1
 165 -168 l 2,8,9
 41 -168 41 -168 41 -36 c 2,10,-1
 41 -18 l 1,11,-1
 165 -18 l 1,12,-1
 165 -57 l 2,13,14
 165 -65 165 -65 170.5 -71 c 128,-1,15
 176 -77 176 -77 184 -77 c 2,16,-1
 265 -77 l 2,17,18
 273 -77 273 -77 278.5 -71 c 128,-1,19
 284 -65 284 -65 284 -57 c 2,20,-1
 284 10 l 2,21,22
 284 18 284 18 278.5 24 c 128,-1,23
 273 30 273 30 265 30 c 2,24,-1
 162 30 l 2,25,26
 38 30 38 30 38 162 c 2,27,-1
 38 170 l 2,28,29
 38 243 38 243 76 275 c 1,30,31
 38 308 38 308 38 381 c 2,32,-1
 38 423 l 2,33,34
 38 555 38 555 162 555 c 2,35,-1
 272 555 l 2,36,37
 396 555 396 555 396 423 c 2,38,-1
 396 405 l 1,39,-1
 272 405 l 1,40,-1
 272 444 l 2,41,42
 272 452 272 452 266.5 458 c 128,-1,43
 261 464 261 464 253 464 c 2,44,-1
 172 464 l 2,45,46
 164 464 164 464 158.5 458 c 128,-1,47
 153 452 153 452 153 444 c 2,48,-1
 153 377 l 2,49,50
 153 369 153 369 158.5 363 c 128,-1,51
 164 357 164 357 172 357 c 2,52,-1
 275 357 l 2,53,54
 399 357 399 357 399 225 c 2,55,-1
 399 217 l 2,0,1
172 133 m 2,56,-1
 265 133 l 2,57,58
 273 133 273 133 278.5 139 c 128,-1,59
 284 145 284 145 284 153 c 2,60,-1
 284 233 l 2,61,62
 284 241 284 241 278.5 247 c 128,-1,63
 273 253 273 253 265 253 c 2,64,-1
 172 253 l 2,65,66
 164 253 164 253 158.5 247 c 128,-1,67
 153 241 153 241 153 233 c 2,68,-1
 153 153 l 2,69,70
 153 145 153 145 158.5 139 c 128,-1,71
 164 133 164 133 172 133 c 2,56,-1
EndSplineSet
EndChar

StartChar: germandbls
Encoding: 223 223 117
Width: 492
Flags: HMW
HStem: 0 106<33 92 33 217 33 92 247 309 309 314> 284 102 548 109<231 236 236 303>
VStem: 39 178<280 386 386 386> 92 125<106 280 280 280 386 525 525 528 0 571> 253 193<284 449 392 449> 322 124<423 449 449 525 423 528 423 533.5>
LayerCount: 2
Fore
SplineSet
405 341 m 1,0,1
 452 308 452 308 452 228 c 2,2,-1
 452 132 l 2,3,4
 452 0 452 0 328 0 c 2,5,-1
 247 0 l 1,6,-1
 247 106 l 1,7,-1
 309 106 l 2,8,9
 317 106 317 106 322.5 112 c 128,-1,10
 328 118 328 118 328 126 c 2,11,-1
 328 264 l 2,12,13
 328 272 328 272 322.5 278 c 128,-1,14
 317 284 317 284 309 284 c 2,15,-1
 253 284 l 1,16,-1
 253 392 l 1,17,-1
 303 392 l 2,18,19
 311 392 311 392 316.5 398 c 128,-1,20
 322 404 322 404 322 412 c 2,21,-1
 322 528 l 2,22,23
 322 536 322 536 316.5 542 c 128,-1,24
 311 548 311 548 303 548 c 2,25,-1
 236 548 l 2,26,27
 228 548 228 548 222.5 542 c 128,-1,28
 217 536 217 536 217 528 c 2,29,-1
 217 0 l 1,30,-1
 33 0 l 1,31,-1
 33 106 l 1,32,-1
 92 106 l 1,33,-1
 92 280 l 1,34,-1
 39 280 l 1,35,-1
 39 386 l 1,36,-1
 92 386 l 1,37,-1
 92 525 l 2,38,39
 92 657 92 657 216 657 c 2,40,-1
 322 657 l 2,41,42
 446 657 446 657 446 525 c 2,43,-1
 446 449 l 2,44,45
 446 371 446 371 405 341 c 1,0,1
EndSplineSet
EndChar

StartChar: onesuperior
Encoding: 185 185 118
Width: 180
Flags: HMW
HStem: 346 21G<57 121 57 57> 630 20G<57 121 121 121>
VStem: 57 64<346 650 346 650>
LayerCount: 2
Fore
SplineSet
121 650 m 1,0,-1
 121 346 l 1,1,-1
 57 346 l 1,2,-1
 57 650 l 1,3,-1
 121 650 l 1,0,-1
EndSplineSet
EndChar

StartChar: twosuperior
Encoding: 178 178 119
Width: 280
Flags: HMW
HStem: 347 54<117 218 117 218> 460 58<123.5 126 126 153 153 155 115 164> 570 85<112 116 54 164>
VStem: 54 63 162 60<527 593>
LayerCount: 2
Fore
SplineSet
117 451 m 2,0,-1
 117 401 l 1,1,-1
 218 401 l 1,2,-1
 218 347 l 1,3,-1
 57 347 l 1,4,-1
 57 456 l 2,5,6
 57 518 57 518 115 518 c 2,7,-1
 153 518 l 2,8,9
 162 518 162 518 162 527 c 2,10,-1
 162 594 l 2,11,12
 162 604 162 604 153 604 c 2,13,-1
 125 604 l 2,14,15
 116 604 116 604 116 594 c 2,16,-1
 116 570 l 1,17,-1
 54 570 l 1,18,-1
 54 593 l 2,19,20
 54 655 54 655 112 655 c 2,21,-1
 164 655 l 2,22,23
 222 655 222 655 222 593 c 2,24,-1
 222 522 l 2,25,26
 222 460 222 460 164 460 c 2,27,-1
 126 460 l 2,28,29
 117 460 117 460 117 451 c 2,0,-1
EndSplineSet
EndChar

StartChar: threesuperior
Encoding: 179 179 120
Width: 277
Flags: HMW
HStem: 342 21G<91 110 110 165> 635 20G<112 162 162 180.5>
VStem: 54 59<564 593 593 594 564 614.5> 162 58<540.5 553 553 593 540.5 594 540.5 597>
LayerCount: 2
Fore
SplineSet
201 502 m 1,0,1
 223 486 223 486 223 449 c 2,2,-1
 223 404 l 2,3,4
 223 342 223 342 165 342 c 2,5,-1
 110 342 l 2,6,7
 51 342 51 342 51 404 c 2,8,-1
 51 429 l 1,9,-1
 110 429 l 1,10,-1
 110 401 l 2,11,12
 110 392 110 392 119 392 c 2,13,-1
 156 392 l 2,14,15
 165 392 165 392 165 401 c 2,16,-1
 165 466 l 2,17,18
 165 475 165 475 156 475 c 2,19,-1
 108 475 l 1,20,-1
 108 526 l 1,21,-1
 153 526 l 2,22,23
 162 526 162 526 162 535 c 2,24,-1
 162 594 l 2,25,26
 162 604 162 604 153 604 c 2,27,-1
 122 604 l 2,28,29
 113 604 113 604 113 594 c 2,30,-1
 113 564 l 1,31,-1
 54 564 l 1,32,-1
 54 593 l 2,33,34
 54 655 54 655 112 655 c 2,35,-1
 162 655 l 2,36,37
 220 655 220 655 220 593 c 2,38,-1
 220 553 l 2,39,40
 220 515 220 515 201 502 c 1,0,1
EndSplineSet
EndChar

StartChar: circumflex
Encoding: 710 710 121
Width: 388
Flags: HMW
HStem: 486 106<119 135 36 269 253 269 119 352 253 253>
LayerCount: 2
Fore
SplineSet
352 486 m 1,0,-1
 253 486 l 1,1,-1
 194 542 l 1,2,-1
 135 486 l 1,3,-1
 36 486 l 1,4,-1
 119 592 l 1,5,-1
 269 592 l 1,6,-1
 352 486 l 1,0,-1
EndSplineSet
EndChar

StartChar: tilde
Encoding: 732 732 122
Width: 373
Flags: HMW
HStem: 473 80<235 272.5 239 244>
LayerCount: 2
Fore
SplineSet
235 473 m 1,0,1
 208 476 208 476 171.5 490 c 128,-1,2
 135 504 135 504 116 506 c 1,3,4
 75 506 75 506 50 475 c 1,5,-1
 23 477 l 1,6,-1
 24 486 l 1,7,8
 28 535 28 535 57 560 c 128,-1,9
 86 585 86 585 122.5 585 c 0,10,11
 159 585 159 585 200 569 c 128,-1,12
 241 553 241 553 268 553 c 0,13,14
 295 553 295 553 321 583 c 1,15,-1
 348 581 l 1,16,-1
 347 572 l 1,17,18
 343 524 343 524 313.5 498.5 c 128,-1,19
 284 473 284 473 244 473 c 2,20,-1
 235 473 l 1,0,1
EndSplineSet
EndChar

StartChar: ring
Encoding: 730 730 123
Width: 298
Flags: HMW
HStem: 483 163<92.5 179 115 179>
VStem: 44 71<558 571 571 591> 179 70<483 558 537 558 558 571 532 591 532 595>
LayerCount: 2
Fore
SplineSet
179 646 m 2,0,1
 249 646 249 646 249 571 c 2,2,-1
 249 558 l 2,3,4
 249 483 249 483 179 483 c 2,5,-1
 115 483 l 2,6,7
 44 483 44 483 44 558 c 2,8,-1
 44 571 l 2,9,10
 44 646 44 646 115 646 c 2,11,-1
 179 646 l 2,0,1
179 537 m 2,12,-1
 179 591 l 2,13,14
 179 597 179 597 175 601 c 128,-1,15
 171 605 171 605 166 605 c 2,16,-1
 128 605 l 2,17,18
 115 605 115 605 115 591 c 2,19,-1
 115 537 l 2,20,21
 115 532 115 532 119 527.5 c 128,-1,22
 123 523 123 523 128 523 c 2,23,-1
 166 523 l 2,24,25
 171 523 171 523 175 527.5 c 128,-1,26
 179 532 179 532 179 537 c 2,12,-1
EndSplineSet
EndChar

StartChar: grave
Encoding: 96 96 124
Width: 309
Flags: HMW
HStem: 483 102<159 159 159 175 28 258>
LayerCount: 2
Fore
SplineSet
159 483 m 1,0,-1
 28 585 l 1,1,-1
 175 585 l 1,2,-1
 258 483 l 1,3,-1
 159 483 l 1,0,-1
EndSplineSet
EndChar

StartChar: macron
Encoding: 175 175 125
Width: 329
Flags: HMW
HStem: 495 68<52 280 52 280>
LayerCount: 2
Fore
SplineSet
280 563 m 1,0,-1
 280 495 l 1,1,-1
 52 495 l 1,2,-1
 52 563 l 1,3,-1
 280 563 l 1,0,-1
EndSplineSet
EndChar

StartChar: acute
Encoding: 180 180 126
Width: 287
Flags: HMW
HStem: 483 102<111 127 28 258>
LayerCount: 2
Fore
SplineSet
258 585 m 1,0,-1
 127 483 l 1,1,-1
 28 483 l 1,2,-1
 111 585 l 1,3,-1
 258 585 l 1,0,-1
EndSplineSet
EndChar

StartChar: cedilla
Encoding: 184 184 127
Width: 318
Flags: HMW
HStem: -106 102<61 258 159 208>
LayerCount: 2
Fore
SplineSet
61 -106 m 1,0,-1
 159 -4 l 1,1,-1
 258 -4 l 1,2,-1
 208 -106 l 1,3,-1
 61 -106 l 1,0,-1
EndSplineSet
EndChar

StartChar: Agrave
Encoding: 192 192 128
Width: 485
Flags: HMW
HStem: 0 21G<50 190 50 50 291 431 291 291> 217 108<190 291 190 291> 562 95<204 209 209 272> 698 102<242 242 242 258 111 341>
VStem: 50 140<0 217 325 525 525 542> 291 140<0 217 217 217 325 525 0 542 0 547.5>
LayerCount: 2
Fore
SplineSet
307 657 m 2,0,1
 431 657 431 657 431 525 c 2,2,-1
 431 0 l 1,3,-1
 291 0 l 1,4,-1
 291 217 l 1,5,-1
 190 217 l 1,6,-1
 190 0 l 1,7,-1
 50 0 l 1,8,-1
 50 525 l 2,9,10
 50 657 50 657 174 657 c 2,11,-1
 307 657 l 2,0,1
190 325 m 1,12,-1
 291 325 l 1,13,-1
 291 542 l 2,14,15
 291 550 291 550 285.5 556 c 128,-1,16
 280 562 280 562 272 562 c 2,17,-1
 209 562 l 2,18,19
 201 562 201 562 195.5 556 c 128,-1,20
 190 550 190 550 190 542 c 2,21,-1
 190 325 l 1,12,-1
242 698 m 1,22,-1
 111 800 l 1,23,-1
 258 800 l 1,24,-1
 341 698 l 1,25,-1
 242 698 l 1,22,-1
EndSplineSet
EndChar

StartChar: Aacute
Encoding: 193 193 129
Width: 485
Flags: HMW
HStem: 0 21G<50 190 50 50 291 431 291 291> 217 108<190 291 190 291> 562 95<204 209 209 272> 698 102<223 239 140 370>
VStem: 50 140<0 217 325 525 525 542> 291 140<0 217 217 217 325 525 0 542 0 547.5>
LayerCount: 2
Fore
SplineSet
307 657 m 2,0,1
 431 657 431 657 431 525 c 2,2,-1
 431 0 l 1,3,-1
 291 0 l 1,4,-1
 291 217 l 1,5,-1
 190 217 l 1,6,-1
 190 0 l 1,7,-1
 50 0 l 1,8,-1
 50 525 l 2,9,10
 50 657 50 657 174 657 c 2,11,-1
 307 657 l 2,0,1
190 325 m 1,12,-1
 291 325 l 1,13,-1
 291 542 l 2,14,15
 291 550 291 550 285.5 556 c 128,-1,16
 280 562 280 562 272 562 c 2,17,-1
 209 562 l 2,18,19
 201 562 201 562 195.5 556 c 128,-1,20
 190 550 190 550 190 542 c 2,21,-1
 190 325 l 1,12,-1
370 800 m 1,22,-1
 239 698 l 1,23,-1
 140 698 l 1,24,-1
 223 800 l 1,25,-1
 370 800 l 1,22,-1
EndSplineSet
EndChar

StartChar: Acircumflex
Encoding: 194 194 130
Width: 485
Flags: HMW
HStem: 0 21G<50 190 50 50 291 431 291 291> 217 108<190 291 190 291> 562 95<204 209 209 272> 701 106<165 181 82 315 299 315 165 398 299 299>
VStem: 50 140<0 217 325 525 525 542> 291 140<0 217 217 217 325 525 0 542 0 547.5>
LayerCount: 2
Fore
SplineSet
307 657 m 2,0,1
 431 657 431 657 431 525 c 2,2,-1
 431 0 l 1,3,-1
 291 0 l 1,4,-1
 291 217 l 1,5,-1
 190 217 l 1,6,-1
 190 0 l 1,7,-1
 50 0 l 1,8,-1
 50 525 l 2,9,10
 50 657 50 657 174 657 c 2,11,-1
 307 657 l 2,0,1
190 325 m 1,12,-1
 291 325 l 1,13,-1
 291 542 l 2,14,15
 291 550 291 550 285.5 556 c 128,-1,16
 280 562 280 562 272 562 c 2,17,-1
 209 562 l 2,18,19
 201 562 201 562 195.5 556 c 128,-1,20
 190 550 190 550 190 542 c 2,21,-1
 190 325 l 1,12,-1
398 701 m 1,22,-1
 299 701 l 1,23,-1
 240 757 l 1,24,-1
 181 701 l 1,25,-1
 82 701 l 1,26,-1
 165 807 l 1,27,-1
 315 807 l 1,28,-1
 398 701 l 1,22,-1
EndSplineSet
EndChar

StartChar: Atilde
Encoding: 195 195 131
Width: 485
Flags: HMW
HStem: 0 21G<50 190 50 50 291 431 291 291> 217 108<190 291 190 291> 562 95<204 209 209 272> 688 80<292 329.5 296 301> 688 112<159 293.5 159 301>
VStem: 50 140<0 217 325 525 525 542> 291 140<0 217 217 217 325 525 0 542 0 547.5>
LayerCount: 2
Fore
SplineSet
307 657 m 2,0,1
 431 657 431 657 431 525 c 2,2,-1
 431 0 l 1,3,-1
 291 0 l 1,4,-1
 291 217 l 1,5,-1
 190 217 l 1,6,-1
 190 0 l 1,7,-1
 50 0 l 1,8,-1
 50 525 l 2,9,10
 50 657 50 657 174 657 c 2,11,-1
 307 657 l 2,0,1
190 325 m 1,12,-1
 291 325 l 1,13,-1
 291 542 l 2,14,15
 291 550 291 550 285.5 556 c 128,-1,16
 280 562 280 562 272 562 c 2,17,-1
 209 562 l 2,18,19
 201 562 201 562 195.5 556 c 128,-1,20
 190 550 190 550 190 542 c 2,21,-1
 190 325 l 1,12,-1
292 688 m 1,22,23
 265 691 265 691 228.5 705 c 128,-1,24
 192 719 192 719 173 721 c 1,25,26
 132 721 132 721 107 690 c 1,27,-1
 80 692 l 1,28,-1
 81 701 l 1,29,30
 85 750 85 750 114 775 c 128,-1,31
 143 800 143 800 179.5 800 c 0,32,33
 216 800 216 800 257 784 c 128,-1,34
 298 768 298 768 325 768 c 0,35,36
 352 768 352 768 378 798 c 1,37,-1
 405 796 l 1,38,-1
 404 787 l 1,39,40
 400 739 400 739 370.5 713.5 c 128,-1,41
 341 688 341 688 301 688 c 2,42,-1
 292 688 l 1,22,23
EndSplineSet
EndChar

StartChar: Adieresis
Encoding: 196 196 132
Width: 485
Flags: HMW
HStem: 0 21G<50 190 50 50 291 431 291 291> 217 108<190 291 190 291> 562 95<204 209 209 272> 695 114<143.5 175 305.5 337>
VStem: 50 140<0 217 325 525 525 542> 102 114<736 767.5> 264 114<736 767.5> 291 140<0 217 217 217 325 525 0 542 0 547.5>
LayerCount: 2
Fore
SplineSet
307 657 m 2,0,1
 431 657 431 657 431 525 c 2,2,-1
 431 0 l 1,3,-1
 291 0 l 1,4,-1
 291 217 l 1,5,-1
 190 217 l 1,6,-1
 190 0 l 1,7,-1
 50 0 l 1,8,-1
 50 525 l 2,9,10
 50 657 50 657 174 657 c 2,11,-1
 307 657 l 2,0,1
190 325 m 1,12,-1
 291 325 l 1,13,-1
 291 542 l 2,14,15
 291 550 291 550 285.5 556 c 128,-1,16
 280 562 280 562 272 562 c 2,17,-1
 209 562 l 2,18,19
 201 562 201 562 195.5 556 c 128,-1,20
 190 550 190 550 190 542 c 2,21,-1
 190 325 l 1,12,-1
199.5 792 m 128,-1,23
 216 775 216 775 216 751.5 c 128,-1,24
 216 728 216 728 199.5 711.5 c 128,-1,25
 183 695 183 695 159.5 695 c 128,-1,26
 136 695 136 695 119 711.5 c 128,-1,27
 102 728 102 728 102 751.5 c 128,-1,28
 102 775 102 775 119 792 c 128,-1,29
 136 809 136 809 159.5 809 c 128,-1,22
 183 809 183 809 199.5 792 c 128,-1,23
361.5 792 m 128,-1,31
 378 775 378 775 378 751.5 c 128,-1,32
 378 728 378 728 361.5 711.5 c 128,-1,33
 345 695 345 695 321.5 695 c 128,-1,34
 298 695 298 695 281 711.5 c 128,-1,35
 264 728 264 728 264 751.5 c 128,-1,36
 264 775 264 775 281 792 c 128,-1,37
 298 809 298 809 321.5 809 c 128,-1,30
 345 809 345 809 361.5 792 c 128,-1,31
EndSplineSet
EndChar

StartChar: Aring
Encoding: 197 197 133
Width: 485
Flags: HMW
HStem: 0 21G<50 190 50 50 291 431 291 291> 217 108<190 291 190 291> 562 95<204 209 209 272> 698 163<186.5 273 209 273>
VStem: 50 140<0 217 325 525 525 542> 138 71<773 786 786 806> 273 70<698 773 752 773 773 786 747 806 747 810> 291 140<0 217 217 217 325 525 0 542 0 547.5>
LayerCount: 2
Fore
SplineSet
307 657 m 2,0,1
 431 657 431 657 431 525 c 2,2,-1
 431 0 l 1,3,-1
 291 0 l 1,4,-1
 291 217 l 1,5,-1
 190 217 l 1,6,-1
 190 0 l 1,7,-1
 50 0 l 1,8,-1
 50 525 l 2,9,10
 50 657 50 657 174 657 c 2,11,-1
 307 657 l 2,0,1
190 325 m 1,12,-1
 291 325 l 1,13,-1
 291 542 l 2,14,15
 291 550 291 550 285.5 556 c 128,-1,16
 280 562 280 562 272 562 c 2,17,-1
 209 562 l 2,18,19
 201 562 201 562 195.5 556 c 128,-1,20
 190 550 190 550 190 542 c 2,21,-1
 190 325 l 1,12,-1
273 861 m 2,22,23
 343 861 343 861 343 786 c 2,24,-1
 343 773 l 2,25,26
 343 698 343 698 273 698 c 2,27,-1
 209 698 l 2,28,29
 138 698 138 698 138 773 c 2,30,-1
 138 786 l 2,31,32
 138 861 138 861 209 861 c 2,33,-1
 273 861 l 2,22,23
273 752 m 2,34,-1
 273 806 l 2,35,36
 273 812 273 812 269 816 c 128,-1,37
 265 820 265 820 260 820 c 2,38,-1
 222 820 l 2,39,40
 209 820 209 820 209 806 c 2,41,-1
 209 752 l 2,42,43
 209 747 209 747 213 742.5 c 128,-1,44
 217 738 217 738 222 738 c 2,45,-1
 260 738 l 2,46,47
 265 738 265 738 269 742.5 c 128,-1,48
 273 747 273 747 273 752 c 2,34,-1
EndSplineSet
EndChar

StartChar: AE
Encoding: 198 198 134
Width: 613
Flags: HMW
HStem: 0 116<431 583 431 583> 246 108<190 291 190 291> 263 103<431 573 431 573> 533 114<431 431 431 583>
VStem: 50 140<0 246 0 354 354 515 515 523> 291 140<116 246 246 246 366 533>
LayerCount: 2
Fore
SplineSet
431 533 m 1,0,-1
 431 366 l 1,1,-1
 573 366 l 1,2,-1
 573 263 l 1,3,-1
 431 263 l 1,4,-1
 431 116 l 1,5,-1
 583 116 l 1,6,-1
 583 0 l 1,7,-1
 291 0 l 1,8,-1
 291 246 l 1,9,-1
 190 246 l 1,10,-1
 190 0 l 1,11,-1
 50 0 l 1,12,-1
 50 515 l 2,13,14
 50 647 50 647 174 647 c 2,15,-1
 583 647 l 1,16,-1
 583 533 l 1,17,-1
 431 533 l 1,0,-1
209 543 m 2,18,19
 201 543 201 543 195.5 537 c 128,-1,20
 190 531 190 531 190 523 c 2,21,-1
 190 354 l 1,22,-1
 291 354 l 1,23,-1
 291 543 l 1,24,-1
 209 543 l 2,18,19
EndSplineSet
EndChar

StartChar: Ccedilla
Encoding: 199 199 135
Width: 458
Flags: HMW
HStem: -106 192<102 272 209 249> -10 216<134.5 424 174 424 296 296 296 300> 464 193<291 300 300 339.5 174 424 291 291> 562 95<204 209 209 272>
VStem: 50 140<122 525 525 542> 291 133<106 122 122 206 76 206 464 525>
LayerCount: 2
Fore
SplineSet
102 -106 m 1,0,-1
 194 -10 l 1,1,-1
 174 -10 l 2,2,3
 50 -10 50 -10 50 122 c 2,4,-1
 50 525 l 2,5,6
 50 657 50 657 174 657 c 2,7,-1
 300 657 l 2,8,9
 424 657 424 657 424 525 c 2,10,-1
 424 464 l 1,11,-1
 291 464 l 1,12,-1
 291 542 l 2,13,14
 291 550 291 550 285.5 556 c 128,-1,15
 280 562 280 562 272 562 c 2,16,-1
 209 562 l 2,17,18
 201 562 201 562 195.5 556 c 128,-1,19
 190 550 190 550 190 542 c 2,20,-1
 190 106 l 2,21,22
 190 98 190 98 195.5 92 c 128,-1,23
 201 86 201 86 209 86 c 2,24,-1
 272 86 l 2,25,26
 280 86 280 86 285.5 92 c 128,-1,27
 291 98 291 98 291 106 c 2,28,-1
 291 206 l 1,29,-1
 424 206 l 1,30,-1
 424 122 l 2,31,32
 424 -10 424 -10 300 -10 c 2,33,-1
 296 -10 l 1,34,-1
 249 -106 l 1,35,-1
 102 -106 l 1,0,-1
EndSplineSet
EndChar

StartChar: Egrave
Encoding: 200 200 136
Width: 376
Flags: HMW
HStem: 0 116<190 345 190 345> 271 110<190 335 190 335> 533 114<190 345 190 190> 698 102<184 184 184 200 53 283>
VStem: 50 140<116 116 116 271 381 533>
LayerCount: 2
Fore
SplineSet
190 116 m 1,0,-1
 345 116 l 1,1,-1
 345 0 l 1,2,-1
 50 0 l 1,3,-1
 50 647 l 1,4,-1
 345 647 l 1,5,-1
 345 533 l 1,6,-1
 190 533 l 1,7,-1
 190 381 l 1,8,-1
 335 381 l 1,9,-1
 335 271 l 1,10,-1
 190 271 l 1,11,-1
 190 116 l 1,0,-1
184 698 m 1,12,-1
 53 800 l 1,13,-1
 200 800 l 1,14,-1
 283 698 l 1,15,-1
 184 698 l 1,12,-1
EndSplineSet
EndChar

StartChar: Eacute
Encoding: 201 201 137
Width: 376
Flags: HMW
HStem: 0 116<190 345 190 345> 271 110<190 335 190 335> 533 114<190 345 190 190> 698 102<193 209 110 340>
VStem: 50 140<116 116 116 271 381 533>
LayerCount: 2
Fore
SplineSet
190 116 m 1,0,-1
 345 116 l 1,1,-1
 345 0 l 1,2,-1
 50 0 l 1,3,-1
 50 647 l 1,4,-1
 345 647 l 1,5,-1
 345 533 l 1,6,-1
 190 533 l 1,7,-1
 190 381 l 1,8,-1
 335 381 l 1,9,-1
 335 271 l 1,10,-1
 190 271 l 1,11,-1
 190 116 l 1,0,-1
340 800 m 1,12,-1
 209 698 l 1,13,-1
 110 698 l 1,14,-1
 193 800 l 1,15,-1
 340 800 l 1,12,-1
EndSplineSet
EndChar

StartChar: Ecircumflex
Encoding: 202 202 138
Width: 376
Flags: HMW
HStem: 0 116<190 345 190 345> 271 110<190 335 190 335> 533 114<190 345 190 190> 701 106<119 135 36 269 253 269 119 352 253 253>
VStem: 50 140<116 116 116 271 381 533>
LayerCount: 2
Fore
SplineSet
190 116 m 1,0,-1
 345 116 l 1,1,-1
 345 0 l 1,2,-1
 50 0 l 1,3,-1
 50 647 l 1,4,-1
 345 647 l 1,5,-1
 345 533 l 1,6,-1
 190 533 l 1,7,-1
 190 381 l 1,8,-1
 335 381 l 1,9,-1
 335 271 l 1,10,-1
 190 271 l 1,11,-1
 190 116 l 1,0,-1
352 701 m 1,12,-1
 253 701 l 1,13,-1
 194 757 l 1,14,-1
 135 701 l 1,15,-1
 36 701 l 1,16,-1
 119 807 l 1,17,-1
 269 807 l 1,18,-1
 352 701 l 1,12,-1
EndSplineSet
EndChar

StartChar: Edieresis
Encoding: 203 203 139
Width: 376
Flags: HMW
HStem: 0 116<190 345 190 345> 271 110<190 335 190 335> 533 114<190 345 190 190> 695 114<98.5 130 260.5 292>
VStem: 50 121<0 767.5 647 767.5> 50 140<116 116 116 271 381 533> 219 114<736 767.5>
LayerCount: 2
Fore
SplineSet
190 116 m 1,0,-1
 345 116 l 1,1,-1
 345 0 l 1,2,-1
 50 0 l 1,3,-1
 50 647 l 1,4,-1
 345 647 l 1,5,-1
 345 533 l 1,6,-1
 190 533 l 1,7,-1
 190 381 l 1,8,-1
 335 381 l 1,9,-1
 335 271 l 1,10,-1
 190 271 l 1,11,-1
 190 116 l 1,0,-1
154.5 792 m 128,-1,13
 171 775 171 775 171 751.5 c 128,-1,14
 171 728 171 728 154.5 711.5 c 128,-1,15
 138 695 138 695 114.5 695 c 128,-1,16
 91 695 91 695 74 711.5 c 128,-1,17
 57 728 57 728 57 751.5 c 128,-1,18
 57 775 57 775 74 792 c 128,-1,19
 91 809 91 809 114.5 809 c 128,-1,12
 138 809 138 809 154.5 792 c 128,-1,13
316.5 792 m 128,-1,21
 333 775 333 775 333 751.5 c 128,-1,22
 333 728 333 728 316.5 711.5 c 128,-1,23
 300 695 300 695 276.5 695 c 128,-1,24
 253 695 253 695 236 711.5 c 128,-1,25
 219 728 219 728 219 751.5 c 128,-1,26
 219 775 219 775 236 792 c 128,-1,27
 253 809 253 809 276.5 809 c 128,-1,20
 300 809 300 809 316.5 792 c 128,-1,21
EndSplineSet
EndChar

StartChar: Eth
Encoding: 208 208 140
Width: 503
Flags: HMW
HStem: 0 96<213 295 295 300 213 330> 280 87<10 73 10 73 213 263> 552 95<213 295 213 213>
VStem: 73 140<96 280 96 280 96 280 367 552> 314 140<116 132 132 515>
LayerCount: 2
Fore
SplineSet
330 647 m 2,0,1
 454 647 454 647 454 515 c 2,2,-1
 454 132 l 2,3,4
 454 0 454 0 330 0 c 2,5,-1
 73 0 l 1,6,-1
 73 280 l 1,7,-1
 10 280 l 1,8,-1
 10 367 l 1,9,-1
 73 367 l 1,10,-1
 73 647 l 1,11,-1
 330 647 l 2,0,1
314 116 m 2,12,-1
 314 532 l 2,13,14
 314 540 314 540 308.5 546 c 128,-1,15
 303 552 303 552 295 552 c 2,16,-1
 213 552 l 1,17,-1
 213 367 l 1,18,-1
 263 367 l 1,19,-1
 263 280 l 1,20,-1
 213 280 l 1,21,-1
 213 96 l 1,22,-1
 295 96 l 2,23,24
 303 96 303 96 308.5 102 c 128,-1,25
 314 108 314 108 314 116 c 2,12,-1
EndSplineSet
EndChar

StartChar: Igrave
Encoding: 204 204 141
Width: 244
Flags: HMW
HStem: 0 21G<50 190 50 50> 627 20G<50 190 190 190> 698 102<110 110 110 126 -21 209>
VStem: 50 140<0 647 0 647>
LayerCount: 2
Fore
SplineSet
190 647 m 1,0,-1
 190 0 l 1,1,-1
 50 0 l 1,2,-1
 50 647 l 1,3,-1
 190 647 l 1,0,-1
110 698 m 1,4,-1
 -21 800 l 1,5,-1
 126 800 l 1,6,-1
 209 698 l 1,7,-1
 110 698 l 1,4,-1
EndSplineSet
EndChar

StartChar: Iacute
Encoding: 205 205 142
Width: 244
Flags: HMW
HStem: 0 21G<50 190 50 50> 627 20G<50 190 190 190> 698 102<114 130 31 261>
VStem: 50 140<0 647 0 647>
LayerCount: 2
Fore
SplineSet
190 647 m 1,0,-1
 190 0 l 1,1,-1
 50 0 l 1,2,-1
 50 647 l 1,3,-1
 190 647 l 1,0,-1
261 800 m 1,4,-1
 130 698 l 1,5,-1
 31 698 l 1,6,-1
 114 800 l 1,7,-1
 261 800 l 1,4,-1
EndSplineSet
EndChar

StartChar: Icircumflex
Encoding: 206 206 143
Width: 244
Flags: HMW
HStem: 0 21G<50 190 50 50> 627 20G<50 190 190 190> 701 106<45 61 -38 195 179 195 45 278 179 179>
VStem: 50 140<0 647 0 647>
LayerCount: 2
Fore
SplineSet
190 647 m 1,0,-1
 190 0 l 1,1,-1
 50 0 l 1,2,-1
 50 647 l 1,3,-1
 190 647 l 1,0,-1
278 701 m 1,4,-1
 179 701 l 1,5,-1
 120 757 l 1,6,-1
 61 701 l 1,7,-1
 -38 701 l 1,8,-1
 45 807 l 1,9,-1
 195 807 l 1,10,-1
 278 701 l 1,4,-1
EndSplineSet
EndChar

StartChar: Idieresis
Encoding: 207 207 144
Width: 244
Flags: HMW
HStem: 0 21G<50 190 50 50> 627 20G<50 190 190 190> 695 114<23.5 55 185.5 217>
VStem: -18 114<736 767.5> 50 140<0 647 0 647> 144 114<736 767.5>
LayerCount: 2
Fore
SplineSet
190 647 m 1,0,-1
 190 0 l 1,1,-1
 50 0 l 1,2,-1
 50 647 l 1,3,-1
 190 647 l 1,0,-1
79.5 792 m 128,-1,5
 96 775 96 775 96 751.5 c 128,-1,6
 96 728 96 728 79.5 711.5 c 128,-1,7
 63 695 63 695 39.5 695 c 128,-1,8
 16 695 16 695 -1 711.5 c 128,-1,9
 -18 728 -18 728 -18 751.5 c 128,-1,10
 -18 775 -18 775 -1 792 c 128,-1,11
 16 809 16 809 39.5 809 c 128,-1,4
 63 809 63 809 79.5 792 c 128,-1,5
241.5 792 m 128,-1,13
 258 775 258 775 258 751.5 c 128,-1,14
 258 728 258 728 241.5 711.5 c 128,-1,15
 225 695 225 695 201.5 695 c 128,-1,16
 178 695 178 695 161 711.5 c 128,-1,17
 144 728 144 728 144 751.5 c 128,-1,18
 144 775 144 775 161 792 c 128,-1,19
 178 809 178 809 201.5 809 c 128,-1,12
 225 809 225 809 241.5 792 c 128,-1,13
EndSplineSet
EndChar

StartChar: Ntilde
Encoding: 209 209 145
Width: 465
Flags: HMW
HStem: 0 21G<49 189 49 49 281 421 281 281> 557 100<203 208 208 262> 688 80<282 319.5 286 291> 688 112<149 283.5 149 291>
VStem: 49 140<0 525 525 537 0 571> 281 140<0 525>
LayerCount: 2
Fore
SplineSet
421 0 m 1,0,-1
 281 0 l 1,1,-1
 281 537 l 2,2,3
 281 545 281 545 275.5 551 c 128,-1,4
 270 557 270 557 262 557 c 2,5,-1
 208 557 l 2,6,7
 200 557 200 557 194.5 551 c 128,-1,8
 189 545 189 545 189 537 c 2,9,-1
 189 0 l 1,10,-1
 49 0 l 1,11,-1
 49 525 l 2,12,13
 49 657 49 657 173 657 c 2,14,-1
 297 657 l 2,15,16
 421 657 421 657 421 525 c 2,17,-1
 421 0 l 1,0,-1
282 688 m 1,18,19
 255 691 255 691 218.5 705 c 128,-1,20
 182 719 182 719 163 721 c 1,21,22
 122 721 122 721 97 690 c 1,23,-1
 70 692 l 1,24,-1
 71 701 l 1,25,26
 75 750 75 750 104 775 c 128,-1,27
 133 800 133 800 169.5 800 c 0,28,29
 206 800 206 800 247 784 c 128,-1,30
 288 768 288 768 315 768 c 0,31,32
 342 768 342 768 368 798 c 1,33,-1
 395 796 l 1,34,-1
 394 787 l 1,35,36
 390 739 390 739 360.5 713.5 c 128,-1,37
 331 688 331 688 291 688 c 2,38,-1
 282 688 l 1,18,19
EndSplineSet
EndChar

StartChar: Ograve
Encoding: 210 210 146
Width: 484
Flags: HMW
HStem: -10 96<134.5 272 209 272 272 277 209 307> 562 95<204 209 209 272> 698 102<242 242 242 258 111 341>
VStem: 50 140<122 525 525 542> 291 140<106 122 122 525>
LayerCount: 2
Fore
SplineSet
431 525 m 2,0,-1
 431 122 l 2,1,2
 431 -10 431 -10 307 -10 c 2,3,-1
 174 -10 l 2,4,5
 50 -10 50 -10 50 122 c 2,6,-1
 50 525 l 2,7,8
 50 657 50 657 174 657 c 2,9,-1
 307 657 l 2,10,11
 431 657 431 657 431 525 c 2,0,-1
291 106 m 2,12,-1
 291 542 l 2,13,14
 291 550 291 550 285.5 556 c 128,-1,15
 280 562 280 562 272 562 c 2,16,-1
 209 562 l 2,17,18
 201 562 201 562 195.5 556 c 128,-1,19
 190 550 190 550 190 542 c 2,20,-1
 190 106 l 2,21,22
 190 98 190 98 195.5 92 c 128,-1,23
 201 86 201 86 209 86 c 2,24,-1
 272 86 l 2,25,26
 280 86 280 86 285.5 92 c 128,-1,27
 291 98 291 98 291 106 c 2,12,-1
242 698 m 1,28,-1
 111 800 l 1,29,-1
 258 800 l 1,30,-1
 341 698 l 1,31,-1
 242 698 l 1,28,-1
EndSplineSet
EndChar

StartChar: Oacute
Encoding: 211 211 147
Width: 484
Flags: HMW
HStem: -10 96<134.5 272 209 272 272 277 209 307> 562 95<204 209 209 272> 698 102<223 239 140 370>
VStem: 50 140<122 525 525 542> 291 140<106 122 122 525>
LayerCount: 2
Fore
SplineSet
431 525 m 2,0,-1
 431 122 l 2,1,2
 431 -10 431 -10 307 -10 c 2,3,-1
 174 -10 l 2,4,5
 50 -10 50 -10 50 122 c 2,6,-1
 50 525 l 2,7,8
 50 657 50 657 174 657 c 2,9,-1
 307 657 l 2,10,11
 431 657 431 657 431 525 c 2,0,-1
291 106 m 2,12,-1
 291 542 l 2,13,14
 291 550 291 550 285.5 556 c 128,-1,15
 280 562 280 562 272 562 c 2,16,-1
 209 562 l 2,17,18
 201 562 201 562 195.5 556 c 128,-1,19
 190 550 190 550 190 542 c 2,20,-1
 190 106 l 2,21,22
 190 98 190 98 195.5 92 c 128,-1,23
 201 86 201 86 209 86 c 2,24,-1
 272 86 l 2,25,26
 280 86 280 86 285.5 92 c 128,-1,27
 291 98 291 98 291 106 c 2,12,-1
370 800 m 1,28,-1
 239 698 l 1,29,-1
 140 698 l 1,30,-1
 223 800 l 1,31,-1
 370 800 l 1,28,-1
EndSplineSet
EndChar

StartChar: Ocircumflex
Encoding: 212 212 148
Width: 484
Flags: HMW
HStem: -10 96<134.5 272 209 272 272 277 209 307> 562 95<204 209 209 272> 701 106<165 181 82 315 299 315 165 398 299 299>
VStem: 50 140<122 525 525 542> 291 140<106 122 122 525>
LayerCount: 2
Fore
SplineSet
431 525 m 2,0,-1
 431 122 l 2,1,2
 431 -10 431 -10 307 -10 c 2,3,-1
 174 -10 l 2,4,5
 50 -10 50 -10 50 122 c 2,6,-1
 50 525 l 2,7,8
 50 657 50 657 174 657 c 2,9,-1
 307 657 l 2,10,11
 431 657 431 657 431 525 c 2,0,-1
291 106 m 2,12,-1
 291 542 l 2,13,14
 291 550 291 550 285.5 556 c 128,-1,15
 280 562 280 562 272 562 c 2,16,-1
 209 562 l 2,17,18
 201 562 201 562 195.5 556 c 128,-1,19
 190 550 190 550 190 542 c 2,20,-1
 190 106 l 2,21,22
 190 98 190 98 195.5 92 c 128,-1,23
 201 86 201 86 209 86 c 2,24,-1
 272 86 l 2,25,26
 280 86 280 86 285.5 92 c 128,-1,27
 291 98 291 98 291 106 c 2,12,-1
398 701 m 1,28,-1
 299 701 l 1,29,-1
 240 757 l 1,30,-1
 181 701 l 1,31,-1
 82 701 l 1,32,-1
 165 807 l 1,33,-1
 315 807 l 1,34,-1
 398 701 l 1,28,-1
EndSplineSet
EndChar

StartChar: Otilde
Encoding: 213 213 149
Width: 484
Flags: HMW
HStem: -10 96<134.5 272 209 272 272 277 209 307> 562 95<204 209 209 272> 688 80<291 328.5 295 300> 688 112<158 292.5 158 300>
VStem: 50 140<122 525 525 542> 291 140<106 122 122 525>
LayerCount: 2
Fore
SplineSet
431 525 m 2,0,-1
 431 122 l 2,1,2
 431 -10 431 -10 307 -10 c 2,3,-1
 174 -10 l 2,4,5
 50 -10 50 -10 50 122 c 2,6,-1
 50 525 l 2,7,8
 50 657 50 657 174 657 c 2,9,-1
 307 657 l 2,10,11
 431 657 431 657 431 525 c 2,0,-1
291 106 m 2,12,-1
 291 542 l 2,13,14
 291 550 291 550 285.5 556 c 128,-1,15
 280 562 280 562 272 562 c 2,16,-1
 209 562 l 2,17,18
 201 562 201 562 195.5 556 c 128,-1,19
 190 550 190 550 190 542 c 2,20,-1
 190 106 l 2,21,22
 190 98 190 98 195.5 92 c 128,-1,23
 201 86 201 86 209 86 c 2,24,-1
 272 86 l 2,25,26
 280 86 280 86 285.5 92 c 128,-1,27
 291 98 291 98 291 106 c 2,12,-1
291 688 m 1,28,29
 264 691 264 691 227.5 705 c 128,-1,30
 191 719 191 719 172 721 c 1,31,32
 131 721 131 721 106 690 c 1,33,-1
 79 692 l 1,34,-1
 80 701 l 1,35,36
 84 750 84 750 113 775 c 128,-1,37
 142 800 142 800 178.5 800 c 0,38,39
 215 800 215 800 256 784 c 128,-1,40
 297 768 297 768 324 768 c 0,41,42
 351 768 351 768 377 798 c 1,43,-1
 404 796 l 1,44,-1
 403 787 l 1,45,46
 399 739 399 739 369.5 713.5 c 128,-1,47
 340 688 340 688 300 688 c 2,48,-1
 291 688 l 1,28,29
EndSplineSet
EndChar

StartChar: Odieresis
Encoding: 214 214 150
Width: 484
Flags: HMW
HStem: -10 96<134.5 272 209 272 272 277 209 307> 562 95<204 209 209 272> 695 114<143.5 175 305.5 337>
VStem: 50 140<122 525 525 542> 102 114<736 767.5> 264 114<736 767.5> 291 140<106 122 122 525>
LayerCount: 2
Fore
SplineSet
431 525 m 2,0,-1
 431 122 l 2,1,2
 431 -10 431 -10 307 -10 c 2,3,-1
 174 -10 l 2,4,5
 50 -10 50 -10 50 122 c 2,6,-1
 50 525 l 2,7,8
 50 657 50 657 174 657 c 2,9,-1
 307 657 l 2,10,11
 431 657 431 657 431 525 c 2,0,-1
291 106 m 2,12,-1
 291 542 l 2,13,14
 291 550 291 550 285.5 556 c 128,-1,15
 280 562 280 562 272 562 c 2,16,-1
 209 562 l 2,17,18
 201 562 201 562 195.5 556 c 128,-1,19
 190 550 190 550 190 542 c 2,20,-1
 190 106 l 2,21,22
 190 98 190 98 195.5 92 c 128,-1,23
 201 86 201 86 209 86 c 2,24,-1
 272 86 l 2,25,26
 280 86 280 86 285.5 92 c 128,-1,27
 291 98 291 98 291 106 c 2,12,-1
199.5 792 m 128,-1,29
 216 775 216 775 216 751.5 c 128,-1,30
 216 728 216 728 199.5 711.5 c 128,-1,31
 183 695 183 695 159.5 695 c 128,-1,32
 136 695 136 695 119 711.5 c 128,-1,33
 102 728 102 728 102 751.5 c 128,-1,34
 102 775 102 775 119 792 c 128,-1,35
 136 809 136 809 159.5 809 c 128,-1,28
 183 809 183 809 199.5 792 c 128,-1,29
361.5 792 m 128,-1,37
 378 775 378 775 378 751.5 c 128,-1,38
 378 728 378 728 361.5 711.5 c 128,-1,39
 345 695 345 695 321.5 695 c 128,-1,40
 298 695 298 695 281 711.5 c 128,-1,41
 264 728 264 728 264 751.5 c 128,-1,42
 264 775 264 775 281 792 c 128,-1,43
 298 809 298 809 321.5 809 c 128,-1,36
 345 809 345 809 361.5 792 c 128,-1,37
EndSplineSet
EndChar

StartChar: Oslash
Encoding: 216 216 151
Width: 484
Flags: HMW
HStem: -75 21G<116 116> -11 96<168.5 272 209 272 272 277 209 307> 561 95<204 209 209 272> 700 20G<365 365>
VStem: 50 140<286 524 524 541> 291 140<105 121 121 360 360 360>
LayerCount: 2
Fore
SplineSet
398 625 m 1,0,1
 431 592 431 592 431 524 c 2,2,-1
 431 121 l 2,3,4
 431 -11 431 -11 307 -11 c 2,5,-1
 174 -11 l 2,6,7
 157 -11 157 -11 142 -8 c 1,8,-1
 116 -75 l 1,9,-1
 55 -50 l 1,10,-1
 83 20 l 1,11,12
 50 51 50 51 50 121 c 2,13,-1
 50 524 l 2,14,15
 50 656 50 656 174 656 c 2,16,-1
 307 656 l 2,17,18
 318 656 318 656 338 654 c 1,19,-1
 365 720 l 1,20,-1
 426 695 l 1,21,-1
 398 625 l 1,0,1
190 541 m 2,22,-1
 190 286 l 1,23,-1
 291 536 l 1,24,-1
 291 541 l 2,25,26
 291 549 291 549 285.5 555 c 128,-1,27
 280 561 280 561 272 561 c 2,28,-1
 209 561 l 2,29,30
 201 561 201 561 195.5 555 c 128,-1,31
 190 549 190 549 190 541 c 2,22,-1
272 85 m 2,32,33
 280 85 280 85 285.5 91 c 128,-1,34
 291 97 291 97 291 105 c 2,35,-1
 291 360 l 1,36,-1
 190 109 l 1,37,-1
 190 105 l 2,38,39
 190 97 190 97 195.5 91 c 128,-1,40
 201 85 201 85 209 85 c 2,41,-1
 272 85 l 2,32,33
EndSplineSet
EndChar

StartChar: Ugrave
Encoding: 217 217 152
Width: 467
Flags: HMW
HStem: -10 100<133.5 262 208 262 262 267 208 297> 627 20G<49 189 189 189 281 421 421 421> 698 102<222 222 222 238 91 321>
VStem: 49 140<122 647> 281 140<110 122 122 647>
LayerCount: 2
Fore
SplineSet
281 647 m 1,0,-1
 421 647 l 1,1,-1
 421 122 l 2,2,3
 421 -10 421 -10 297 -10 c 2,4,-1
 173 -10 l 2,5,6
 49 -10 49 -10 49 122 c 2,7,-1
 49 647 l 1,8,-1
 189 647 l 1,9,-1
 189 110 l 2,10,11
 189 102 189 102 194.5 96 c 128,-1,12
 200 90 200 90 208 90 c 2,13,-1
 262 90 l 2,14,15
 270 90 270 90 275.5 96 c 128,-1,16
 281 102 281 102 281 110 c 2,17,-1
 281 647 l 1,0,-1
222 698 m 1,18,-1
 91 800 l 1,19,-1
 238 800 l 1,20,-1
 321 698 l 1,21,-1
 222 698 l 1,18,-1
EndSplineSet
EndChar

StartChar: Thorn
Encoding: 222 222 153
Width: 456
Flags: HMW
HStem: 0 21G<49 189 49 49> 116 96<189 267 267 272 189 302 189 267> 413 96<189 267 189 302> 627 20G<49 189 189 189>
VStem: 49 140<0 116 0 212 212 413 509 647> 286 140<232 248 248 377 202 393>
LayerCount: 2
Fore
SplineSet
302 509 m 2,0,1
 426 509 426 509 426 377 c 2,2,-1
 426 248 l 2,3,4
 426 116 426 116 302 116 c 2,5,-1
 189 116 l 1,6,-1
 189 0 l 1,7,-1
 49 0 l 1,8,-1
 49 647 l 1,9,-1
 189 647 l 1,10,-1
 189 509 l 1,11,-1
 302 509 l 2,0,1
286 232 m 2,12,-1
 286 393 l 2,13,14
 286 401 286 401 280.5 407 c 128,-1,15
 275 413 275 413 267 413 c 2,16,-1
 189 413 l 1,17,-1
 189 212 l 1,18,-1
 267 212 l 2,19,20
 275 212 275 212 280.5 218 c 128,-1,21
 286 224 286 224 286 232 c 2,12,-1
EndSplineSet
EndChar

StartChar: Uacute
Encoding: 218 218 154
Width: 467
Flags: HMW
HStem: -10 100<133.5 262 208 262 262 267 208 297> 627 20G<49 189 189 189 281 421 421 421> 698 102<232 248 149 379>
VStem: 49 140<122 647> 281 140<110 122 122 647>
LayerCount: 2
Fore
SplineSet
281 647 m 1,0,-1
 421 647 l 1,1,-1
 421 122 l 2,2,3
 421 -10 421 -10 297 -10 c 2,4,-1
 173 -10 l 2,5,6
 49 -10 49 -10 49 122 c 2,7,-1
 49 647 l 1,8,-1
 189 647 l 1,9,-1
 189 110 l 2,10,11
 189 102 189 102 194.5 96 c 128,-1,12
 200 90 200 90 208 90 c 2,13,-1
 262 90 l 2,14,15
 270 90 270 90 275.5 96 c 128,-1,16
 281 102 281 102 281 110 c 2,17,-1
 281 647 l 1,0,-1
379 800 m 1,18,-1
 248 698 l 1,19,-1
 149 698 l 1,20,-1
 232 800 l 1,21,-1
 379 800 l 1,18,-1
EndSplineSet
EndChar

StartChar: Ucircumflex
Encoding: 219 219 155
Width: 467
Flags: HMW
HStem: -10 100<133.5 262 208 262 262 267 208 297> 627 20G<49 189 189 189 281 421 421 421> 701 106<160 176 77 310 294 310 160 393 294 294>
VStem: 49 140<122 647> 281 140<110 122 122 647>
LayerCount: 2
Fore
SplineSet
281 647 m 1,0,-1
 421 647 l 1,1,-1
 421 122 l 2,2,3
 421 -10 421 -10 297 -10 c 2,4,-1
 173 -10 l 2,5,6
 49 -10 49 -10 49 122 c 2,7,-1
 49 647 l 1,8,-1
 189 647 l 1,9,-1
 189 110 l 2,10,11
 189 102 189 102 194.5 96 c 128,-1,12
 200 90 200 90 208 90 c 2,13,-1
 262 90 l 2,14,15
 270 90 270 90 275.5 96 c 128,-1,16
 281 102 281 102 281 110 c 2,17,-1
 281 647 l 1,0,-1
393 701 m 1,18,-1
 294 701 l 1,19,-1
 235 757 l 1,20,-1
 176 701 l 1,21,-1
 77 701 l 1,22,-1
 160 807 l 1,23,-1
 310 807 l 1,24,-1
 393 701 l 1,18,-1
EndSplineSet
EndChar

StartChar: Udieresis
Encoding: 220 220 156
Width: 467
Flags: HMW
HStem: -10 100<133.5 262 208 262 262 267 208 297> 627 20G<49 189 189 189 281 421 421 421> 695 114<138.5 170 300.5 332>
VStem: 49 140<122 647> 97 114<736 767.5> 259 114<736 767.5> 281 140<110 122 122 647>
LayerCount: 2
Fore
SplineSet
281 647 m 1,0,-1
 421 647 l 1,1,-1
 421 122 l 2,2,3
 421 -10 421 -10 297 -10 c 2,4,-1
 173 -10 l 2,5,6
 49 -10 49 -10 49 122 c 2,7,-1
 49 647 l 1,8,-1
 189 647 l 1,9,-1
 189 110 l 2,10,11
 189 102 189 102 194.5 96 c 128,-1,12
 200 90 200 90 208 90 c 2,13,-1
 262 90 l 2,14,15
 270 90 270 90 275.5 96 c 128,-1,16
 281 102 281 102 281 110 c 2,17,-1
 281 647 l 1,0,-1
194.5 792 m 128,-1,19
 211 775 211 775 211 751.5 c 128,-1,20
 211 728 211 728 194.5 711.5 c 128,-1,21
 178 695 178 695 154.5 695 c 128,-1,22
 131 695 131 695 114 711.5 c 128,-1,23
 97 728 97 728 97 751.5 c 128,-1,24
 97 775 97 775 114 792 c 128,-1,25
 131 809 131 809 154.5 809 c 128,-1,18
 178 809 178 809 194.5 792 c 128,-1,19
356.5 792 m 128,-1,27
 373 775 373 775 373 751.5 c 128,-1,28
 373 728 373 728 356.5 711.5 c 128,-1,29
 340 695 340 695 316.5 695 c 128,-1,30
 293 695 293 695 276 711.5 c 128,-1,31
 259 728 259 728 259 751.5 c 128,-1,32
 259 775 259 775 276 792 c 128,-1,33
 293 809 293 809 316.5 809 c 128,-1,26
 340 809 340 809 356.5 792 c 128,-1,27
EndSplineSet
EndChar

StartChar: Yacute
Encoding: 221 221 157
Width: 435
Flags: HMW
HStem: 0 21G<146 286 146 146> 627 20G<7 139 139 139 293 425 425 425> 698 102<200 216 117 347>
VStem: 146 140<0 236 0 236>
LayerCount: 2
Fore
SplineSet
425 647 m 1,0,-1
 286 236 l 1,1,-1
 286 0 l 1,2,-1
 146 0 l 1,3,-1
 146 236 l 1,4,-1
 7 647 l 1,5,-1
 139 647 l 1,6,-1
 216 377 l 1,7,-1
 293 647 l 1,8,-1
 425 647 l 1,0,-1
347 800 m 1,9,-1
 216 698 l 1,10,-1
 117 698 l 1,11,-1
 200 800 l 1,12,-1
 347 800 l 1,9,-1
EndSplineSet
EndChar

StartChar: agrave
Encoding: 224 224 158
Width: 452
Flags: HMW
HStem: -10 96<129.5 253 169 253> 0 21G<293 406 293 293> 402 96<193 198 198 213.5 169 253> 468 20G<293 406 406 406> 545 102<222 222 222 238 91 321>
VStem: 45 134<122 366 366 382> 272 134<106 382 382 387.5> 293 113<0 36 36 36 452 488 0 488>
LayerCount: 2
Fore
SplineSet
293 488 m 1,0,-1
 406 488 l 1,1,-1
 406 0 l 1,2,-1
 293 0 l 1,3,-1
 293 36 l 1,4,5
 262 -10 262 -10 190 -10 c 2,6,-1
 169 -10 l 2,7,8
 45 -10 45 -10 45 122 c 2,9,-1
 45 366 l 2,10,11
 45 498 45 498 169 498 c 2,12,-1
 190 498 l 2,13,14
 262 498 262 498 293 452 c 1,15,-1
 293 488 l 1,0,-1
272 106 m 2,16,-1
 272 382 l 2,17,18
 272 390 272 390 266.5 396 c 128,-1,19
 261 402 261 402 253 402 c 2,20,-1
 198 402 l 2,21,22
 190 402 190 402 184.5 396 c 128,-1,23
 179 390 179 390 179 382 c 2,24,-1
 179 106 l 2,25,26
 179 98 179 98 184.5 92 c 128,-1,27
 190 86 190 86 198 86 c 2,28,-1
 253 86 l 2,29,30
 261 86 261 86 266.5 92 c 128,-1,31
 272 98 272 98 272 106 c 2,16,-1
222 545 m 1,32,-1
 91 647 l 1,33,-1
 238 647 l 1,34,-1
 321 545 l 1,35,-1
 222 545 l 1,32,-1
EndSplineSet
EndChar

StartChar: aacute
Encoding: 225 225 159
Width: 452
Flags: HMW
HStem: -10 96<129.5 253 169 253> 0 21G<293 406 293 293> 402 96<193 198 198 213.5 169 253> 468 20G<293 406 406 406> 545 102<216 232 133 363>
VStem: 45 134<122 366 366 382> 272 134<106 382 382 387.5> 293 113<0 36 36 36 452 488 0 488>
LayerCount: 2
Fore
SplineSet
293 488 m 1,0,-1
 406 488 l 1,1,-1
 406 0 l 1,2,-1
 293 0 l 1,3,-1
 293 36 l 1,4,5
 262 -10 262 -10 190 -10 c 2,6,-1
 169 -10 l 2,7,8
 45 -10 45 -10 45 122 c 2,9,-1
 45 366 l 2,10,11
 45 498 45 498 169 498 c 2,12,-1
 190 498 l 2,13,14
 262 498 262 498 293 452 c 1,15,-1
 293 488 l 1,0,-1
272 106 m 2,16,-1
 272 382 l 2,17,18
 272 390 272 390 266.5 396 c 128,-1,19
 261 402 261 402 253 402 c 2,20,-1
 198 402 l 2,21,22
 190 402 190 402 184.5 396 c 128,-1,23
 179 390 179 390 179 382 c 2,24,-1
 179 106 l 2,25,26
 179 98 179 98 184.5 92 c 128,-1,27
 190 86 190 86 198 86 c 2,28,-1
 253 86 l 2,29,30
 261 86 261 86 266.5 92 c 128,-1,31
 272 98 272 98 272 106 c 2,16,-1
363 647 m 1,32,-1
 232 545 l 1,33,-1
 133 545 l 1,34,-1
 216 647 l 1,35,-1
 363 647 l 1,32,-1
EndSplineSet
EndChar

StartChar: acircumflex
Encoding: 226 226 160
Width: 452
Flags: HMW
HStem: -10 96<129.5 253 169 253> 0 21G<293 406 293 293> 402 96<193 198 198 213.5 169 253> 468 20G<293 406 406 406> 541 106<150 166 67 300 284 300 150 383 284 284>
VStem: 45 134<122 366 366 382> 272 134<106 382 382 387.5> 293 113<0 36 36 36 452 488 0 488>
LayerCount: 2
Fore
SplineSet
293 488 m 1,0,-1
 406 488 l 1,1,-1
 406 0 l 1,2,-1
 293 0 l 1,3,-1
 293 36 l 1,4,5
 262 -10 262 -10 190 -10 c 2,6,-1
 169 -10 l 2,7,8
 45 -10 45 -10 45 122 c 2,9,-1
 45 366 l 2,10,11
 45 498 45 498 169 498 c 2,12,-1
 190 498 l 2,13,14
 262 498 262 498 293 452 c 1,15,-1
 293 488 l 1,0,-1
272 106 m 2,16,-1
 272 382 l 2,17,18
 272 390 272 390 266.5 396 c 128,-1,19
 261 402 261 402 253 402 c 2,20,-1
 198 402 l 2,21,22
 190 402 190 402 184.5 396 c 128,-1,23
 179 390 179 390 179 382 c 2,24,-1
 179 106 l 2,25,26
 179 98 179 98 184.5 92 c 128,-1,27
 190 86 190 86 198 86 c 2,28,-1
 253 86 l 2,29,30
 261 86 261 86 266.5 92 c 128,-1,31
 272 98 272 98 272 106 c 2,16,-1
383 541 m 1,32,-1
 284 541 l 1,33,-1
 225 597 l 1,34,-1
 166 541 l 1,35,-1
 67 541 l 1,36,-1
 150 647 l 1,37,-1
 300 647 l 1,38,-1
 383 541 l 1,32,-1
EndSplineSet
EndChar

StartChar: atilde
Encoding: 227 227 161
Width: 452
Flags: HMW
HStem: -10 96<129.5 253 169 253> 0 21G<293 406 293 293> 402 96<193 198 198 213.5 169 253> 468 20G<293 406 406 406> 535 80<279 316.5 283 288> 535 112<146 280.5 146 288>
VStem: 45 134<122 366 366 382> 272 134<106 382 382 387.5> 293 113<0 36 36 36 452 488 0 488>
LayerCount: 2
Fore
SplineSet
293 488 m 1,0,-1
 406 488 l 1,1,-1
 406 0 l 1,2,-1
 293 0 l 1,3,-1
 293 36 l 1,4,5
 262 -10 262 -10 190 -10 c 2,6,-1
 169 -10 l 2,7,8
 45 -10 45 -10 45 122 c 2,9,-1
 45 366 l 2,10,11
 45 498 45 498 169 498 c 2,12,-1
 190 498 l 2,13,14
 262 498 262 498 293 452 c 1,15,-1
 293 488 l 1,0,-1
272 106 m 2,16,-1
 272 382 l 2,17,18
 272 390 272 390 266.5 396 c 128,-1,19
 261 402 261 402 253 402 c 2,20,-1
 198 402 l 2,21,22
 190 402 190 402 184.5 396 c 128,-1,23
 179 390 179 390 179 382 c 2,24,-1
 179 106 l 2,25,26
 179 98 179 98 184.5 92 c 128,-1,27
 190 86 190 86 198 86 c 2,28,-1
 253 86 l 2,29,30
 261 86 261 86 266.5 92 c 128,-1,31
 272 98 272 98 272 106 c 2,16,-1
279 535 m 1,32,33
 252 538 252 538 215.5 552 c 128,-1,34
 179 566 179 566 160 568 c 1,35,36
 119 568 119 568 94 537 c 1,37,-1
 67 539 l 1,38,-1
 68 548 l 1,39,40
 72 597 72 597 101 622 c 128,-1,41
 130 647 130 647 166.5 647 c 0,42,43
 203 647 203 647 244 631 c 128,-1,44
 285 615 285 615 312 615 c 0,45,46
 339 615 339 615 365 645 c 1,47,-1
 392 643 l 1,48,-1
 391 634 l 1,49,50
 387 586 387 586 357.5 560.5 c 128,-1,51
 328 535 328 535 288 535 c 2,52,-1
 279 535 l 1,32,33
EndSplineSet
EndChar

StartChar: adieresis
Encoding: 228 228 162
Width: 452
Flags: HMW
HStem: -10 96<129.5 253 169 253> 0 21G<293 406 293 293> 402 96<193 198 198 213.5 169 253> 468 20G<293 406 406 406> 543 114<130.5 162 292.5 324>
VStem: 45 134<122 366 366 382> 89 114<584 615.5> 251 114<584 615.5> 272 134<106 382 382 387.5> 293 113<0 36 36 36 452 488 0 488>
LayerCount: 2
Fore
SplineSet
293 488 m 1,0,-1
 406 488 l 1,1,-1
 406 0 l 1,2,-1
 293 0 l 1,3,-1
 293 36 l 1,4,5
 262 -10 262 -10 190 -10 c 2,6,-1
 169 -10 l 2,7,8
 45 -10 45 -10 45 122 c 2,9,-1
 45 366 l 2,10,11
 45 498 45 498 169 498 c 2,12,-1
 190 498 l 2,13,14
 262 498 262 498 293 452 c 1,15,-1
 293 488 l 1,0,-1
272 106 m 2,16,-1
 272 382 l 2,17,18
 272 390 272 390 266.5 396 c 128,-1,19
 261 402 261 402 253 402 c 2,20,-1
 198 402 l 2,21,22
 190 402 190 402 184.5 396 c 128,-1,23
 179 390 179 390 179 382 c 2,24,-1
 179 106 l 2,25,26
 179 98 179 98 184.5 92 c 128,-1,27
 190 86 190 86 198 86 c 2,28,-1
 253 86 l 2,29,30
 261 86 261 86 266.5 92 c 128,-1,31
 272 98 272 98 272 106 c 2,16,-1
186.5 640 m 128,-1,33
 203 623 203 623 203 599.5 c 128,-1,34
 203 576 203 576 186.5 559.5 c 128,-1,35
 170 543 170 543 146.5 543 c 128,-1,36
 123 543 123 543 106 559.5 c 128,-1,37
 89 576 89 576 89 599.5 c 128,-1,38
 89 623 89 623 106 640 c 128,-1,39
 123 657 123 657 146.5 657 c 128,-1,32
 170 657 170 657 186.5 640 c 128,-1,33
348.5 640 m 128,-1,41
 365 623 365 623 365 599.5 c 128,-1,42
 365 576 365 576 348.5 559.5 c 128,-1,43
 332 543 332 543 308.5 543 c 128,-1,44
 285 543 285 543 268 559.5 c 128,-1,45
 251 576 251 576 251 599.5 c 128,-1,46
 251 623 251 623 268 640 c 128,-1,47
 285 657 285 657 308.5 657 c 128,-1,40
 332 657 332 657 348.5 640 c 128,-1,41
EndSplineSet
EndChar

StartChar: aring
Encoding: 229 229 163
Width: 452
Flags: HMW
HStem: -10 96<129.5 253 169 253> 0 21G<293 406 293 293> 402 96<193 198 198 213.5 169 253> 468 20G<293 406 406 406> 534 163<168.5 255 191 255> 636 20G<200.5 204 204 242>
VStem: 45 134<122 366 366 382> 120 71<609 622 622 642> 255 70<534 609 588 609 609 622 583 642 583 646> 272 134<106 382 382 387.5> 293 113<0 36 36 36 452 488 0 488>
LayerCount: 2
Fore
SplineSet
293 488 m 1,0,-1
 406 488 l 1,1,-1
 406 0 l 1,2,-1
 293 0 l 1,3,-1
 293 36 l 1,4,5
 262 -10 262 -10 190 -10 c 2,6,-1
 169 -10 l 2,7,8
 45 -10 45 -10 45 122 c 2,9,-1
 45 366 l 2,10,11
 45 498 45 498 169 498 c 2,12,-1
 190 498 l 2,13,14
 262 498 262 498 293 452 c 1,15,-1
 293 488 l 1,0,-1
272 106 m 2,16,-1
 272 382 l 2,17,18
 272 390 272 390 266.5 396 c 128,-1,19
 261 402 261 402 253 402 c 2,20,-1
 198 402 l 2,21,22
 190 402 190 402 184.5 396 c 128,-1,23
 179 390 179 390 179 382 c 2,24,-1
 179 106 l 2,25,26
 179 98 179 98 184.5 92 c 128,-1,27
 190 86 190 86 198 86 c 2,28,-1
 253 86 l 2,29,30
 261 86 261 86 266.5 92 c 128,-1,31
 272 98 272 98 272 106 c 2,16,-1
255 697 m 2,32,33
 325 697 325 697 325 622 c 2,34,-1
 325 609 l 2,35,36
 325 534 325 534 255 534 c 2,37,-1
 191 534 l 2,38,39
 120 534 120 534 120 609 c 2,40,-1
 120 622 l 2,41,42
 120 697 120 697 191 697 c 2,43,-1
 255 697 l 2,32,33
255 588 m 2,44,-1
 255 642 l 2,45,46
 255 648 255 648 251 652 c 128,-1,47
 247 656 247 656 242 656 c 2,48,-1
 204 656 l 2,49,50
 191 656 191 656 191 642 c 2,51,-1
 191 588 l 2,52,53
 191 583 191 583 195 578.5 c 128,-1,54
 199 574 199 574 204 574 c 2,55,-1
 242 574 l 2,56,57
 247 574 247 574 251 578.5 c 128,-1,58
 255 583 255 583 255 588 c 2,44,-1
EndSplineSet
EndChar

StartChar: ae
Encoding: 230 230 164
Width: 677
Flags: HMW
HStem: -10 96<423 441 441 488 488 493 423 507> -10 170<417.5 631 441 631> 186 92<193 198 198 272> 208 88<404 497 404 631 404 497> 328 170<53 235 53 235> 402 96<189 194 194 235 235 253>
VStem: 53 122<328 366 366 382 328 412> 272 132<102 106 106 186 186 186 296 382 382 386> 497 134<296 366>
LayerCount: 2
Fore
SplineSet
631 208 m 1,0,-1
 404 208 l 1,1,-1
 404 106 l 2,2,3
 404 98 404 98 409.5 92 c 128,-1,4
 415 86 415 86 423 86 c 2,5,-1
 488 86 l 2,6,7
 496 86 496 86 501.5 92 c 128,-1,8
 507 98 507 98 507 106 c 2,9,-1
 507 160 l 1,10,-1
 631 160 l 1,11,-1
 631 122 l 2,12,13
 631 -10 631 -10 507 -10 c 2,14,-1
 441 -10 l 2,15,16
 368 -10 368 -10 338 36 c 1,17,18
 309 -10 309 -10 235 -10 c 2,19,-1
 169 -10 l 2,20,21
 45 -10 45 -10 45 122 c 2,22,-1
 45 146 l 2,23,24
 45 278 45 278 169 278 c 2,25,-1
 272 278 l 1,26,-1
 272 382 l 2,27,28
 272 390 272 390 266.5 396 c 128,-1,29
 261 402 261 402 253 402 c 2,30,-1
 194 402 l 2,31,32
 186 402 186 402 180.5 396 c 128,-1,33
 175 390 175 390 175 382 c 2,34,-1
 175 328 l 1,35,-1
 53 328 l 1,36,-1
 53 366 l 2,37,38
 53 498 53 498 177 498 c 2,39,-1
 235 498 l 2,40,41
 309 498 309 498 338 452 c 1,42,43
 368 498 368 498 441 498 c 2,44,-1
 507 498 l 2,45,46
 631 498 631 498 631 366 c 2,47,-1
 631 208 l 1,0,-1
404 386 m 2,48,-1
 404 296 l 1,49,-1
 497 296 l 1,50,-1
 497 386 l 2,51,52
 497 394 497 394 491.5 400 c 128,-1,53
 486 406 486 406 478 406 c 2,54,-1
 423 406 l 2,55,56
 415 406 415 406 409.5 400 c 128,-1,57
 404 394 404 394 404 386 c 2,48,-1
253 82 m 2,58,59
 261 82 261 82 266.5 88 c 128,-1,60
 272 94 272 94 272 102 c 2,61,-1
 272 186 l 1,62,-1
 198 186 l 2,63,64
 190 186 190 186 184.5 180 c 128,-1,65
 179 174 179 174 179 166 c 2,66,-1
 179 102 l 2,67,68
 179 94 179 94 184.5 88 c 128,-1,69
 190 82 190 82 198 82 c 2,70,-1
 253 82 l 2,58,59
EndSplineSet
EndChar

StartChar: ccedilla
Encoding: 231 231 165
Width: 446
Flags: HMW
HStem: -106 192<89 253 198 236> -10 202<129.5 406 169 406 283 283> 296 202<272 282 282 321.5 169 406 272 272> 402 96<193 198 198 253>
VStem: 45 134<122 366 366 382> 272 134<106 122 122 192 76 192 296 366>
LayerCount: 2
Fore
SplineSet
89 -106 m 1,0,-1
 181 -10 l 1,1,-1
 169 -10 l 2,2,3
 45 -10 45 -10 45 122 c 2,4,-1
 45 366 l 2,5,6
 45 498 45 498 169 498 c 2,7,-1
 282 498 l 2,8,9
 406 498 406 498 406 366 c 2,10,-1
 406 296 l 1,11,-1
 272 296 l 1,12,-1
 272 382 l 2,13,14
 272 390 272 390 266.5 396 c 128,-1,15
 261 402 261 402 253 402 c 2,16,-1
 198 402 l 2,17,18
 190 402 190 402 184.5 396 c 128,-1,19
 179 390 179 390 179 382 c 2,20,-1
 179 106 l 2,21,22
 179 98 179 98 184.5 92 c 128,-1,23
 190 86 190 86 198 86 c 2,24,-1
 253 86 l 2,25,26
 261 86 261 86 266.5 92 c 128,-1,27
 272 98 272 98 272 106 c 2,28,-1
 272 192 l 1,29,-1
 406 192 l 1,30,-1
 406 122 l 2,31,32
 406 -8 406 -8 283 -10 c 1,33,-1
 236 -106 l 1,34,-1
 89 -106 l 1,0,-1
EndSplineSet
EndChar

StartChar: egrave
Encoding: 232 232 166
Width: 435
Flags: HMW
HStem: -10 96<129.5 253 198 253 253 258 198 282> -10 170<129.5 406 272 282> 208 88<179 272 179 406 179 272> 406 92<193 198 198 253> 545 102<214 214 214 230 83 313>
VStem: 45 134<122 208 296 366 366 386> 272 134<106 122 122 160 76 160 296 366>
LayerCount: 2
Fore
SplineSet
282 498 m 2,0,1
 406 498 406 498 406 366 c 2,2,-1
 406 208 l 1,3,-1
 179 208 l 1,4,-1
 179 106 l 2,5,6
 179 98 179 98 184.5 92 c 128,-1,7
 190 86 190 86 198 86 c 2,8,-1
 253 86 l 2,9,10
 261 86 261 86 266.5 92 c 128,-1,11
 272 98 272 98 272 106 c 2,12,-1
 272 160 l 1,13,-1
 406 160 l 1,14,-1
 406 122 l 2,15,16
 406 -10 406 -10 282 -10 c 2,17,-1
 169 -10 l 2,18,19
 45 -10 45 -10 45 122 c 2,20,-1
 45 366 l 2,21,22
 45 498 45 498 169 498 c 2,23,-1
 282 498 l 2,0,1
179 296 m 1,24,-1
 272 296 l 1,25,-1
 272 386 l 2,26,27
 272 394 272 394 266.5 400 c 128,-1,28
 261 406 261 406 253 406 c 2,29,-1
 198 406 l 2,30,31
 190 406 190 406 184.5 400 c 128,-1,32
 179 394 179 394 179 386 c 2,33,-1
 179 296 l 1,24,-1
214 545 m 1,34,-1
 83 647 l 1,35,-1
 230 647 l 1,36,-1
 313 545 l 1,37,-1
 214 545 l 1,34,-1
EndSplineSet
EndChar

StartChar: eacute
Encoding: 233 233 167
Width: 435
Flags: HMW
HStem: -10 96<129.5 253 198 253 253 258 198 282> -10 170<129.5 406 272 282> 208 88<179 272 179 406 179 272> 406 92<193 198 198 253> 545 102<211 227 128 358>
VStem: 45 134<122 208 296 366 366 386> 272 134<106 122 122 160 76 160 296 366>
LayerCount: 2
Fore
SplineSet
282 498 m 2,0,1
 406 498 406 498 406 366 c 2,2,-1
 406 208 l 1,3,-1
 179 208 l 1,4,-1
 179 106 l 2,5,6
 179 98 179 98 184.5 92 c 128,-1,7
 190 86 190 86 198 86 c 2,8,-1
 253 86 l 2,9,10
 261 86 261 86 266.5 92 c 128,-1,11
 272 98 272 98 272 106 c 2,12,-1
 272 160 l 1,13,-1
 406 160 l 1,14,-1
 406 122 l 2,15,16
 406 -10 406 -10 282 -10 c 2,17,-1
 169 -10 l 2,18,19
 45 -10 45 -10 45 122 c 2,20,-1
 45 366 l 2,21,22
 45 498 45 498 169 498 c 2,23,-1
 282 498 l 2,0,1
179 296 m 1,24,-1
 272 296 l 1,25,-1
 272 386 l 2,26,27
 272 394 272 394 266.5 400 c 128,-1,28
 261 406 261 406 253 406 c 2,29,-1
 198 406 l 2,30,31
 190 406 190 406 184.5 400 c 128,-1,32
 179 394 179 394 179 386 c 2,33,-1
 179 296 l 1,24,-1
358 647 m 1,34,-1
 227 545 l 1,35,-1
 128 545 l 1,36,-1
 211 647 l 1,37,-1
 358 647 l 1,34,-1
EndSplineSet
EndChar

StartChar: ecircumflex
Encoding: 234 234 168
Width: 435
Flags: HMW
HStem: -10 96<129.5 253 198 253 253 258 198 282> -10 170<129.5 406 272 282> 208 88<179 272 179 406 179 272> 406 92<193 198 198 253> 541 106<150 166 67 300 284 300 150 383 284 284>
VStem: 45 134<122 208 296 366 366 386> 272 134<106 122 122 160 76 160 296 366>
LayerCount: 2
Fore
SplineSet
282 498 m 2,0,1
 406 498 406 498 406 366 c 2,2,-1
 406 208 l 1,3,-1
 179 208 l 1,4,-1
 179 106 l 2,5,6
 179 98 179 98 184.5 92 c 128,-1,7
 190 86 190 86 198 86 c 2,8,-1
 253 86 l 2,9,10
 261 86 261 86 266.5 92 c 128,-1,11
 272 98 272 98 272 106 c 2,12,-1
 272 160 l 1,13,-1
 406 160 l 1,14,-1
 406 122 l 2,15,16
 406 -10 406 -10 282 -10 c 2,17,-1
 169 -10 l 2,18,19
 45 -10 45 -10 45 122 c 2,20,-1
 45 366 l 2,21,22
 45 498 45 498 169 498 c 2,23,-1
 282 498 l 2,0,1
179 296 m 1,24,-1
 272 296 l 1,25,-1
 272 386 l 2,26,27
 272 394 272 394 266.5 400 c 128,-1,28
 261 406 261 406 253 406 c 2,29,-1
 198 406 l 2,30,31
 190 406 190 406 184.5 400 c 128,-1,32
 179 394 179 394 179 386 c 2,33,-1
 179 296 l 1,24,-1
383 541 m 1,34,-1
 284 541 l 1,35,-1
 225 597 l 1,36,-1
 166 541 l 1,37,-1
 67 541 l 1,38,-1
 150 647 l 1,39,-1
 300 647 l 1,40,-1
 383 541 l 1,34,-1
EndSplineSet
EndChar

StartChar: edieresis
Encoding: 235 235 169
Width: 435
Flags: HMW
HStem: -10 96<129.5 253 198 253 253 258 198 282> -10 170<129.5 406 272 282> 208 88<179 272 179 406 179 272> 406 92<193 198 198 253> 543 114<128.5 160 290.5 322>
VStem: 45 134<122 208 296 366 366 386> 87 114<584 615.5> 249 114<584 615.5> 272 134<106 122 122 160 76 160 296 366>
LayerCount: 2
Fore
SplineSet
282 498 m 2,0,1
 406 498 406 498 406 366 c 2,2,-1
 406 208 l 1,3,-1
 179 208 l 1,4,-1
 179 106 l 2,5,6
 179 98 179 98 184.5 92 c 128,-1,7
 190 86 190 86 198 86 c 2,8,-1
 253 86 l 2,9,10
 261 86 261 86 266.5 92 c 128,-1,11
 272 98 272 98 272 106 c 2,12,-1
 272 160 l 1,13,-1
 406 160 l 1,14,-1
 406 122 l 2,15,16
 406 -10 406 -10 282 -10 c 2,17,-1
 169 -10 l 2,18,19
 45 -10 45 -10 45 122 c 2,20,-1
 45 366 l 2,21,22
 45 498 45 498 169 498 c 2,23,-1
 282 498 l 2,0,1
179 296 m 1,24,-1
 272 296 l 1,25,-1
 272 386 l 2,26,27
 272 394 272 394 266.5 400 c 128,-1,28
 261 406 261 406 253 406 c 2,29,-1
 198 406 l 2,30,31
 190 406 190 406 184.5 400 c 128,-1,32
 179 394 179 394 179 386 c 2,33,-1
 179 296 l 1,24,-1
184.5 640 m 128,-1,35
 201 623 201 623 201 599.5 c 128,-1,36
 201 576 201 576 184.5 559.5 c 128,-1,37
 168 543 168 543 144.5 543 c 128,-1,38
 121 543 121 543 104 559.5 c 128,-1,39
 87 576 87 576 87 599.5 c 128,-1,40
 87 623 87 623 104 640 c 128,-1,41
 121 657 121 657 144.5 657 c 128,-1,34
 168 657 168 657 184.5 640 c 128,-1,35
346.5 640 m 128,-1,43
 363 623 363 623 363 599.5 c 128,-1,44
 363 576 363 576 346.5 559.5 c 128,-1,45
 330 543 330 543 306.5 543 c 128,-1,46
 283 543 283 543 266 559.5 c 128,-1,47
 249 576 249 576 249 599.5 c 128,-1,48
 249 623 249 623 266 640 c 128,-1,49
 283 657 283 657 306.5 657 c 128,-1,42
 330 657 330 657 346.5 640 c 128,-1,43
EndSplineSet
EndChar

StartChar: eth
Encoding: 240 240 170
Width: 455
Flags: HMW
HStem: -10 84<129.5 253 198 253 253 258 198 282> 384 83<193 198 198 219 169 253> 667 20G<168 168>
VStem: 45 134<122 335 335 364> 272 134<94 122 122 335>
LayerCount: 2
Fore
SplineSet
390 413 m 0,0,1
 406 382 406 382 406 335 c 2,2,-1
 406 122 l 2,3,4
 406 -10 406 -10 282 -10 c 2,5,-1
 169 -10 l 2,6,7
 45 -10 45 -10 45 122 c 2,8,-1
 45 335 l 2,9,10
 45 467 45 467 169 467 c 2,11,-1
 219 467 l 1,12,-1
 168 529 l 1,13,-1
 109 486 l 1,14,-1
 76 531 l 1,15,-1
 133 573 l 1,16,-1
 90 626 l 1,17,-1
 168 687 l 1,18,-1
 213 631 l 1,19,-1
 255 662 l 1,20,-1
 288 616 l 1,21,-1
 249 587 l 1,22,23
 385 423 385 423 390 413 c 0,0,1
272 94 m 2,24,-1
 272 364 l 2,25,26
 272 372 272 372 266.5 378 c 128,-1,27
 261 384 261 384 253 384 c 2,28,-1
 198 384 l 2,29,30
 190 384 190 384 184.5 378 c 128,-1,31
 179 372 179 372 179 364 c 2,32,-1
 179 94 l 2,33,34
 179 86 179 86 184.5 80 c 128,-1,35
 190 74 190 74 198 74 c 2,36,-1
 253 74 l 2,37,38
 261 74 261 74 266.5 80 c 128,-1,39
 272 86 272 86 272 94 c 2,24,-1
EndSplineSet
EndChar

StartChar: igrave
Encoding: 236 236 171
Width: 246
Flags: HMW
HStem: 0 21G<63 63 63 197> 468 20G<63 197 197 197> 545 102<131 131 131 147 0 230>
VStem: 63 134<0 488 0 488>
LayerCount: 2
Fore
SplineSet
63 0 m 1,0,-1
 63 488 l 1,1,-1
 197 488 l 1,2,-1
 197 0 l 1,3,-1
 63 0 l 1,0,-1
131 545 m 1,4,-1
 0 647 l 1,5,-1
 147 647 l 1,6,-1
 230 545 l 1,7,-1
 131 545 l 1,4,-1
EndSplineSet
EndChar

StartChar: iacute
Encoding: 237 237 172
Width: 246
Flags: HMW
HStem: 0 21G<63 197 63 63> 468 20G<63 197 197 197> 545 102<113 129 30 260>
VStem: 63 134<0 488 0 488>
LayerCount: 2
Fore
SplineSet
197 488 m 1,0,-1
 197 0 l 1,1,-1
 63 0 l 1,2,-1
 63 488 l 1,3,-1
 197 488 l 1,0,-1
260 647 m 1,4,-1
 129 545 l 1,5,-1
 30 545 l 1,6,-1
 113 647 l 1,7,-1
 260 647 l 1,4,-1
EndSplineSet
EndChar

StartChar: icircumflex
Encoding: 238 238 173
Width: 246
Flags: HMW
HStem: 0 21G<63 63 63 197> 468 20G<63 197 197 197> 541 106<55 71 -28 205 189 205 55 288 189 189>
VStem: 63 134<0 488 0 488>
LayerCount: 2
Fore
SplineSet
63 0 m 1,0,-1
 63 488 l 1,1,-1
 197 488 l 1,2,-1
 197 0 l 1,3,-1
 63 0 l 1,0,-1
288 541 m 1,4,-1
 189 541 l 1,5,-1
 130 597 l 1,6,-1
 71 541 l 1,7,-1
 -28 541 l 1,8,-1
 55 647 l 1,9,-1
 205 647 l 1,10,-1
 288 541 l 1,4,-1
EndSplineSet
EndChar

StartChar: idieresis
Encoding: 239 239 174
Width: 246
Flags: HMW
HStem: 0 21G<63 63 63 197> 468 20G<63 197 197 197> 543 114<33.5 65 195.5 227>
VStem: -8 114<584 615.5> 63 134<0 488 0 488> 154 114<584 615.5>
LayerCount: 2
Fore
SplineSet
63 0 m 1,0,-1
 63 488 l 1,1,-1
 197 488 l 1,2,-1
 197 0 l 1,3,-1
 63 0 l 1,0,-1
89.5 640 m 128,-1,5
 106 623 106 623 106 599.5 c 128,-1,6
 106 576 106 576 89.5 559.5 c 128,-1,7
 73 543 73 543 49.5 543 c 128,-1,8
 26 543 26 543 9 559.5 c 128,-1,9
 -8 576 -8 576 -8 599.5 c 128,-1,10
 -8 623 -8 623 9 640 c 128,-1,11
 26 657 26 657 49.5 657 c 128,-1,4
 73 657 73 657 89.5 640 c 128,-1,5
251.5 640 m 128,-1,13
 268 623 268 623 268 599.5 c 128,-1,14
 268 576 268 576 251.5 559.5 c 128,-1,15
 235 543 235 543 211.5 543 c 128,-1,16
 188 543 188 543 171 559.5 c 128,-1,17
 154 576 154 576 154 599.5 c 128,-1,18
 154 623 154 623 171 640 c 128,-1,19
 188 657 188 657 211.5 657 c 128,-1,12
 235 657 235 657 251.5 640 c 128,-1,13
EndSplineSet
EndChar

StartChar: ntilde
Encoding: 241 241 175
Width: 452
Flags: HMW
HStem: 0 21G<45 179 45 45 272 272 272 406> 402 96<193 282 198 282> 468 20G<45 167 167 167> 535 80<275 312.5 279 284> 535 112<142 276.5 142 284>
VStem: 45 134<0 382> 272 134<0 366 0 382 0 387.5>
LayerCount: 2
Fore
SplineSet
179 0 m 1,0,-1
 45 0 l 1,1,-1
 45 488 l 1,2,-1
 167 488 l 1,3,-1
 167 463 l 1,4,5
 198 498 198 498 261 498 c 2,6,-1
 282 498 l 2,7,8
 406 498 406 498 406 366 c 2,9,-1
 406 0 l 1,10,-1
 272 0 l 1,11,-1
 272 382 l 2,12,13
 272 390 272 390 266.5 396 c 128,-1,14
 261 402 261 402 253 402 c 2,15,-1
 198 402 l 2,16,17
 190 402 190 402 184.5 396 c 128,-1,18
 179 390 179 390 179 382 c 2,19,-1
 179 0 l 1,0,-1
275 535 m 1,20,21
 248 538 248 538 211.5 552 c 128,-1,22
 175 566 175 566 156 568 c 1,23,24
 115 568 115 568 90 537 c 1,25,-1
 63 539 l 1,26,-1
 64 548 l 1,27,28
 68 597 68 597 97 622 c 128,-1,29
 126 647 126 647 162.5 647 c 0,30,31
 199 647 199 647 240 631 c 128,-1,32
 281 615 281 615 308 615 c 0,33,34
 335 615 335 615 361 645 c 1,35,-1
 388 643 l 1,36,-1
 387 634 l 1,37,38
 383 586 383 586 353.5 560.5 c 128,-1,39
 324 535 324 535 284 535 c 2,40,-1
 275 535 l 1,20,21
EndSplineSet
EndChar

StartChar: ograve
Encoding: 242 242 176
Width: 452
Flags: HMW
HStem: -10 84<129.5 253 198 253 253 258 198 282> 415 83<193 198 198 253> 545 102<216 216 216 232 85 315>
VStem: 45 134<122 366 366 395> 272 134<94 122 122 366>
LayerCount: 2
Fore
SplineSet
406 366 m 2,0,-1
 406 122 l 2,1,2
 406 -10 406 -10 282 -10 c 2,3,-1
 169 -10 l 2,4,5
 45 -10 45 -10 45 122 c 2,6,-1
 45 366 l 2,7,8
 45 498 45 498 169 498 c 2,9,-1
 282 498 l 2,10,11
 406 498 406 498 406 366 c 2,0,-1
272 94 m 2,12,-1
 272 395 l 2,13,14
 272 403 272 403 266.5 409 c 128,-1,15
 261 415 261 415 253 415 c 2,16,-1
 198 415 l 2,17,18
 190 415 190 415 184.5 409 c 128,-1,19
 179 403 179 403 179 395 c 2,20,-1
 179 94 l 2,21,22
 179 86 179 86 184.5 80 c 128,-1,23
 190 74 190 74 198 74 c 2,24,-1
 253 74 l 2,25,26
 261 74 261 74 266.5 80 c 128,-1,27
 272 86 272 86 272 94 c 2,12,-1
216 545 m 1,28,-1
 85 647 l 1,29,-1
 232 647 l 1,30,-1
 315 545 l 1,31,-1
 216 545 l 1,28,-1
EndSplineSet
EndChar

StartChar: oacute
Encoding: 243 243 177
Width: 452
Flags: HMW
HStem: -10 84<129.5 253 198 253 253 258 198 282> 415 83<193 198 198 253> 545 102<219 235 136 366>
VStem: 45 134<122 366 366 395> 272 134<94 122 122 366>
LayerCount: 2
Fore
SplineSet
406 366 m 2,0,-1
 406 122 l 2,1,2
 406 -10 406 -10 282 -10 c 2,3,-1
 169 -10 l 2,4,5
 45 -10 45 -10 45 122 c 2,6,-1
 45 366 l 2,7,8
 45 498 45 498 169 498 c 2,9,-1
 282 498 l 2,10,11
 406 498 406 498 406 366 c 2,0,-1
272 94 m 2,12,-1
 272 395 l 2,13,14
 272 403 272 403 266.5 409 c 128,-1,15
 261 415 261 415 253 415 c 2,16,-1
 198 415 l 2,17,18
 190 415 190 415 184.5 409 c 128,-1,19
 179 403 179 403 179 395 c 2,20,-1
 179 94 l 2,21,22
 179 86 179 86 184.5 80 c 128,-1,23
 190 74 190 74 198 74 c 2,24,-1
 253 74 l 2,25,26
 261 74 261 74 266.5 80 c 128,-1,27
 272 86 272 86 272 94 c 2,12,-1
366 647 m 1,28,-1
 235 545 l 1,29,-1
 136 545 l 1,30,-1
 219 647 l 1,31,-1
 366 647 l 1,28,-1
EndSplineSet
EndChar

StartChar: ocircumflex
Encoding: 244 244 178
Width: 452
Flags: HMW
HStem: -10 84<129.5 253 198 253 253 258 198 282> 415 83<193 198 198 253> 541 106<150 166 67 300 284 300 150 383 284 284>
VStem: 45 134<122 366 366 395> 272 134<94 122 122 366>
LayerCount: 2
Fore
SplineSet
406 366 m 2,0,-1
 406 122 l 2,1,2
 406 -10 406 -10 282 -10 c 2,3,-1
 169 -10 l 2,4,5
 45 -10 45 -10 45 122 c 2,6,-1
 45 366 l 2,7,8
 45 498 45 498 169 498 c 2,9,-1
 282 498 l 2,10,11
 406 498 406 498 406 366 c 2,0,-1
272 94 m 2,12,-1
 272 395 l 2,13,14
 272 403 272 403 266.5 409 c 128,-1,15
 261 415 261 415 253 415 c 2,16,-1
 198 415 l 2,17,18
 190 415 190 415 184.5 409 c 128,-1,19
 179 403 179 403 179 395 c 2,20,-1
 179 94 l 2,21,22
 179 86 179 86 184.5 80 c 128,-1,23
 190 74 190 74 198 74 c 2,24,-1
 253 74 l 2,25,26
 261 74 261 74 266.5 80 c 128,-1,27
 272 86 272 86 272 94 c 2,12,-1
383 541 m 1,28,-1
 284 541 l 1,29,-1
 225 597 l 1,30,-1
 166 541 l 1,31,-1
 67 541 l 1,32,-1
 150 647 l 1,33,-1
 300 647 l 1,34,-1
 383 541 l 1,28,-1
EndSplineSet
EndChar

StartChar: otilde
Encoding: 245 245 179
Width: 452
Flags: HMW
HStem: -10 84<129.5 253 198 253 253 258 198 282> 415 83<193 198 198 253> 535 80<277 314.5 281 286> 535 112<144 278.5 144 286>
VStem: 45 134<122 366 366 395> 272 134<94 122 122 366>
LayerCount: 2
Fore
SplineSet
406 366 m 2,0,-1
 406 122 l 2,1,2
 406 -10 406 -10 282 -10 c 2,3,-1
 169 -10 l 2,4,5
 45 -10 45 -10 45 122 c 2,6,-1
 45 366 l 2,7,8
 45 498 45 498 169 498 c 2,9,-1
 282 498 l 2,10,11
 406 498 406 498 406 366 c 2,0,-1
272 94 m 2,12,-1
 272 395 l 2,13,14
 272 403 272 403 266.5 409 c 128,-1,15
 261 415 261 415 253 415 c 2,16,-1
 198 415 l 2,17,18
 190 415 190 415 184.5 409 c 128,-1,19
 179 403 179 403 179 395 c 2,20,-1
 179 94 l 2,21,22
 179 86 179 86 184.5 80 c 128,-1,23
 190 74 190 74 198 74 c 2,24,-1
 253 74 l 2,25,26
 261 74 261 74 266.5 80 c 128,-1,27
 272 86 272 86 272 94 c 2,12,-1
277 535 m 1,28,29
 250 538 250 538 213.5 552 c 128,-1,30
 177 566 177 566 158 568 c 1,31,32
 117 568 117 568 92 537 c 1,33,-1
 65 539 l 1,34,-1
 66 548 l 1,35,36
 70 597 70 597 99 622 c 128,-1,37
 128 647 128 647 164.5 647 c 0,38,39
 201 647 201 647 242 631 c 128,-1,40
 283 615 283 615 310 615 c 0,41,42
 337 615 337 615 363 645 c 1,43,-1
 390 643 l 1,44,-1
 389 634 l 1,45,46
 385 586 385 586 355.5 560.5 c 128,-1,47
 326 535 326 535 286 535 c 2,48,-1
 277 535 l 1,28,29
EndSplineSet
EndChar

StartChar: odieresis
Encoding: 246 246 180
Width: 452
Flags: HMW
HStem: -10 84<129.5 253 198 253 253 258 198 282> 415 83<193 198 198 253> 543 114<127.5 159 289.5 321>
VStem: 45 134<122 366 366 395> 86 114<584 615.5> 248 114<584 615.5> 272 134<94 122 122 366>
LayerCount: 2
Fore
SplineSet
406 366 m 2,0,-1
 406 122 l 2,1,2
 406 -10 406 -10 282 -10 c 2,3,-1
 169 -10 l 2,4,5
 45 -10 45 -10 45 122 c 2,6,-1
 45 366 l 2,7,8
 45 498 45 498 169 498 c 2,9,-1
 282 498 l 2,10,11
 406 498 406 498 406 366 c 2,0,-1
272 94 m 2,12,-1
 272 395 l 2,13,14
 272 403 272 403 266.5 409 c 128,-1,15
 261 415 261 415 253 415 c 2,16,-1
 198 415 l 2,17,18
 190 415 190 415 184.5 409 c 128,-1,19
 179 403 179 403 179 395 c 2,20,-1
 179 94 l 2,21,22
 179 86 179 86 184.5 80 c 128,-1,23
 190 74 190 74 198 74 c 2,24,-1
 253 74 l 2,25,26
 261 74 261 74 266.5 80 c 128,-1,27
 272 86 272 86 272 94 c 2,12,-1
183.5 640 m 128,-1,29
 200 623 200 623 200 599.5 c 128,-1,30
 200 576 200 576 183.5 559.5 c 128,-1,31
 167 543 167 543 143.5 543 c 128,-1,32
 120 543 120 543 103 559.5 c 128,-1,33
 86 576 86 576 86 599.5 c 128,-1,34
 86 623 86 623 103 640 c 128,-1,35
 120 657 120 657 143.5 657 c 128,-1,28
 167 657 167 657 183.5 640 c 128,-1,29
345.5 640 m 128,-1,37
 362 623 362 623 362 599.5 c 128,-1,38
 362 576 362 576 345.5 559.5 c 128,-1,39
 329 543 329 543 305.5 543 c 128,-1,40
 282 543 282 543 265 559.5 c 128,-1,41
 248 576 248 576 248 599.5 c 128,-1,42
 248 623 248 623 265 640 c 128,-1,43
 282 657 282 657 305.5 657 c 128,-1,36
 329 657 329 657 345.5 640 c 128,-1,37
EndSplineSet
EndChar

StartChar: oslash
Encoding: 248 248 181
Width: 452
Flags: HMW
HStem: -61 21G<91 91> -10 84<160.5 253 198 253 253 258 198 282> 415 83<193 198 198 253> 529 20G<361 361>
VStem: 45 134<229 366 366 395> 272 134<94 122 122 259 259 259>
LayerCount: 2
Fore
SplineSet
418 516 m 1,0,-1
 383 455 l 1,1,2
 406 423 406 423 406 366 c 2,3,-1
 406 122 l 2,4,5
 406 -10 406 -10 282 -10 c 2,6,-1
 169 -10 l 2,7,8
 144 -10 144 -10 123 -4 c 1,9,-1
 91 -61 l 1,10,-1
 34 -28 l 1,11,-1
 68 33 l 1,12,13
 45 65 45 65 45 122 c 2,14,-1
 45 366 l 2,15,16
 45 498 45 498 169 498 c 2,17,-1
 282 498 l 2,18,19
 308 498 308 498 329 492 c 1,20,-1
 361 549 l 1,21,-1
 418 516 l 1,0,-1
179 395 m 2,22,-1
 179 229 l 1,23,-1
 272 393 l 1,24,-1
 272 395 l 2,25,26
 272 403 272 403 266.5 409 c 128,-1,27
 261 415 261 415 253 415 c 2,28,-1
 198 415 l 2,29,30
 190 415 190 415 184.5 409 c 128,-1,31
 179 403 179 403 179 395 c 2,22,-1
272 94 m 2,32,-1
 272 259 l 1,33,-1
 179 95 l 1,34,-1
 179 94 l 2,35,36
 179 86 179 86 184.5 80 c 128,-1,37
 190 74 190 74 198 74 c 2,38,-1
 253 74 l 2,39,40
 261 74 261 74 266.5 80 c 128,-1,41
 272 86 272 86 272 94 c 2,32,-1
EndSplineSet
EndChar

StartChar: thorn
Encoding: 254 254 182
Width: 439
Flags: HMW
HStem: -159 21G<45 45 45 179> -10 96<244 253 253 258 198 261 198 282> 402 96<193 282 198 282> 627 20G<45 179 179 179>
VStem: 45 134<-159 13 100.5 106 106 382 474 647> 272 134<106 122 122 366>
LayerCount: 2
Fore
SplineSet
45 -159 m 1,0,-1
 45 647 l 1,1,-1
 179 647 l 1,2,-1
 179 474 l 1,3,4
 211 498 211 498 261 498 c 2,5,-1
 282 498 l 2,6,7
 406 498 406 498 406 366 c 2,8,-1
 406 122 l 2,9,10
 406 -10 406 -10 282 -10 c 2,11,-1
 261 -10 l 2,12,13
 210 -10 210 -10 179 13 c 1,14,-1
 179 -159 l 1,15,-1
 45 -159 l 1,0,-1
179 382 m 2,16,-1
 179 106 l 2,17,18
 179 98 179 98 184.5 92 c 128,-1,19
 190 86 190 86 198 86 c 2,20,-1
 253 86 l 2,21,22
 261 86 261 86 266.5 92 c 128,-1,23
 272 98 272 98 272 106 c 2,24,-1
 272 382 l 2,25,26
 272 390 272 390 266.5 396 c 128,-1,27
 261 402 261 402 253 402 c 2,28,-1
 198 402 l 2,29,30
 190 402 190 402 184.5 396 c 128,-1,31
 179 390 179 390 179 382 c 2,16,-1
EndSplineSet
EndChar

StartChar: ugrave
Encoding: 249 249 183
Width: 452
Flags: HMW
HStem: -10 96<129.5 253 169 253> 0 21G<284 406 284 284> 468 20G<45 179 179 179 272 406 406 406> 545 102<219 219 219 235 88 318>
VStem: 45 134<122 488> 272 134<106 488 0 488>
LayerCount: 2
Fore
SplineSet
272 488 m 1,0,-1
 406 488 l 1,1,-1
 406 0 l 1,2,-1
 284 0 l 1,3,-1
 284 25 l 1,4,5
 253 -10 253 -10 190 -10 c 2,6,-1
 169 -10 l 2,7,8
 45 -10 45 -10 45 122 c 2,9,-1
 45 488 l 1,10,-1
 179 488 l 1,11,-1
 179 106 l 2,12,13
 179 98 179 98 184.5 92 c 128,-1,14
 190 86 190 86 198 86 c 2,15,-1
 253 86 l 2,16,17
 261 86 261 86 266.5 92 c 128,-1,18
 272 98 272 98 272 106 c 2,19,-1
 272 488 l 1,0,-1
219 545 m 1,20,-1
 88 647 l 1,21,-1
 235 647 l 1,22,-1
 318 545 l 1,23,-1
 219 545 l 1,20,-1
EndSplineSet
EndChar

StartChar: uacute
Encoding: 250 250 184
Width: 452
Flags: HMW
HStem: -10 96<129.5 253 169 253> 0 21G<284 406 284 284> 468 20G<45 179 179 179 272 406 406 406> 545 102<216 232 133 363>
VStem: 45 134<122 488> 272 134<106 488 0 488>
LayerCount: 2
Fore
SplineSet
272 488 m 1,0,-1
 406 488 l 1,1,-1
 406 0 l 1,2,-1
 284 0 l 1,3,-1
 284 25 l 1,4,5
 253 -10 253 -10 190 -10 c 2,6,-1
 169 -10 l 2,7,8
 45 -10 45 -10 45 122 c 2,9,-1
 45 488 l 1,10,-1
 179 488 l 1,11,-1
 179 106 l 2,12,13
 179 98 179 98 184.5 92 c 128,-1,14
 190 86 190 86 198 86 c 2,15,-1
 253 86 l 2,16,17
 261 86 261 86 266.5 92 c 128,-1,18
 272 98 272 98 272 106 c 2,19,-1
 272 488 l 1,0,-1
363 647 m 1,20,-1
 232 545 l 1,21,-1
 133 545 l 1,22,-1
 216 647 l 1,23,-1
 363 647 l 1,20,-1
EndSplineSet
EndChar

StartChar: ucircumflex
Encoding: 251 251 185
Width: 452
Flags: HMW
HStem: -10 96<129.5 253 169 253> 0 21G<284 406 284 284> 468 20G<45 179 179 179 272 406 406 406> 541 106<150 166 67 300 284 300 150 383 284 284>
VStem: 45 134<122 488> 272 134<106 488 0 488>
LayerCount: 2
Fore
SplineSet
272 488 m 1,0,-1
 406 488 l 1,1,-1
 406 0 l 1,2,-1
 284 0 l 1,3,-1
 284 25 l 1,4,5
 253 -10 253 -10 190 -10 c 2,6,-1
 169 -10 l 2,7,8
 45 -10 45 -10 45 122 c 2,9,-1
 45 488 l 1,10,-1
 179 488 l 1,11,-1
 179 106 l 2,12,13
 179 98 179 98 184.5 92 c 128,-1,14
 190 86 190 86 198 86 c 2,15,-1
 253 86 l 2,16,17
 261 86 261 86 266.5 92 c 128,-1,18
 272 98 272 98 272 106 c 2,19,-1
 272 488 l 1,0,-1
383 541 m 1,20,-1
 284 541 l 1,21,-1
 225 597 l 1,22,-1
 166 541 l 1,23,-1
 67 541 l 1,24,-1
 150 647 l 1,25,-1
 300 647 l 1,26,-1
 383 541 l 1,20,-1
EndSplineSet
EndChar

StartChar: udieresis
Encoding: 252 252 186
Width: 452
Flags: HMW
HStem: -10 96<129.5 253 169 253> 0 21G<284 406 284 284> 468 20G<45 179 179 179 272 406 406 406> 533 114<128.5 160 290.5 322>
VStem: 45 134<122 488> 87 114<574 605.5> 249 114<574 605.5> 272 134<106 488 0 488>
LayerCount: 2
Fore
SplineSet
272 488 m 1,0,-1
 406 488 l 1,1,-1
 406 0 l 1,2,-1
 284 0 l 1,3,-1
 284 25 l 1,4,5
 253 -10 253 -10 190 -10 c 2,6,-1
 169 -10 l 2,7,8
 45 -10 45 -10 45 122 c 2,9,-1
 45 488 l 1,10,-1
 179 488 l 1,11,-1
 179 106 l 2,12,13
 179 98 179 98 184.5 92 c 128,-1,14
 190 86 190 86 198 86 c 2,15,-1
 253 86 l 2,16,17
 261 86 261 86 266.5 92 c 128,-1,18
 272 98 272 98 272 106 c 2,19,-1
 272 488 l 1,0,-1
184.5 630 m 128,-1,21
 201 613 201 613 201 589.5 c 128,-1,22
 201 566 201 566 184.5 549.5 c 128,-1,23
 168 533 168 533 144.5 533 c 128,-1,24
 121 533 121 533 104 549.5 c 128,-1,25
 87 566 87 566 87 589.5 c 128,-1,26
 87 613 87 613 104 630 c 128,-1,27
 121 647 121 647 144.5 647 c 128,-1,20
 168 647 168 647 184.5 630 c 128,-1,21
346.5 630 m 128,-1,29
 363 613 363 613 363 589.5 c 128,-1,30
 363 566 363 566 346.5 549.5 c 128,-1,31
 330 533 330 533 306.5 533 c 128,-1,32
 283 533 283 533 266 549.5 c 128,-1,33
 249 566 249 566 249 589.5 c 128,-1,34
 249 613 249 613 266 630 c 128,-1,35
 283 647 283 647 306.5 647 c 128,-1,28
 330 647 330 647 346.5 630 c 128,-1,29
EndSplineSet
EndChar

StartChar: yacute
Encoding: 253 253 187
Width: 452
Flags: HMW
HStem: -169 96<142.5 253 207 253 253 258 207 282> -169 148<142.5 182 182 188 58 282> 22 96<129.5 253 169 253> 468 20G<45 179 179 179 272 406 406 406> 545 102<216 232 133 363>
VStem: 45 134<154 488> 58 121 272 134<-53 -37 -37 46 46 46 138 488>
LayerCount: 2
Fore
SplineSet
272 488 m 1,0,-1
 406 488 l 1,1,-1
 406 -37 l 2,2,3
 406 -169 406 -169 282 -169 c 2,4,-1
 182 -169 l 2,5,6
 58 -169 58 -169 58 -37 c 2,7,-1
 58 -21 l 1,8,-1
 188 -21 l 1,9,-1
 188 -53 l 2,10,11
 188 -61 188 -61 193.5 -67 c 128,-1,12
 199 -73 199 -73 207 -73 c 2,13,-1
 253 -73 l 2,14,15
 261 -73 261 -73 266.5 -67 c 128,-1,16
 272 -61 272 -61 272 -53 c 2,17,-1
 272 46 l 1,18,19
 242 22 242 22 190 22 c 2,20,-1
 169 22 l 2,21,22
 45 22 45 22 45 154 c 2,23,-1
 45 488 l 1,24,-1
 179 488 l 1,25,-1
 179 138 l 2,26,27
 179 130 179 130 184.5 124 c 128,-1,28
 190 118 190 118 198 118 c 2,29,-1
 253 118 l 2,30,31
 261 118 261 118 266.5 124 c 128,-1,32
 272 130 272 130 272 138 c 2,33,-1
 272 488 l 1,0,-1
363 647 m 1,34,-1
 232 545 l 1,35,-1
 133 545 l 1,36,-1
 216 647 l 1,37,-1
 363 647 l 1,34,-1
EndSplineSet
EndChar

StartChar: ydieresis
Encoding: 255 255 188
Width: 452
Flags: HMW
HStem: -169 96<142.5 253 207 253 253 258 207 282> -169 148<142.5 182 182 188 58 282> 22 96<129.5 253 169 253> 468 20G<45 179 179 179 272 406 406 406> 543 114<128.5 160 290.5 322>
VStem: 45 134<154 488> 58 121 87 114<584 615.5> 249 114<584 615.5> 272 134<-53 -37 -37 46 46 46 138 488>
LayerCount: 2
Fore
SplineSet
272 488 m 1,0,-1
 406 488 l 1,1,-1
 406 -37 l 2,2,3
 406 -169 406 -169 282 -169 c 2,4,-1
 182 -169 l 2,5,6
 58 -169 58 -169 58 -37 c 2,7,-1
 58 -21 l 1,8,-1
 188 -21 l 1,9,-1
 188 -53 l 2,10,11
 188 -61 188 -61 193.5 -67 c 128,-1,12
 199 -73 199 -73 207 -73 c 2,13,-1
 253 -73 l 2,14,15
 261 -73 261 -73 266.5 -67 c 128,-1,16
 272 -61 272 -61 272 -53 c 2,17,-1
 272 46 l 1,18,19
 242 22 242 22 190 22 c 2,20,-1
 169 22 l 2,21,22
 45 22 45 22 45 154 c 2,23,-1
 45 488 l 1,24,-1
 179 488 l 1,25,-1
 179 138 l 2,26,27
 179 130 179 130 184.5 124 c 128,-1,28
 190 118 190 118 198 118 c 2,29,-1
 253 118 l 2,30,31
 261 118 261 118 266.5 124 c 128,-1,32
 272 130 272 130 272 138 c 2,33,-1
 272 488 l 1,0,-1
184.5 640 m 128,-1,35
 201 623 201 623 201 599.5 c 128,-1,36
 201 576 201 576 184.5 559.5 c 128,-1,37
 168 543 168 543 144.5 543 c 128,-1,38
 121 543 121 543 104 559.5 c 128,-1,39
 87 576 87 576 87 599.5 c 128,-1,40
 87 623 87 623 104 640 c 128,-1,41
 121 657 121 657 144.5 657 c 128,-1,34
 168 657 168 657 184.5 640 c 128,-1,35
346.5 640 m 128,-1,43
 363 623 363 623 363 599.5 c 128,-1,44
 363 576 363 576 346.5 559.5 c 128,-1,45
 330 543 330 543 306.5 543 c 128,-1,46
 283 543 283 543 266 559.5 c 128,-1,47
 249 576 249 576 249 599.5 c 128,-1,48
 249 623 249 623 266 640 c 128,-1,49
 283 657 283 657 306.5 657 c 128,-1,42
 330 657 330 657 346.5 640 c 128,-1,43
EndSplineSet
EndChar

